<?xml version="1.0" encoding="UTF-8"?>
<svg version="1.1" xmlns="http://www.w3.org/2000/svg" width="500" height="500">
<path d="M0 0 C126.06 0 252.12 0 382 0 C382 132.99 382 265.98 382 403 C323.72815269 421.7973701 323.72815269 421.7973701 317.82421875 423.546875 C312.88213591 425.01525768 308.00605374 426.65429823 303.125 428.3125 C296.18091286 430.65186606 289.21751714 432.87113745 282.1875 434.9375 C275.05073534 437.04021543 267.98609042 439.30625963 260.9375 441.6875 C249.19750494 445.65270254 237.3838543 449.36460133 225.5534668 453.04882812 C217.06411139 455.69661211 208.58661294 458.36443352 200.23486328 461.42626953 C193.15832061 463.91252109 187.27871889 463.10691008 180.29296875 460.8046875 C179.20656853 460.45979782 179.20656853 460.45979782 178.09822083 460.10794067 C175.79151737 459.37301599 173.4896028 458.62419502 171.1875 457.875 C169.68583409 457.394934 168.18388246 456.91576075 166.68164062 456.4375 C158.38384445 453.78651284 150.11532018 451.049335 141.8543396 448.28608704 C133.02173356 445.33326973 124.16887144 442.44313192 115.3125 439.5625 C114.43948242 439.27831207 113.56646484 438.99412415 112.66699219 438.70132446 C101.74591159 435.14905759 90.810097 431.67276969 79.80688477 428.38208008 C72.43310764 426.16509622 65.14107137 423.73326049 57.84667969 421.26928711 C47.04131366 417.63938663 36.16217906 414.24821591 25.28027344 410.85644531 C1.41223818 403.41223818 1.41223818 403.41223818 0 402 C-0.09799902 399.86811345 -0.12371164 397.73290687 -0.12304783 395.59876919 C-0.1247786 394.57894909 -0.1247786 394.57894909 -0.12654433 393.53852656 C-0.12921756 391.23175083 -0.12468307 388.92504316 -0.12025452 386.61827087 C-0.12069007 384.9592379 -0.1215647 383.300205 -0.12284368 381.64117247 C-0.12509168 377.05999045 -0.12106322 372.47883157 -0.11606562 367.89765251 C-0.11176565 362.96579033 -0.11320722 358.03392956 -0.1139679 353.10206604 C-0.11449342 344.54987717 -0.11134366 335.99769591 -0.10573006 327.44550896 C-0.09761889 315.08033039 -0.09500023 302.71515552 -0.09374207 290.34997458 C-0.09155094 270.29052459 -0.08488922 250.23107865 -0.07543945 230.17163086 C-0.0662669 210.68042013 -0.05919676 191.1892105 -0.05493164 171.69799805 C-0.05466364 170.48522983 -0.05439565 169.27246161 -0.05411953 168.02294284 C-0.05204023 158.53894887 -0.05008326 149.05495488 -0.04816496 139.57096088 C-0.03872342 93.04730353 -0.01860698 46.52365633 0 0 Z " fill="#F6C561" transform="translate(59,26)"/>
<path d="M0 0 C126.06 0 252.12 0 382 0 C382 132.99 382 265.98 382 403 C323.72815269 421.7973701 323.72815269 421.7973701 317.82421875 423.546875 C312.88213591 425.01525768 308.00605374 426.65429823 303.125 428.3125 C296.18091286 430.65186606 289.21751714 432.87113745 282.1875 434.9375 C275.05073534 437.04021543 267.98609042 439.30625963 260.9375 441.6875 C249.19750494 445.65270254 237.3838543 449.36460133 225.5534668 453.04882812 C217.06411139 455.69661211 208.58661294 458.36443352 200.23486328 461.42626953 C193.15832061 463.91252109 187.27871889 463.10691008 180.29296875 460.8046875 C179.20656853 460.45979782 179.20656853 460.45979782 178.09822083 460.10794067 C175.79151737 459.37301599 173.4896028 458.62419502 171.1875 457.875 C169.68583409 457.394934 168.18388246 456.91576075 166.68164062 456.4375 C158.38384445 453.78651284 150.11532018 451.049335 141.8543396 448.28608704 C133.02173356 445.33326973 124.16887144 442.44313192 115.3125 439.5625 C114.43948242 439.27831207 113.56646484 438.99412415 112.66699219 438.70132446 C101.74591159 435.14905759 90.810097 431.67276969 79.80688477 428.38208008 C72.43310764 426.16509622 65.14107137 423.73326049 57.84667969 421.26928711 C47.04131366 417.63938663 36.16217906 414.24821591 25.28027344 410.85644531 C1.41223818 403.41223818 1.41223818 403.41223818 0 402 C-0.09799902 399.86811345 -0.12371164 397.73290687 -0.12304783 395.59876919 C-0.1247786 394.57894909 -0.1247786 394.57894909 -0.12654433 393.53852656 C-0.12921756 391.23175083 -0.12468307 388.92504316 -0.12025452 386.61827087 C-0.12069007 384.9592379 -0.1215647 383.300205 -0.12284368 381.64117247 C-0.12509168 377.05999045 -0.12106322 372.47883157 -0.11606562 367.89765251 C-0.11176565 362.96579033 -0.11320722 358.03392956 -0.1139679 353.10206604 C-0.11449342 344.54987717 -0.11134366 335.99769591 -0.10573006 327.44550896 C-0.09761889 315.08033039 -0.09500023 302.71515552 -0.09374207 290.34997458 C-0.09155094 270.29052459 -0.08488922 250.23107865 -0.07543945 230.17163086 C-0.0662669 210.68042013 -0.05919676 191.1892105 -0.05493164 171.69799805 C-0.05466364 170.48522983 -0.05439565 169.27246161 -0.05411953 168.02294284 C-0.05204023 158.53894887 -0.05008326 149.05495488 -0.04816496 139.57096088 C-0.03872342 93.04730353 -0.01860698 46.52365633 0 0 Z M18 17 C18 140.09 18 263.18 18 390 C22.29 391.32 26.58 392.64 31 394 C33.24328495 394.72827854 35.48390013 395.46498407 37.71875 396.21875 C39.39517578 396.78142578 39.39517578 396.78142578 41.10546875 397.35546875 C43.36848958 398.11848958 45.63151042 398.88151042 47.89453125 399.64453125 C54.50299749 401.86259777 61.1308964 403.98540823 67.79882812 406.01757812 C74.08796224 407.94767847 80.34359721 409.9835986 86.60546875 412 C91.87585369 413.69287145 97.15200314 415.36056451 102.4453125 416.98046875 C109.11094602 419.02341895 115.74366754 421.16122529 122.375 423.3125 C125.06868921 424.18328738 127.7628373 425.05265067 130.45703125 425.921875 C131.54760078 426.27373619 131.54760078 426.27373619 132.66020203 426.63270569 C134.23847254 427.14184373 135.8167665 427.6509091 137.39508057 428.15991211 C139.22418042 428.74979778 141.05323754 429.33981592 142.88226318 429.92993164 C149.21120882 431.9713715 155.54178447 434.00765418 161.87408447 436.03866577 C163.99269502 436.71897421 166.11082272 437.40078825 168.22845459 438.08413696 C171.22527119 439.0509214 174.22375075 440.01237422 177.22265625 440.97265625 C178.1214299 441.26388367 179.02020355 441.55511108 179.94621277 441.85516357 C187.39002711 444.22845424 192.73961979 445.55449433 200.3125 442.9375 C201.00545166 442.70998047 201.69840332 442.48246094 202.41235352 442.24804688 C208.7102222 440.15983971 214.9552461 437.91110884 221.18359375 435.625 C225.37811121 434.15293841 229.63744895 432.92227068 233.90625 431.6875 C243.04384639 429.03831573 252.0514284 426.04779144 261.0625 423 C272.33548799 419.19613492 283.63263726 415.51203859 295 412 C296.49661386 411.53029987 297.99282459 411.05930907 299.48828125 410.5859375 C300.11412109 410.38790527 300.73996094 410.18987305 301.38476562 409.98583984 C302.02091797 409.7842627 302.65707031 409.58268555 303.3125 409.375 C308.97452773 407.58120038 314.63992147 405.79855151 320.30961609 404.02914429 C323.42307433 403.0572866 326.53592543 402.08349118 329.64877319 401.10968018 C331.1978248 400.62565307 332.74715524 400.14251729 334.29678345 399.66033936 C342.17058753 397.20994427 350.00166184 394.74378801 357.703125 391.78369141 C360 391 360 391 365 390 C365 266.91 365 143.82 365 17 C250.49 17 135.98 17 18 17 Z " fill="#F6C561" transform="translate(59,26)"/>
<path d="M0 0 C3.77494925 2.3863072 5.97718698 4.87119901 8.0625 8.875 C8.68125 10.050625 8.68125 10.050625 9.3125 11.25 C10.85324899 16.64262147 10.72162559 21.02723052 8.375 26.0625 C5.42213996 31.3651712 1.50626892 35.15311554 -3.9375 37.875 C-4.9275 37.875 -5.9175 37.875 -6.9375 37.875 C-6.51791016 39.06416016 -6.51791016 39.06416016 -6.08984375 40.27734375 C-2.86978075 49.64762355 -0.15973464 59.11507166 2.46826172 68.66723633 C4.41411692 75.6921664 6.57045113 82.57699544 8.9453125 89.46875 C10.53810238 94.32508837 11.80232686 99.25276954 13.08203125 104.19921875 C14.57829361 109.80871229 16.3082466 115.3416369 18.0625 120.875 C20.27881781 121.10782231 20.27881781 121.10782231 22.015625 118.96875 C26.21898485 114.22209874 30.2547747 109.48670656 33.87109375 104.2734375 C34.46083984 103.58121094 34.46083984 103.58121094 35.0625 102.875 C35.7225 102.875 36.3825 102.875 37.0625 102.875 C37.495625 101.9778125 37.495625 101.9778125 37.9375 101.0625 C39.0625 98.875 39.0625 98.875 41.0625 95.875 C41.7225 95.875 42.3825 95.875 43.0625 95.875 C43.0625 94.885 43.0625 93.895 43.0625 92.875 C45.1875 90.5625 45.1875 90.5625 48.0625 87.875 C52.38517519 83.95720243 52.38517519 83.95720243 55.0625 78.875 C55.7225 78.875 56.3825 78.875 57.0625 78.875 C57.0625 78.215 57.0625 77.555 57.0625 76.875 C57.7225 76.875 58.3825 76.875 59.0625 76.875 C59.32933594 76.28847656 59.59617187 75.70195312 59.87109375 75.09765625 C61.08618377 72.83081619 62.39401806 71.20716818 64.125 69.3125 C70.82661458 61.81506869 77.13015716 53.99416727 83.0625 45.875 C82.44375 45.153125 81.825 44.43125 81.1875 43.6875 C76.69247751 37.73820552 76.36803792 32.12945775 77.0625 24.875 C78.3125 21.5 78.3125 21.5 80.0625 18.875 C80.59875 18.00875 81.135 17.1425 81.6875 16.25 C86.03669572 11.90080428 90.97736183 10.17287688 97 9.3125 C103.16185449 9.64590696 108.71555716 13.06965936 113.5 16.75 C117.39590937 22.04843674 118.94936424 27.35467416 118.0625 33.875 C116.67248838 40.41181142 113.30445035 44.80544284 108.0625 48.875 C103.17138369 51.32055815 98.40258884 51.05350451 93.0625 50.875 C93.00316284 51.8355127 93.00316284 51.8355127 92.94262695 52.81542969 C92.37256954 60.43526527 90.94124343 67.68311298 89.25 75.125 C87.06219695 85.01169575 85.07671914 94.89398095 83.4440918 104.88769531 C82.45684547 110.87135042 81.24775255 116.7827144 79.95678711 122.70800781 C78.87273074 127.71694173 77.85597907 132.7394287 76.8359375 137.76171875 C76.64108261 138.71947205 76.44622772 139.67722534 76.24546814 140.66400146 C75.43507963 144.648693 74.62567311 148.63358078 73.81835938 152.61889648 C73.22169572 155.56267395 72.62273747 158.50597703 72.0234375 161.44921875 C71.84114594 162.35226242 71.65885437 163.25530609 71.47103882 164.18571472 C71.30061066 165.02121353 71.1301825 165.85671234 70.95458984 166.7175293 C70.80597504 167.45029587 70.65736023 168.18306244 70.50424194 168.93803406 C70.0625 170.875 70.0625 170.875 69.0625 173.875 C70.7125 174.535 72.3625 175.195 74.0625 175.875 C74.42677333 182.31049557 74.42677333 182.31049557 72.9611969 184.58165932 C70.14396169 186.50068331 67.88404485 186.25276459 64.49584961 186.25595093 C63.82570045 186.2606309 63.15555128 186.26531087 62.46509457 186.27013266 C60.2148109 186.28211888 57.96513217 186.27261176 55.71484375 186.26318359 C54.10352217 186.2672477 52.49220338 186.27258868 50.88088989 186.27911377 C46.50077126 186.29281237 42.12086416 186.28747828 37.74074173 186.27797651 C33.16170929 186.27039306 28.58269524 186.27742186 24.00366211 186.28213501 C16.31328064 186.2875964 8.62298555 186.2803909 0.93261719 186.26611328 C-7.96462329 186.24978602 -16.86165754 186.25507426 -25.75889301 186.2715925 C-33.39122695 186.28519645 -41.02349873 186.28713238 -48.65584087 186.27927649 C-53.21721974 186.27459396 -57.7785016 186.273991 -62.33987427 186.28388596 C-66.62775474 186.29253751 -70.91536875 186.28656705 -75.20322037 186.26920319 C-76.77903933 186.26522862 -78.35488062 186.26638891 -79.93069077 186.27299118 C-82.07771547 186.28115888 -84.22388009 186.27094424 -86.37084961 186.25595093 C-87.57358017 186.25481985 -88.77631073 186.25368877 -90.01548767 186.25252342 C-92.9375 185.875 -92.9375 185.875 -94.82447815 184.57384682 C-96.69751768 181.71495662 -96.29696793 179.17012267 -95.9375 175.875 C-92.9375 173.875 -92.9375 173.875 -89.9375 173.875 C-90.17871582 172.85853394 -90.17871582 172.85853394 -90.42480469 171.8215332 C-93.12544041 160.39776705 -95.82256582 148.98636389 -97.9375 137.4375 C-99.38107751 129.55930096 -101.04525371 121.74937164 -102.8125 113.9375 C-105.3397855 102.76224746 -107.64897984 91.55672287 -109.84521484 80.31274414 C-111.19592807 73.43110129 -112.67469231 66.61138342 -114.38012695 59.80810547 C-114.95886521 56.76256829 -115.03498394 53.96745513 -114.9375 50.875 C-115.91589844 50.92720703 -115.91589844 50.92720703 -116.9140625 50.98046875 C-122.38599085 51.14995326 -126.3286674 51.15239207 -130.9375 47.875 C-136.48372251 42.45775941 -139.87013115 37.97159042 -140.4375 30.125 C-140.29484482 24.14239845 -137.97863626 20.18838123 -133.9375 15.875 C-128.76985747 11.79733104 -123.90660804 9.46960443 -117.1875 9.60546875 C-112.05873366 10.21985222 -107.70193627 12.07365083 -104.0703125 15.78125 C-99.05747722 22.20919189 -98.23029774 27.81041279 -98.9375 35.875 C-100.00990696 39.8539996 -101.68146473 43.23916193 -104.9375 45.875 C-103.61633746 48.68479639 -102.1355349 51.09839001 -100.25 53.5625 C-99.72792969 54.24957031 -99.20585937 54.93664062 -98.66796875 55.64453125 C-97.45158427 57.21237671 -96.22397846 58.77154912 -94.98828125 60.32421875 C-94.35277344 61.12472656 -93.71726563 61.92523438 -93.0625 62.75 C-92.46695313 63.48992187 -91.87140625 64.22984375 -91.2578125 64.9921875 C-89.9375 66.875 -89.9375 66.875 -89.9375 68.875 C-89.33607178 69.13240967 -88.73464355 69.38981934 -88.11499023 69.6550293 C-85.72373202 70.99476664 -84.68311196 72.18170632 -83.09765625 74.39453125 C-82.3387207 75.43383789 -82.3387207 75.43383789 -81.56445312 76.49414062 C-81.04818359 77.21794922 -80.53191406 77.94175781 -80 78.6875 C-76.5696771 83.45543309 -73.18092401 87.78046806 -68.9375 91.875 C-67.03147399 94.7693358 -65.440019 97.75438363 -63.9375 100.875 C-63.2775 100.875 -62.6175 100.875 -61.9375 100.875 C-60.2109375 102.73828125 -60.2109375 102.73828125 -58.3125 105.1875 C-57.68085938 105.98800781 -57.04921875 106.78851563 -56.3984375 107.61328125 C-54.9375 109.875 -54.9375 109.875 -54.9375 112.875 C-53.4525 113.37 -53.4525 113.37 -51.9375 113.875 C-51.6075 114.865 -51.2775 115.855 -50.9375 116.875 C-48.95793058 118.56588222 -46.95804804 120.23330472 -44.9375 121.875 C-44.6075 122.535 -44.2775 123.195 -43.9375 123.875 C-40.29364971 115.40661049 -37.59602047 106.68678359 -34.9375 97.875 C-34.55343994 96.6058374 -34.55343994 96.6058374 -34.16162109 95.31103516 C-31.02483934 84.96641967 -31.02483934 84.96641967 -28.00317383 74.58789062 C-26.88875662 70.70517427 -25.72935753 66.83743132 -24.5546875 62.97265625 C-24.33555695 62.2500914 -24.11642639 61.52752655 -23.89065552 60.7830658 C-23.1984634 58.50105043 -22.50549501 56.21927166 -21.8125 53.9375 C-21.33979217 52.37957294 -20.86713544 50.82163038 -20.39453125 49.26367188 C-19.24277775 45.46726853 -18.09032854 41.67107702 -16.9375 37.875 C-18.9175 37.38 -18.9175 37.38 -20.9375 36.875 C-20.9375 36.215 -20.9375 35.555 -20.9375 34.875 C-21.68 34.66875 -22.4225 34.4625 -23.1875 34.25 C-27.47030473 32.10859763 -29.01745434 28.62308675 -31.1875 24.5 C-32.9860824 18.20496159 -32.3410614 14.01933932 -29.5625 8.1875 C-23.31026127 -2.35491659 -10.90900524 -5.50815347 0 0 Z " fill="#ECA619" transform="translate(260.9375,158.125)"/>
<path d="M0 0 C114.51 0 229.02 0 347 0 C347 123.09 347 246.18 347 373 C340.07 374.98 340.07 374.98 333 377 C329.1554152 378.24640617 325.32487377 379.5096217 321.5 380.8125 C312.65573566 383.79410498 303.78759378 386.6810577 294.88671875 389.48876953 C289.06985672 391.32817274 283.27963326 393.23455326 277.5 395.1875 C272.48710886 396.87877938 267.47691251 398.4673639 262.375 399.875 C250.91686416 403.06520023 239.69408334 407.05568313 228.43212891 410.86962891 C219.73489973 413.81388262 211.02926286 416.62563097 202.20605469 419.16992188 C194.03924685 421.53833447 185.85740537 424.07818405 177.94921875 427.20703125 C172.87989164 428.57004238 168.28916542 426.88688007 163.4140625 425.28515625 C162.33374756 424.93348389 161.25343262 424.58181152 160.14038086 424.21948242 C158.98030518 423.83767822 157.82022949 423.45587402 156.625 423.0625 C154.11890041 422.24610017 151.6124948 421.43072941 149.10546875 420.6171875 C148.45334915 420.40525253 147.80122955 420.19331757 147.12934875 419.97496033 C142.23848612 418.38970664 137.33574231 416.8453067 132.42578125 415.3203125 C131.71568909 415.09965622 131.00559692 414.87899994 130.27398682 414.6516571 C127.48644138 413.78632421 124.69859498 412.92201693 121.90924072 412.06253052 C114.78222811 409.866119 107.72315432 407.56955655 100.73022461 404.97387695 C95.54753099 403.12519906 90.26738363 401.58697778 85 400 C80.1230328 398.50637045 75.24900989 397.00324726 70.375 395.5 C68.52648437 394.93345703 68.52648437 394.93345703 66.640625 394.35546875 C60.14167457 392.3478312 53.72753337 390.21453881 47.35058594 387.84863281 C44.41558503 386.78900847 41.45073281 385.93314673 38.4375 385.125 C32.16210204 383.37724662 25.99675866 381.38461901 19.83178711 379.28173828 C13.25378014 377.04683936 6.65295788 375.04706396 0 373 C0 249.91 0 126.82 0 0 Z M7 7 C7 126.13 7 245.26 7 368 C19.11393827 371.8544349 31.22252849 375.70222831 43.36557007 379.45941162 C53.19587613 382.5044844 62.99488161 385.59014921 72.67358398 389.09399414 C77.60174596 390.87772086 82.56914659 392.45516831 87.5859375 393.96875 C91.39875316 395.12044718 95.20120739 396.30305683 99 397.5 C99.76328613 397.74049072 100.52657227 397.98098145 101.31298828 398.22875977 C107.09802066 400.06077913 112.87077049 401.92946259 118.640625 403.80859375 C119.41591553 404.06107376 120.19120605 404.31355377 120.98999023 404.57368469 C122.17347046 404.95909676 122.17347046 404.95909676 123.38085938 405.35229492 C141.90351596 411.38618183 141.90351596 411.38618183 160.5 417.1875 C161.86753418 417.6060022 161.86753418 417.6060022 163.26269531 418.03295898 C166.62203037 419.04909131 166.62203037 419.04909131 170 420 C170.76683105 420.23315918 171.53366211 420.46631836 172.32373047 420.70654297 C176.00208702 421.10988037 178.54979224 420.11086823 182.0390625 418.90234375 C182.71939545 418.67100235 183.39972839 418.43966095 184.10067749 418.2013092 C186.27951145 417.45796954 188.4522589 416.69844329 190.625 415.9375 C193.44914951 414.96344198 196.27541013 413.99557269 199.1015625 413.02734375 C199.82149384 412.77957687 200.54142517 412.53181 201.28317261 412.27653503 C209.00489761 409.630217 216.78837176 407.18857311 224.57965088 404.75631714 C228.60999748 403.4969037 232.63701773 402.22695579 236.6640625 400.95703125 C237.87344986 400.5756752 237.87344986 400.5756752 239.10726929 400.18661499 C256.18765022 394.79757939 273.23604784 389.33243616 290.20556641 383.6027832 C297.07596965 381.28743493 303.96107228 379.05585163 310.89697266 376.94458008 C315.7956135 375.45340451 320.67975151 373.91727975 325.5625 372.375 C326.99819336 371.92640625 326.99819336 371.92640625 328.46289062 371.46875 C329.38392578 371.17742187 330.30496094 370.88609375 331.25390625 370.5859375 C332.07189697 370.3286084 332.8898877 370.0712793 333.73266602 369.80615234 C336.34356385 368.92966281 336.34356385 368.92966281 340 367 C340 248.2 340 129.4 340 7 C230.11 7 120.22 7 7 7 Z " fill="#D37C02" transform="translate(77,43)"/>
<path d="M0 0 C114.51 0 229.02 0 347 0 C347 123.09 347 246.18 347 373 C340.07 374.98 340.07 374.98 333 377 C329.1554152 378.24640617 325.32487377 379.5096217 321.5 380.8125 C312.65573566 383.79410498 303.78759378 386.6810577 294.88671875 389.48876953 C289.06985672 391.32817274 283.27963326 393.23455326 277.5 395.1875 C272.48710886 396.87877938 267.47691251 398.4673639 262.375 399.875 C250.91686416 403.06520023 239.69408334 407.05568313 228.43212891 410.86962891 C219.73489973 413.81388262 211.02926286 416.62563097 202.20605469 419.16992188 C194.03924685 421.53833447 185.85740537 424.07818405 177.94921875 427.20703125 C172.87989164 428.57004238 168.28916542 426.88688007 163.4140625 425.28515625 C162.33374756 424.93348389 161.25343262 424.58181152 160.14038086 424.21948242 C158.98030518 423.83767822 157.82022949 423.45587402 156.625 423.0625 C154.11890041 422.24610017 151.6124948 421.43072941 149.10546875 420.6171875 C148.45334915 420.40525253 147.80122955 420.19331757 147.12934875 419.97496033 C142.23848612 418.38970664 137.33574231 416.8453067 132.42578125 415.3203125 C131.71568909 415.09965622 131.00559692 414.87899994 130.27398682 414.6516571 C127.48644138 413.78632421 124.69859498 412.92201693 121.90924072 412.06253052 C114.78222811 409.866119 107.72315432 407.56955655 100.73022461 404.97387695 C95.54753099 403.12519906 90.26738363 401.58697778 85 400 C80.1230328 398.50637045 75.24900989 397.00324726 70.375 395.5 C68.52648437 394.93345703 68.52648437 394.93345703 66.640625 394.35546875 C60.14167457 392.3478312 53.72753337 390.21453881 47.35058594 387.84863281 C44.41558503 386.78900847 41.45073281 385.93314673 38.4375 385.125 C26.41995997 381.76696351 14.48176381 377.90427097 3 373 C4.32 372.67 5.64 372.34 7 372 C6.505 370.515 6.505 370.515 6 369 C10.3271845 367.74661896 12.92409704 368.33237588 17.13671875 369.80859375 C18.94402466 370.42903564 18.94402466 370.42903564 20.7878418 371.06201172 C21.42362152 371.28628845 22.05940125 371.51056519 22.71444702 371.74163818 C26.07224687 372.92587638 29.44314795 374.07179127 32.8125 375.22265625 C33.83901924 375.57505371 33.83901924 375.57505371 34.88627625 375.93457031 C42.63541592 378.58357892 50.46506468 380.96015291 58.30932617 383.31030273 C64.14550727 385.07199753 69.87780853 387.00419777 75.5949707 389.12060547 C78.37088169 390.13561221 81.16786825 391.03018797 84 391.875 C95.5889542 395.38924306 107.12602944 399.0585104 118.640625 402.80859375 C119.41591553 403.06107376 120.19120605 403.31355377 120.98999023 403.57368469 C122.17347046 403.95909676 122.17347046 403.95909676 123.38085938 404.35229492 C141.90351596 410.38618183 141.90351596 410.38618183 160.5 416.1875 C161.86753418 416.6060022 161.86753418 416.6060022 163.26269531 417.03295898 C166.62203037 418.04909131 166.62203037 418.04909131 170 419 C170.76683105 419.23315918 171.53366211 419.46631836 172.32373047 419.70654297 C176.00208702 420.10988037 178.54979224 419.11086823 182.0390625 417.90234375 C182.71939545 417.67100235 183.39972839 417.43966095 184.10067749 417.2013092 C186.27951145 416.45796954 188.4522589 415.69844329 190.625 414.9375 C193.44914951 413.96344198 196.27541013 412.99557269 199.1015625 412.02734375 C199.82149384 411.77957687 200.54142517 411.53181 201.28317261 411.27653503 C209.00489761 408.630217 216.78837176 406.18857311 224.57965088 403.75631714 C228.60999748 402.4969037 232.63701773 401.22695579 236.6640625 399.95703125 C237.87344986 399.5756752 237.87344986 399.5756752 239.10726929 399.18661499 C256.18765022 393.79757939 273.23604784 388.33243616 290.20556641 382.6027832 C297.07573944 380.28751251 303.96103446 378.05919859 310.89697266 375.94897461 C316.77105267 374.15255061 322.61465601 372.25938322 328.46289062 370.38085938 C329.84444336 369.9390332 329.84444336 369.9390332 331.25390625 369.48828125 C332.48089233 369.09443237 332.48089233 369.09443237 333.73266602 368.69262695 C335.80997658 368.0580485 337.88782838 367.50465674 340 367 C340.103125 367.639375 340.20625 368.27875 340.3125 368.9375 C340.6528125 369.9584375 340.6528125 369.9584375 341 371 C341.99 371.33 342.98 371.66 344 372 C343.67 371.01 343.34 370.02 343 369 C343.66 368.34 344.32 367.68 345 367 C345.30214361 364.28760867 345.30214361 364.28760867 345.24609566 361.05356407 C345.25007775 359.77814259 345.25405985 358.50272111 345.25816262 357.18865049 C345.25245578 355.75999275 345.24656457 354.33133574 345.24050903 352.90267944 C345.24138042 351.39540046 345.24313016 349.88812178 345.24568737 348.38084471 C345.25017807 344.22375054 345.24213369 340.06675863 345.23213124 335.90967751 C345.22352373 331.4325065 345.22641498 326.95534162 345.22793579 322.47816467 C345.22898636 314.71610514 345.22269186 306.95407914 345.21146011 299.19202805 C345.19523128 287.96930031 345.1899998 276.74658884 345.18748413 265.52385063 C345.18310291 247.31732352 345.16978224 229.11081428 345.15087891 210.90429688 C345.13253115 193.21451913 345.11839217 175.52474626 345.10986328 157.83496094 C345.10932729 156.73410833 345.10879129 155.63325572 345.10823905 154.49904394 C345.1040804 145.8901225 345.10016649 137.28120095 345.09632993 128.67227936 C345.07745006 86.44816983 345.03721643 44.22410504 345 2 C231.48 1.67 117.96 1.34 1 1 C1.33 123.76 1.66 246.52 2 373 C1.34 373 0.68 373 0 373 C0 249.91 0 126.82 0 0 Z " fill="#D27F07" transform="translate(77,43)"/>
<path d="M0 0 C1.14939752 3.44819255 0.82223629 4.20387752 -0.25 7.5625 C-1.69657723 12.53715474 -2.64034531 17.45511013 -3.4375 22.5625 C-4.54204991 29.57197373 -5.93143411 36.46478135 -7.51708984 43.38012695 C-8.79413788 48.97897439 -9.895932 54.59373119 -10.92578125 60.24267578 C-11.70869126 64.51357754 -12.57385466 68.75796644 -13.5 73 C-14.73433129 78.65735175 -15.82769929 84.32891927 -16.87060547 90.02368164 C-17.89829104 95.58682318 -19.09275448 101.10534893 -20.3515625 106.62109375 C-21.13610496 110.70922161 -21.5403037 114.86273332 -22 119 C-60.28 119 -98.56 119 -138 119 C-134.63422219 117.3171111 -132.47707028 116.56184149 -128.88671875 115.88671875 C-127.89293213 115.69319824 -126.89914551 115.49967773 -125.87524414 115.30029297 C-124.29731079 114.99696045 -124.29731079 114.99696045 -122.6875 114.6875 C-113.12279842 112.77727835 -104.15334344 110.34221021 -95 107 C-93.55140774 106.52931749 -92.10214083 106.06070822 -90.65234375 105.59375 C-85.97176437 104.04194236 -81.49320285 102.14992124 -77 100.125 C-76.21616943 99.77348877 -75.43233887 99.42197754 -74.62475586 99.05981445 C-65.42722081 95.24166655 -65.42722081 95.24166655 -57.48046875 89.47265625 C-56 88 -56 88 -52.75 86.25 C-48.43237514 83.88079483 -45.34045431 80.56370249 -42 77 C-41.48050781 76.49984375 -40.96101563 75.9996875 -40.42578125 75.484375 C-38.74801967 73.83165359 -38.74801967 73.83165359 -36.9375 70.8125 C-36.298125 69.884375 -35.65875 68.95625 -35 68 C-34.34 68 -33.68 68 -33 68 C-32.731875 67.443125 -32.46375 66.88625 -32.1875 66.3125 C-30.89871321 63.8027573 -29.46053274 61.4130541 -28 59 C-27.505 58.01 -27.505 58.01 -27 57 C-26.34 57 -25.68 57 -25 57 C-24.89300781 56.43539062 -24.78601563 55.87078125 -24.67578125 55.2890625 C-23.89043166 52.628861 -22.68726558 50.70628119 -21.1875 48.375 C-18.14409029 43.4185899 -16.04475076 38.4258347 -14 33 C-11.67848879 27.2039091 -9.3046421 21.48709101 -6.4375 15.9375 C-3.79511385 10.79488138 -1.86037296 5.46679429 0 0 Z " fill="#F0C419" transform="translate(350,208)"/>
<path d="M0 0 C126.06 0 252.12 0 382 0 C382 132.99 382 265.98 382 403 C323.72815269 421.7973701 323.72815269 421.7973701 317.82421875 423.546875 C312.88210654 425.01526641 308.0062894 426.65493356 303.125 428.3125 C295.71506707 430.79922553 288.28635212 433.21204436 280.8125 435.5 C279.95736816 435.76723877 279.10223633 436.03447754 278.22119141 436.30981445 C272.23489613 438.11744807 272.23489613 438.11744807 270 437 C271 435 271 435 273.6875 433.875 C276.9579435 433.01110926 279.63706182 432.83986009 283 433 C283 432.34 283 431.68 283 431 C284.16015625 430.72736328 284.16015625 430.72736328 285.34375 430.44921875 C292.47000736 428.73573386 292.47000736 428.73573386 299.375 426.3125 C302.88739555 425.04077058 305.30824749 424.72311856 309 425 C309 424.34 309 423.68 309 423 C315.25172386 420.13035626 320.09647445 418.48862774 327 419 C327 418.34 327 417.68 327 417 C329.26999825 416.49622232 331.54103003 415.99709981 333.8125 415.5 C335.07707031 415.2215625 336.34164063 414.943125 337.64453125 414.65625 C341 414 341 414 344 414 C344 413.34 344 412.68 344 412 C345.98 411.67 347.96 411.34 350 411 C350 410.34 350 409.68 350 409 C350.79664063 408.87882812 351.59328125 408.75765625 352.4140625 408.6328125 C360.42405918 407.57108284 360.42405918 407.57108284 368 405 C368.33 403.68 368.66 402.36 369 401 C372.63 401 376.26 401 380 401 C380 269.33 380 137.66 380 2 C255.26 2 130.52 2 2 2 C2 133.34 2 264.68 2 400 C2.99 400 3.98 400 5 400 C5 400.66 5 401.32 5 402 C8.3 402.66 11.6 403.32 15 404 C15 404.66 15 405.32 15 406 C15.66 406.33 16.32 406.66 17 407 C3.18181818 405.18181818 3.18181818 405.18181818 0 402 C-0.09799902 399.86811345 -0.12371164 397.73290687 -0.12304783 395.59876919 C-0.1247786 394.57894909 -0.1247786 394.57894909 -0.12654433 393.53852656 C-0.12921756 391.23175083 -0.12468307 388.92504316 -0.12025452 386.61827087 C-0.12069007 384.9592379 -0.1215647 383.300205 -0.12284368 381.64117247 C-0.12509168 377.05999045 -0.12106322 372.47883157 -0.11606562 367.89765251 C-0.11176565 362.96579033 -0.11320722 358.03392956 -0.1139679 353.10206604 C-0.11449342 344.54987717 -0.11134366 335.99769591 -0.10573006 327.44550896 C-0.09761889 315.08033039 -0.09500023 302.71515552 -0.09374207 290.34997458 C-0.09155094 270.29052459 -0.08488922 250.23107865 -0.07543945 230.17163086 C-0.0662669 210.68042013 -0.05919676 191.1892105 -0.05493164 171.69799805 C-0.05466364 170.48522983 -0.05439565 169.27246161 -0.05411953 168.02294284 C-0.05204023 158.53894887 -0.05008326 149.05495488 -0.04816496 139.57096088 C-0.03872342 93.04730353 -0.01860698 46.52365633 0 0 Z " fill="#EAC77A" transform="translate(59,26)"/>
<path d="M0 0 C0.67014916 -0.00311998 1.34029833 -0.00623996 2.03075504 -0.00945449 C4.28092758 -0.01744491 6.53083122 -0.0111069 8.78100586 -0.00482178 C10.39232542 -0.00753118 12.00364375 -0.01109183 13.61495972 -0.01544189 C17.99503988 -0.02457421 22.37502603 -0.02101818 26.75510788 -0.01468372 C31.33413704 -0.00962809 35.91315803 -0.01431396 40.4921875 -0.01745605 C48.18255054 -0.02109697 55.8728752 -0.0162933 63.56323242 -0.0067749 C72.46043378 0.00410989 81.35754349 0.0005844 90.25474262 -0.01042771 C97.88706657 -0.019497 105.51936289 -0.02078762 113.15169048 -0.01555037 C117.71305024 -0.0124287 122.27436688 -0.01202674 126.83572388 -0.01862335 C131.12354966 -0.02439098 135.41125702 -0.02041064 139.69906998 -0.00883484 C141.27489144 -0.00618513 142.85072283 -0.00695864 144.42654037 -0.01136017 C146.5733956 -0.01680487 148.71986852 -0.0099949 150.86669922 0 C152.06942978 0.00075405 153.27216034 0.0015081 154.51133728 0.002285 C157.43334961 0.25396729 157.43334961 0.25396729 160.43334961 2.25396729 C161.08798324 8.25477553 161.08798324 8.25477553 159.32032776 10.9528141 C156.51349103 12.88824962 154.25421871 12.63173251 150.86669922 12.63491821 C149.86147547 12.64193817 149.86147547 12.64193817 148.83594418 12.64909995 C146.58566051 12.66108616 144.33598178 12.65157905 142.08569336 12.64215088 C140.47437178 12.64621499 138.86305299 12.65155596 137.2517395 12.65808105 C132.87162087 12.67177965 128.49171376 12.66644557 124.11159134 12.6569438 C119.5325589 12.64936034 114.95354485 12.65638915 110.37451172 12.66110229 C102.68413025 12.66656369 94.99383516 12.65935819 87.3034668 12.64508057 C78.40622632 12.62875331 69.50919207 12.63404154 60.6119566 12.65055978 C52.97962266 12.66416374 45.34735088 12.66609966 37.71500874 12.65824378 C33.15362987 12.65356124 28.59234801 12.65295829 24.03097534 12.66285324 C19.74309487 12.6715048 15.45548086 12.66553433 11.16762924 12.64817047 C9.59181028 12.64419591 8.01596898 12.6453562 6.44015884 12.65195847 C4.29313414 12.66012617 2.14696952 12.64991153 0 12.63491821 C-1.20273056 12.63378714 -2.40546112 12.63265606 -3.64463806 12.63149071 C-6.56665039 12.25396729 -6.56665039 12.25396729 -8.45362854 10.9528141 C-10.32666808 8.09392391 -9.92611832 5.54908995 -9.56665039 2.25396729 C-5.94824513 -0.15830289 -4.30603102 0.00269966 0 0 Z " fill="#ED8B13" transform="translate(174.566650390625,331.74603271484375)"/>
<path d="M0 0 C114.51 0 229.02 0 347 0 C347 123.09 347 246.18 347 373 C340.07 374.98 340.07 374.98 333 377 C329.1554152 378.24640617 325.32487377 379.5096217 321.5 380.8125 C312.65793389 383.79336391 303.79208679 386.67990667 294.89331055 389.48657227 C289.0113553 391.34636708 283.15728828 393.27683603 277.3125 395.25 C258.6353874 401.50902583 258.6353874 401.50902583 251 401 C251.33 399.02 251.66 397.04 252 395 C252.63164062 394.79955078 253.26328125 394.59910156 253.9140625 394.39257812 C265.88568481 390.58891427 277.84061643 386.74475185 289.75 382.75 C296.64441273 380.43886101 303.54083117 378.1677381 310.50390625 376.0703125 C316.51714737 374.22938729 322.5012557 372.29554099 328.48876953 370.37280273 C329.40126465 370.08091064 330.31375977 369.78901855 331.25390625 369.48828125 C332.48089233 369.09443237 332.48089233 369.09443237 333.73266602 368.69262695 C335.80997658 368.0580485 337.88782838 367.50465674 340 367 C340.103125 367.639375 340.20625 368.27875 340.3125 368.9375 C340.6528125 369.9584375 340.6528125 369.9584375 341 371 C341.99 371.33 342.98 371.66 344 372 C343.67 371.01 343.34 370.02 343 369 C343.66 368.34 344.32 367.68 345 367 C345.30214361 364.28760867 345.30214361 364.28760867 345.24609566 361.05356407 C345.25007775 359.77814259 345.25405985 358.50272111 345.25816262 357.18865049 C345.25245578 355.75999275 345.24656457 354.33133574 345.24050903 352.90267944 C345.24138042 351.39540046 345.24313016 349.88812178 345.24568737 348.38084471 C345.25017807 344.22375054 345.24213369 340.06675863 345.23213124 335.90967751 C345.22352373 331.4325065 345.22641498 326.95534162 345.22793579 322.47816467 C345.22898636 314.71610514 345.22269186 306.95407914 345.21146011 299.19202805 C345.19523128 287.96930031 345.1899998 276.74658884 345.18748413 265.52385063 C345.18310291 247.31732352 345.16978224 229.11081428 345.15087891 210.90429688 C345.13253115 193.21451913 345.11839217 175.52474626 345.10986328 157.83496094 C345.10932729 156.73410833 345.10879129 155.63325572 345.10823905 154.49904394 C345.1040804 145.8901225 345.10016649 137.28120095 345.09632993 128.67227936 C345.07745006 86.44816983 345.03721643 44.22410504 345 2 C231.48 1.67 117.96 1.34 1 1 C1.33 123.76 1.66 246.52 2 373 C1.34 373 0.68 373 0 373 C0 249.91 0 126.82 0 0 Z " fill="#D58B17" transform="translate(77,43)"/>
<path d="M0 0 C3.77494925 2.3863072 5.97718698 4.87119901 8.0625 8.875 C8.475 9.65875 8.8875 10.4425 9.3125 11.25 C10.85324899 16.64262147 10.72162559 21.02723052 8.375 26.0625 C5.11639192 31.91422578 0.52813431 36.23760075 -5.8125 38.5625 C-11.31919306 39.3723078 -15.76005916 38.89546472 -20.9375 36.875 C-20.9375 36.215 -20.9375 35.555 -20.9375 34.875 C-21.68 34.66875 -22.4225 34.4625 -23.1875 34.25 C-27.47030473 32.10859763 -29.01745434 28.62308675 -31.1875 24.5 C-32.9860824 18.20496159 -32.3410614 14.01933932 -29.5625 8.1875 C-23.31026127 -2.35491659 -10.90900524 -5.50815347 0 0 Z " fill="#ED8A12" transform="translate(260.9375,158.125)"/>
<path d="M0 0 C4.0822283 2.71144315 7.22137606 6.68057983 8.7578125 11.35546875 C9.9370514 18.08482116 9.78828955 24.51023762 6.1171875 30.40625 C-0.44033675 36.49974088 -5.2282518 38.75034294 -14.16796875 38.609375 C-19.90931569 38.1798066 -22.87407398 35.61348651 -26.6328125 31.53125 C-31.01882232 26.18670823 -32.48570525 21.9713146 -32.3203125 15.03515625 C-31.39136077 9.45315167 -28.19358222 5.22962573 -23.80859375 1.76953125 C-15.88724724 -3.34054256 -8.54369299 -4.13881321 0 0 Z " fill="#ED8A13" transform="translate(152.8828125,170.59375)"/>
<path d="M0 0 C6.39242704 3.50457715 9.39872 6.69615999 11.75 13.75 C12.39620573 20.53516021 11.46622416 26.25869168 7.203125 31.73828125 C2.26379653 37.01636897 -1.97197994 38.77911099 -9.1875 39.0625 C-13.89071912 38.9842316 -17.10281483 37.91374879 -21.25 35.75 C-21.25 35.09 -21.25 34.43 -21.25 33.75 C-22.17039062 33.36134766 -22.17039062 33.36134766 -23.109375 32.96484375 C-26.79001644 30.87601257 -28.00930307 27.68841745 -29.25 23.75 C-30.06182274 17.44276178 -29.85858987 12.16288481 -26.25 6.75 C-25.71375 5.88375 -25.1775 5.0175 -24.625 4.125 C-17.60369678 -2.89630322 -8.80150537 -4.16235174 0 0 Z " fill="#EC8A14" transform="translate(367.25,170.25)"/>
<path d="M0 0 C126.06 0 252.12 0 382 0 C382 132.99 382 265.98 382 403 C370 407 370 407 367 406 C370 403 370 403 381 402 C381 269.67 381 137.34 381 1 C255.6 1 130.2 1 1 1 C1 133.33 1 265.66 1 402 C0.67 402 0.34 402 0 402 C0 269.34 0 136.68 0 0 Z " fill="#FBF1C7" transform="translate(59,26)"/>
<path d="M0 0 C1.9375 0.8125 1.9375 0.8125 4 2 C4.33 2.99 4.66 3.98 5 5 C5.66 5 6.32 5 7 5 C9.79825989 9.82925497 9.84127597 14.56175176 9 20 C6.87903134 24.77217949 3.88942131 27.96761208 -0.9375 30 C-7.68904198 31.9766872 -12.90162928 31.29312019 -19 28 C-19.33 27.01 -19.66 26.02 -20 25 C-15.38 24.67 -10.76 24.34 -6 24 C-6 23.34 -6 22.68 -6 22 C-5.21625 21.38125 -4.4325 20.7625 -3.625 20.125 C-1.00789266 18.0063893 -0.18522501 17.04772146 1 14 C1.27751792 11.54525777 1.27751792 11.54525777 1.1875 9 C1.18105469 8.154375 1.17460937 7.30875 1.16796875 6.4375 C1.01154076 4.16747523 0.63089814 2.18038396 0 0 Z " fill="#F0AC15" transform="translate(366,175)"/>
<path d="M0 0 C3.80489745 1.49478114 5.66190835 3.69442214 8 7 C9.62932575 11.88797724 10.0698293 17.35579307 8.10546875 22.2109375 C7 24.125 7 24.125 5 27 C4.34 27 3.68 27 3 27 C3 27.66 3 28.32 3 29 C-2.33418968 30.81589436 -7.35866179 31.86002252 -13 31 C-18.46341463 28.07317073 -18.46341463 28.07317073 -20 25 C-19.34773437 25.03480469 -18.69546875 25.06960937 -18.0234375 25.10546875 C-12.45972652 25.27779608 -8.89576543 24.93745926 -4 22 C-3.34 22 -2.68 22 -2 22 C-1.67 20.68 -1.34 19.36 -1 18 C-0.34 18 0.32 18 1 18 C1.223293 15.93906592 1.42802887 13.8761161 1.625 11.8125 C1.74101562 10.66394531 1.85703125 9.51539063 1.9765625 8.33203125 C2.00023426 4.96669584 1.47419799 2.98778294 0 0 Z " fill="#EFAD16" transform="translate(149,174)"/>
<path d="M0 0 C1.13514994 0.71326267 2.25777135 1.446481 3.375 2.1875 C4.31472656 2.79658203 4.31472656 2.79658203 5.2734375 3.41796875 C8.16150557 6.06427547 8.8779082 8.89641701 9.30078125 12.71875 C9.34078837 22.21377318 9.34078837 22.21377318 6 26 C3.04730526 28.89479876 0.26350736 31.61240842 -4 32 C-5.6396875 32.1546875 -5.6396875 32.1546875 -7.3125 32.3125 C-11.93458734 31.92079768 -14.15230342 30.51278144 -18 28 C-17.67 27.34 -17.34 26.68 -17 26 C-16.195625 26.103125 -15.39125 26.20625 -14.5625 26.3125 C-8.9770866 25.82255146 -4.23629585 23.20641217 -0.24609375 19.26953125 C1.50352898 16.0829143 1.32592156 13.54757031 1.25 9.9375 C1.23453125 8.70902344 1.2190625 7.48054687 1.203125 6.21484375 C1.13654067 2.98332765 1.13654067 2.98332765 0 0 Z " fill="#F0AC16" transform="translate(257,161)"/>
<path d="M0 0 C12.65925909 12.65925909 13.88564321 50.22864726 17.11816406 67.17895508 C18.60641785 74.98056893 20.13155684 82.77410148 21.6875 90.5625 C21.88988281 91.57884521 22.09226563 92.59519043 22.30078125 93.64233398 C22.49414062 94.60727783 22.6875 95.57222168 22.88671875 96.56640625 C23.07024902 97.48437988 23.2537793 98.40235352 23.44287109 99.34814453 C24.12619591 102.60067483 24.91362747 105.82406733 25.74145508 109.04272461 C26.03738669 111.28303032 25.67310073 112.85929449 25 115 C21.69456843 102.03145573 18.60824012 89.02842991 15.67236328 75.97167969 C14.46682645 70.64350457 13.23155013 65.32220997 12 60 C11.49210235 57.79689463 10.98428916 55.59376978 10.4765625 53.390625 C9.54168963 49.33666521 8.59874801 45.28474116 7.6484375 41.234375 C5.44825388 31.79562884 3.42897718 22.3475961 1.6875 12.8125 C1.51589355 11.8730957 1.34428711 10.93369141 1.16748047 9.96582031 C0 3.3991992 0 3.3991992 0 0 Z " fill="#CA8510" transform="translate(149,211)"/>
<path d="M0 0 C0.495 1.485 0.495 1.485 1 3 C0.566875 3.391875 0.13375 3.78375 -0.3125 4.1875 C-2.09257943 5.95949083 -2.09257943 5.95949083 -3.2890625 8.26953125 C-5.24864139 11.39680441 -7.51449222 13.83100767 -10.0625 16.5 C-14.96466473 21.72341715 -19.36434251 27.20052735 -23.671875 32.91796875 C-26.33566672 36.44436416 -29.09114062 39.88684697 -31.86328125 43.328125 C-33.98504186 45.98129548 -36.08084533 48.65321328 -38.17285156 51.32983398 C-42.33752873 56.65751195 -46.52815845 61.92385554 -51 67 C-51.99 66.67 -52.98 66.34 -54 66 C-54.268125 66.53625 -54.53625 67.0725 -54.8125 67.625 C-55.204375 68.40875 -55.59625 69.1925 -56 70 C-56.45375 71.03125 -56.9075 72.0625 -57.375 73.125 C-59.04732628 76.08373111 -59.85879539 76.916826 -63 78 C-63.66 77.34 -64.32 76.68 -65 76 C-63.91332031 74.83984375 -63.91332031 74.83984375 -62.8046875 73.65625 C-57.92613058 68.41085259 -53.18010421 63.25403938 -49.12109375 57.328125 C-48.75113281 56.88984375 -48.38117188 56.4515625 -48 56 C-47.34 56 -46.68 56 -46 56 C-45.71125 55.401875 -45.4225 54.80375 -45.125 54.1875 C-44 52 -44 52 -42 49 C-41.34 49 -40.68 49 -40 49 C-40 48.01 -40 47.02 -40 46 C-37.875 43.6875 -37.875 43.6875 -35 41 C-30.67732481 37.08220243 -30.67732481 37.08220243 -28 32 C-27.34 32 -26.68 32 -26 32 C-26 31.34 -26 30.68 -26 30 C-25.34 30 -24.68 30 -24 30 C-23.73316406 29.41347656 -23.46632813 28.82695312 -23.19140625 28.22265625 C-21.97631623 25.95581619 -20.66848194 24.33216818 -18.9375 22.4375 C-16.013264 19.17210313 -13.20315766 15.83851145 -10.4375 12.4375 C-7.0194238 8.2351392 -3.54760452 4.09338983 0 0 Z " fill="#E7A726" transform="translate(344,205)"/>
<path d="M0 0 C1.92237358 -0.00067657 3.84474707 -0.00164951 5.76712036 -0.00289917 C9.74498327 -0.00435459 13.72282338 -0.00228897 17.70068359 0.00244141 C22.78190825 0.00819242 27.86308068 0.00481246 32.94430351 -0.00113106 C36.89234815 -0.00474906 40.84038043 -0.00359331 44.78842545 -0.00100327 C46.66300589 -0.00034025 48.53758749 -0.00114036 50.4121666 -0.00348282 C53.0233432 -0.00603586 55.63443514 -0.00213398 58.24560547 0.00341797 C59.00514526 0.00139374 59.76468506 -0.00063049 60.54724121 -0.00271606 C65.40562545 0.01632069 70.07157319 0.44882666 74.8828125 1.1328125 C74.8828125 1.4628125 74.8828125 1.7928125 74.8828125 2.1328125 C65.66864575 2.97911182 56.54320021 3.27998441 47.29296875 3.265625 C45.91127496 3.26664298 44.52958138 3.26798378 43.14788818 3.2696228 C39.49670923 3.27228936 35.84557367 3.26791486 32.19440079 3.26138306 C29.9370028 3.25779931 27.67961118 3.25619149 25.42221069 3.25512695 C2.56492846 3.24171737 -20.27422131 2.99750144 -43.1171875 2.1328125 C-43.1171875 1.8028125 -43.1171875 1.4728125 -43.1171875 1.1328125 C-28.73526516 0.36702714 -14.4012088 -0.01831605 0 0 Z " fill="#F2A818" transform="translate(245.1171875,333.8671875)"/>
<path d="M0 0 C-5.06684469 1.65746522 -10.13483431 3.31136722 -15.20385742 4.9621582 C-16.9235677 5.52273386 -18.64297633 6.08423586 -20.36206055 6.64672852 C-37.92169218 12.39101045 -37.92169218 12.39101045 -45.5847168 14.26831055 C-48.19918959 15.06034279 -50.63760927 16.13118679 -53.13633728 17.22807312 C-56.22679267 18.50813607 -59.41925695 19.45543569 -62.62109375 20.41015625 C-63.32468521 20.62312851 -64.02827667 20.83610077 -64.75318909 21.05552673 C-66.2307976 21.50190268 -67.70899255 21.94634159 -69.18774414 22.38891602 C-71.4293019 23.06004546 -73.66886805 23.73751109 -75.90820312 24.41601562 C-77.35405379 24.85193706 -78.80001382 25.28749594 -80.24609375 25.72265625 C-80.9046788 25.92166031 -81.56326385 26.12066437 -82.24180603 26.32569885 C-86.80006307 27.68693631 -91.37983059 28.87279289 -96 30 C-95.505 28.515 -95.505 28.515 -95 27 C-90.9083139 25.19204568 -87.44280672 24.78843778 -83 25 C-83 24.34 -83 23.68 -83 23 C-82.2265625 22.81824219 -81.453125 22.63648438 -80.65625 22.44921875 C-73.52999264 20.73573386 -73.52999264 20.73573386 -66.625 18.3125 C-63.11260445 17.04077058 -60.69175251 16.72311856 -57 17 C-57 16.34 -57 15.68 -57 15 C-50.74827614 12.13035626 -45.90352555 10.48862774 -39 11 C-39 10.34 -39 9.68 -39 9 C-36.73000175 8.49622232 -34.45896997 7.99709981 -32.1875 7.5 C-30.92292969 7.2215625 -29.65835938 6.943125 -28.35546875 6.65625 C-25 6 -25 6 -22 6 C-22 5.34 -22 4.68 -22 4 C-19.03 3.505 -19.03 3.505 -16 3 C-16 2.34 -16 1.68 -16 1 C-14.0852312 0.63571223 -12.16807707 0.28394694 -10.25 -0.0625 C-9.18265625 -0.25972656 -8.1153125 -0.45695312 -7.015625 -0.66015625 C-4.18808504 -0.97880389 -2.66529729 -0.76690158 0 0 Z " fill="#F3D79C" transform="translate(425,434)"/>
<path d="M0 0 C0 3.32788376 -0.35727099 3.85511161 -2.2734375 6.40625 C-2.76368408 7.06230225 -3.25393066 7.71835449 -3.7590332 8.39428711 C-4.29230225 9.08917236 -4.82557129 9.78405762 -5.375 10.5 C-5.91793701 11.21615479 -6.46087402 11.93230957 -7.02026367 12.67016602 C-11.02540988 17.88885105 -15.26656105 22.75473074 -19.765625 27.5546875 C-22.4488649 30.49124025 -24.82868365 33.59496229 -27.23046875 36.76171875 C-29.88047198 40.11370959 -32.77963743 43.22477467 -35.6640625 46.375 C-38.87686652 49.98537509 -41.87067414 53.75793048 -44.859375 57.5546875 C-47.04703405 60.05372868 -49.34994593 62.00782649 -52 64 C-50.65599121 61.08603777 -49.12544359 58.76229002 -47.05859375 56.3125 C-46.18980591 55.27343506 -46.18980591 55.27343506 -45.3034668 54.21337891 C-44.68769775 53.48296387 -44.07192871 52.75254883 -43.4375 52 C-38.46041855 46.03359431 -33.68077678 39.99825682 -29.0625 33.75 C-23.61590124 26.48786833 -17.69409432 19.59812268 -11.8125 12.6875 C-11.08196411 11.82535889 -11.08196411 11.82535889 -10.33666992 10.94580078 C-7.05452182 7.11301635 -3.60554735 3.53076563 0 0 Z " fill="#C8830E" transform="translate(343,211)"/>
<path d="M0 0 C1.50850901 3.95229361 0.54201411 7.46377217 -0.375 11.4375 C-0.54926514 12.20682861 -0.72353027 12.97615723 -0.90307617 13.76879883 C-3.60415554 25.13396618 -7.31399064 36.22872678 -10.84960938 47.35449219 C-12.62936098 52.99440112 -14.34830389 58.65238473 -16.0625 64.3125 C-16.3613208 65.29694092 -16.6601416 66.28138184 -16.96801758 67.2956543 C-17.64614007 69.53019657 -18.32350747 71.76496384 -19 74 C-20.04120353 70.78764886 -19.92910055 68.73838178 -19.09130859 65.48535156 C-18.8671225 64.59632141 -18.6429364 63.70729126 -18.41195679 62.7913208 C-18.15999542 61.83409119 -17.90803406 60.87686157 -17.6484375 59.890625 C-17.39252838 58.89101746 -17.13661926 57.89140991 -16.87295532 56.86151123 C-16.32748896 54.7387144 -15.77742414 52.61709471 -15.22314453 50.49658203 C-14.38970397 47.30628479 -13.57051811 44.11260981 -12.75390625 40.91796875 C-5.32287477 12.03249345 -5.32287477 12.03249345 0 0 Z " fill="#C8830F" transform="translate(246,202)"/>
<path d="M0 0 C0.33 0.66 0.66 1.32 1 2 C0.16855469 3.12148437 0.16855469 3.12148437 -0.6796875 4.265625 C-1.40414062 5.25046875 -2.12859375 6.2353125 -2.875 7.25 C-3.59429687 8.22453125 -4.31359375 9.1990625 -5.0546875 10.203125 C-6.60982225 12.43902154 -7.88204223 14.52872493 -9 17 C-9.33 16.34 -9.66 15.68 -10 15 C-11.46726798 18.81489674 -10.43336419 21.29011622 -9 25 C-8.67 25 -8.34 25 -8 25 C-8 26.65 -8 28.3 -8 30 C-7.01 30 -6.02 30 -5 30 C-4.67 30.99 -4.34 31.98 -4 33 C-0.49705129 34.71567661 -0.49705129 34.71567661 3 36 C2.67 36.99 2.34 37.98 2 39 C0.68 38.67 -0.64 38.34 -2 38 C-2 37.34 -2 36.68 -2 36 C-2.7425 35.79375 -3.485 35.5875 -4.25 35.375 C-8.53280473 33.23359763 -10.07995434 29.74808675 -12.25 25.625 C-14.08457371 19.20399202 -13.38079464 15.13658928 -10.4375 9.25 C-7.60171316 4.37028087 -5.16719142 2.1702204 0 0 Z " fill="#E88E1D" transform="translate(242,157)"/>
<path d="M0 0 C6.52892102 -0.25111235 6.52892102 -0.25111235 8.890625 1.0078125 C11.58243611 2.27396069 13.543563 2.12995327 16.5 2 C20.29077615 1.83337248 22.77557721 1.88946872 26 4 C26.33 4.66 26.66 5.32 27 6 C30.63 6 34.26 6 38 6 C29.40712557 10.29643721 24.50994579 9.09891087 15.49804688 6.15625 C13.79745117 5.58390625 13.79745117 5.58390625 12.0625 5 C10.90169922 4.6184375 9.74089844 4.236875 8.54492188 3.84375 C5.69344115 2.90499091 2.84544741 1.95685923 0 1 C0 0.67 0 0.34 0 0 Z " fill="#F1D591" transform="translate(222,480)"/>
<path d="M0 0 C-1.375 2 -1.375 2 -3 4 C-3.66 4 -4.32 4 -5 4 C-5 4.66 -5 5.32 -5 6 C-5.94875 6.2475 -6.8975 6.495 -7.875 6.75 C-11.02646849 7.65612479 -11.02646849 7.65612479 -12.125 9.78125 C-13.03811188 12.09664084 -13.62334911 14.31340998 -14.125 16.75 C-14.29257812 17.54921875 -14.46015625 18.3484375 -14.6328125 19.171875 C-14.75398438 19.77515625 -14.87515625 20.3784375 -15 21 C-15.66 20.67 -16.32 20.34 -17 20 C-17.34518199 14.36202751 -16.63930407 10.88760013 -14 6 C-13.01 5.67 -12.02 5.34 -11 5 C-10.30062468 3.68352881 -9.63270867 2.34977849 -9 1 C-6.04335481 -0.4783226 -3.25770263 -0.06032783 0 0 Z " fill="#C76F0C" transform="translate(358,173)"/>
<path d="M0 0 C-1.3902242 3.414333 -2.69943308 4.67456263 -5.9375 6.375 C-11.76541704 9.82116432 -13.06195053 14.7386094 -15 21 C-15.33 21 -15.66 21 -16 21 C-16.377045 14.84159835 -16.04381607 10.43538584 -13 5 C-11.0625 3.1875 -11.0625 3.1875 -9 2 C-8.0409375 1.4121875 -8.0409375 1.4121875 -7.0625 0.8125 C-4.59757465 -0.1585312 -2.62628053 -0.14590447 0 0 Z " fill="#C66F0C" transform="translate(140,171)"/>
<path d="M0 0 C0 0.33 0 0.66 0 1 C-2.97 1.66 -5.94 2.32 -9 3 C-8.67 3.66 -8.34 4.32 -8 5 C-8.886875 5.391875 -9.77375 5.78375 -10.6875 6.1875 C-14.15286101 8.08364093 -16.33107495 10.11467562 -19 13 C-19.53882813 13.40863281 -20.07765625 13.81726563 -20.6328125 14.23828125 C-22.73667428 16.94925742 -22.2873687 19.32525369 -22.1875 22.6875 C-22.16042969 23.86699219 -22.13335937 25.04648438 -22.10546875 26.26171875 C-22.07066406 27.16535156 -22.03585937 28.06898438 -22 29 C-24.97974941 24.53037588 -24.48883653 20.24183175 -24 15 C-22.75 11.625 -22.75 11.625 -21 9 C-20.46375 8.13375 -19.9275 7.2675 -19.375 6.375 C-13.85821282 0.85821282 -7.58306899 -0.55149593 0 0 Z " fill="#E98E1F" transform="translate(362,168)"/>
<path d="M0 0 C0.33 0 0.66 0 1 0 C1 16.17 1 32.34 1 49 C1.99 49 2.98 49 4 49 C4 49.66 4 50.32 4 51 C7.3 51.66 10.6 52.32 14 53 C14 53.66 14 54.32 14 55 C14.66 55.33 15.32 55.66 16 56 C10.32045457 55.25269139 5.68783835 53.7063515 0 52 C0 34.84 0 17.68 0 0 Z " fill="#ECC87B" transform="translate(60,377)"/>
<path d="M0 0 C1.670625 0.061875 1.670625 0.061875 3.375 0.125 C1.13761488 3.25733916 -0.95184727 5.42207224 -4.1875 7.4375 C-8.38434171 10.2474026 -9.25357405 13.36534524 -10.625 18.125 C-10.955 18.125 -11.285 18.125 -11.625 18.125 C-12.19307841 12.82293486 -12.01005303 10.07036154 -8.75 5.75 C-4.12528281 0.14225113 -4.12528281 0.14225113 0 0 Z " fill="#C26C0C" transform="translate(245.625,159.875)"/>
<path d="M0 0 C2.31 0 4.62 0 7 0 C4.34176326 1.38833098 1.73097005 2.50242207 -1.1171875 3.4375 C-1.88933594 3.69273437 -2.66148437 3.94796875 -3.45703125 4.2109375 C-4.65392578 4.60152344 -4.65392578 4.60152344 -5.875 5 C-6.66519531 5.26039063 -7.45539063 5.52078125 -8.26953125 5.7890625 C-9.81128028 6.29699313 -11.35390103 6.80228685 -12.89746094 7.3046875 C-14.71416719 7.90547471 -16.51860566 8.54312485 -18.3203125 9.1875 C-21 10 -21 10 -25 10 C-25 9.01 -25 8.02 -25 7 C-18.565 6.505 -18.565 6.505 -12 6 C-12 5.34 -12 4.68 -12 4 C-7.8794254 2.00214565 -4.54805635 1.82164485 0 2 C0 1.34 0 0.68 0 0 Z " fill="#F3E0AC" transform="translate(322,464)"/>
<path d="M0 0 C1.98 0.66 3.96 1.32 6 2 C5.67 2.99 5.34 3.98 5 5 C9.47941799 6.95821551 13.76754763 7.7090194 18.57421875 8.4375 C21 9 21 9 23 11 C15.65325503 11.3529575 10.13742967 11.58322431 4.30859375 6.53515625 C2.79605415 5.09982284 1.38941723 3.55482404 0 2 C0 1.34 0 0.68 0 0 Z " fill="#E98E1D" transform="translate(124,198)"/>
<path d="M0 0 C5.07473936 2.27488316 7.29612338 4.79601948 9.4375 10.015625 C10.39348608 13.38813144 10.18341395 16.51513501 10 20 C9.67 20 9.34 20 9 20 C8.67 17.36 8.34 14.72 8 12 C7.01 12 6.02 12 5 12 C4.67 10.68 4.34 9.36 4 8 C3.34 8 2.68 8 2 8 C1.34 5.36 0.68 2.72 0 0 Z " fill="#E98E15" transform="translate(369,172)"/>
<path d="M0 0 C10.00946364 0.46126561 20.53149855 2.43907034 29 8 C25.25065467 9.384434 22.86596318 8.58310003 19.140625 7.34765625 C18.02558594 6.98349609 16.91054687 6.61933594 15.76171875 6.24414062 C14.02341797 5.65922852 14.02341797 5.65922852 12.25 5.0625 C11.07566406 4.67642578 9.90132812 4.29035156 8.69140625 3.89257812 C5.79108344 2.93759379 2.89428475 1.97310033 0 1 C0 0.67 0 0.34 0 0 Z " fill="#EFD797" transform="translate(135,452)"/>
<path d="M0 0 C0.66 0.33 1.32 0.66 2 1 C-1.57644848 2.2380014 -4.33694766 1.74926071 -8 1 C-8.061875 1.78375 -8.12375 2.5675 -8.1875 3.375 C-8.455625 4.24125 -8.72375 5.1075 -9 6 C-11.5625 7.3125 -11.5625 7.3125 -14 8 C-12.35 6.02 -10.7 4.04 -9 2 C-9.60328125 2.20496094 -10.2065625 2.40992188 -10.828125 2.62109375 C-12.02695313 3.02521484 -12.02695313 3.02521484 -13.25 3.4375 C-14.03890625 3.70433594 -14.8278125 3.97117188 -15.640625 4.24609375 C-17.74821988 4.91954708 -19.84753973 5.49150595 -22 6 C-16.17990167 -0.75131406 -8.39174928 -2.79724976 0 0 Z " fill="#E48F23" transform="translate(149,169)"/>
<path d="M0 0 C-3.76741573 1.31356822 -7.53933031 2.61317715 -11.31591797 3.90014648 C-12.59945067 4.33971026 -13.88170057 4.78303881 -15.16259766 5.23022461 C-17.00600426 5.87305724 -18.85452238 6.5011722 -20.703125 7.12890625 C-22.36843262 7.70233765 -22.36843262 7.70233765 -24.06738281 8.28735352 C-27 9 -27 9 -31 8 C-28.03 7.34 -25.06 6.68 -22 6 C-22 5.34 -22 4.68 -22 4 C-20.02 3.67 -18.04 3.34 -16 3 C-16 2.34 -16 1.68 -16 1 C-14.0852312 0.63571223 -12.16807707 0.28394694 -10.25 -0.0625 C-9.18265625 -0.25972656 -8.1153125 -0.45695312 -7.015625 -0.66015625 C-4.18808504 -0.97880389 -2.66529729 -0.76690158 0 0 Z " fill="#F5E0AE" transform="translate(425,434)"/>
<path d="M0 0 C5.26703397 -0.18162186 9.03353 0.07422592 14 2 C14.77085938 2.22945313 15.54171875 2.45890625 16.3359375 2.6953125 C17.56183594 3.06269531 17.56183594 3.06269531 18.8125 3.4375 C19.58207031 3.66308594 20.35164063 3.88867188 21.14453125 4.12109375 C22.06298828 4.55615234 22.06298828 4.55615234 23 5 C23.33 5.99 23.66 6.98 24 8 C15.73781407 6.40554307 7.93711014 3.73981931 0 1 C0 0.67 0 0.34 0 0 Z " fill="#F2DCA7" transform="translate(110,444)"/>
<path d="M0 0 C-2.16255617 2.16255617 -3.3475075 2.60028063 -6.2109375 3.5078125 C-7.04367187 3.77207031 -7.87640625 4.03632813 -8.734375 4.30859375 C-9.60578125 4.57800781 -10.4771875 4.84742188 -11.375 5.125 C-12.23867188 5.40214844 -13.10234375 5.67929687 -13.9921875 5.96484375 C-17.91855869 7.19486435 -20.82941335 8 -25 8 C-25 7.34 -25 6.68 -25 6 C-24.071875 5.7525 -23.14375 5.505 -22.1875 5.25 C-18.87015853 4.32141355 -15.70954274 3.12340145 -12.5 1.875 C-8.05454532 0.21945136 -4.70815047 -0.41850226 0 0 Z " fill="#F2DDA6" transform="translate(297,474)"/>
<path d="M0 0 C3.3 0 6.6 0 10 0 C10 0.66 10 1.32 10 2 C11.051875 1.87625 11.051875 1.87625 12.125 1.75 C15.92949327 2.0808255 17.98077266 3.75313314 21 6 C17.63945043 7.12018319 16.98276729 6.90181274 13.76953125 5.78515625 C12.96708984 5.51123047 12.16464844 5.23730469 11.33789062 4.95507812 C10.50451172 4.66052734 9.67113281 4.36597656 8.8125 4.0625 C7.96751953 3.77181641 7.12253906 3.48113281 6.25195312 3.18164062 C4.16504771 2.46242463 2.08140006 1.7349657 0 1 C0 0.67 0 0.34 0 0 Z " fill="#F2DBA5" transform="translate(188,469)"/>
<path d="M0 0 C-1.24735567 0.6509259 -2.49801832 1.29551669 -3.75 1.9375 C-4.44609375 2.29714844 -5.1421875 2.65679687 -5.859375 3.02734375 C-8 4 -8 4 -12 5 C-12.66 7.97 -13.32 10.94 -14 14 C-14.66 14 -15.32 14 -16 14 C-15.34 9.71 -14.68 5.42 -14 1 C-2.25 -1.125 -2.25 -1.125 0 0 Z " fill="#FABD50" transform="translate(368,208)"/>
<path d="M0 0 C3.24884246 3.24884246 4.13082654 6.4884332 4.25 11 C4.17355186 14.36371832 3.52008244 16.95983512 2 20 C1.67 20 1.34 20 1 20 C0.202163 13.30386804 -0.12910853 6.74233419 0 0 Z " fill="#EA9122" transform="translate(267,165)"/>
<path d="M0 0 C1.45330393 2.70735844 2.40501429 5.19058744 3.0703125 8.1875 C3.24433594 8.96867187 3.41835937 9.74984375 3.59765625 10.5546875 C3.77167969 11.36164063 3.94570312 12.16859375 4.125 13 C4.30675781 13.80695313 4.48851562 14.61390625 4.67578125 15.4453125 C5.4830791 19.12367715 6 22.19554474 6 26 C5.01 25.67 4.02 25.34 3 25 C3.66 25 4.32 25 5 25 C4.54625 24.2575 4.0925 23.515 3.625 22.75 C0.20840368 15.93299976 -0.34191674 7.52216819 0 0 Z " fill="#FAC050" transform="translate(165,306)"/>
<path d="M0 0 C-3.76771849 2.4599738 -7.38941245 3.93655933 -11.6875 5.25 C-12.82574219 5.60578125 -13.96398437 5.9615625 -15.13671875 6.328125 C-18 7 -18 7 -20 6 C-19 4 -19 4 -16.3125 2.875 C-13.0420565 2.01110926 -10.36293818 1.83986009 -7 2 C-7 1.34 -7 0.68 -7 0 C-2.25 -1.125 -2.25 -1.125 0 0 Z " fill="#F0D697" transform="translate(349,457)"/>
<path d="M0 0 C1.32 0.33 2.64 0.66 4 1 C4 1.66 4 2.32 4 3 C7.3 3.66 10.6 4.32 14 5 C14 5.66 14 6.32 14 7 C14.66 7.33 15.32 7.66 16 8 C10.47293087 7.27275406 5.30039859 5.66554027 0 4 C0 2.68 0 1.36 0 0 Z " fill="#F2D9A1" transform="translate(60,425)"/>
<path d="M0 0 C2.31 0 4.62 0 7 0 C7 0.66 7 1.32 7 2 C7.84304687 2.13277344 8.68609375 2.26554687 9.5546875 2.40234375 C10.65039062 2.57894531 11.74609375 2.75554687 12.875 2.9375 C14.51082031 3.19853516 14.51082031 3.19853516 16.1796875 3.46484375 C19 4 19 4 21 5 C21 5.66 21 6.32 21 7 C13.78069368 5.55613874 6.94889267 3.42211826 0 1 C0 0.67 0 0.34 0 0 Z " fill="#F5DEA9" transform="translate(89,437)"/>
<path d="M0 0 C0.33 0 0.66 0 1 0 C1.61538462 7.26153846 1.61538462 7.26153846 -1.5 11 C-2.325 11.66 -3.15 12.32 -4 13 C-5.98 10.69 -7.96 8.38 -10 6 C-9.67 5.34 -9.34 4.68 -9 4 C-6.525 6.97 -6.525 6.97 -4 10 C-2.68 6.7 -1.36 3.4 0 0 Z " fill="#EAAC2A" transform="translate(221,272)"/>
<path d="M0 0 C0.33 0 0.66 0 1 0 C1 5.94 1 11.88 1 18 C-0.32 17.67 -1.64 17.34 -3 17 C-2.68853528 15.10399631 -2.37578283 13.20820413 -2.0625 11.3125 C-1.88847656 10.25675781 -1.71445312 9.20101563 -1.53515625 8.11328125 C-1.06832879 5.39750396 -0.55577384 2.69875765 0 0 Z " fill="#FAC151" transform="translate(333,315)"/>
<path d="M0 0 C7.73257209 -0.65040326 13.85768662 -0.12984414 20 5 C21.24609375 7.171875 21.24609375 7.171875 22 9 C19.03 8.505 19.03 8.505 16 8 C16 7.01 16 6.02 16 5 C10.62819824 2.37124595 5.95507399 1.3916035 0 1 C0 0.67 0 0.34 0 0 Z " fill="#E69021" transform="translate(245,156)"/>
<path d="M0 0 C0.33 0 0.66 0 1 0 C1.09375315 4.98975076 1.09676756 9.96080644 0.6875 14.9375 C0.62949219 15.64777344 0.57148438 16.35804688 0.51171875 17.08984375 C-0.11920614 19.44497557 -1.17125165 20.43600342 -3 22 C-2.37727768 14.5928819 -1.29512034 7.31805865 0 0 Z " fill="#F8C150" transform="translate(340,278)"/>
<path d="M0 0 C2.00277585 0.31622777 4.00189338 0.65549886 6 1 C6.84304687 1.1340625 7.68609375 1.268125 8.5546875 1.40625 C9.44414062 1.5609375 10.33359375 1.715625 11.25 1.875 C12.52617187 2.08769531 12.52617187 2.08769531 13.828125 2.3046875 C16 3 16 3 18 6 C13.68068613 5.38388165 9.74791225 4.35761422 5.625 2.9375 C4.56539062 2.57527344 3.50578125 2.21304687 2.4140625 1.83984375 C1.61742187 1.56269531 0.82078125 1.28554688 0 1 C0 0.67 0 0.34 0 0 Z " fill="#F5DFAE" transform="translate(170,463)"/>
<path d="M0 0 C0.66 0 1.32 0 2 0 C0.81819916 5.02265357 -0.44992282 8.0949151 -4 12 C-4.66 11.67 -5.32 11.34 -6 11 C-2.77645306 3.01788376 -2.77645306 3.01788376 0 0 Z " fill="#E49E13" transform="translate(290,271)"/>
<path d="M0 0 C0.66 0.66 1.32 1.32 2 2 C-0.75 7.875 -0.75 7.875 -3 9 C-3.46651207 11.12576782 -3.46651207 11.12576782 -3.625 13.5625 C-3.69976562 14.38878906 -3.77453125 15.21507812 -3.8515625 16.06640625 C-3.90054688 16.70449219 -3.94953125 17.34257812 -4 18 C-4.33 18 -4.66 18 -5 18 C-5.69328371 10.48172337 -4.67241975 5.97402239 0 0 Z " fill="#E8972D" transform="translate(126,175)"/>
<path d="M0 0 C1.2065625 0.0309375 1.2065625 0.0309375 2.4375 0.0625 C-2.47842206 3.33978137 -4.58798074 4.37694838 -10.5625 4.0625 C-13 3.5625 -13 3.5625 -14.5625 3.0625 C-14.5625 2.4025 -14.5625 1.7425 -14.5625 1.0625 C-13.78003906 1.07410156 -12.99757812 1.08570313 -12.19140625 1.09765625 C-11.17949219 1.10667969 -10.16757813 1.11570313 -9.125 1.125 C-7.61099609 1.14240234 -7.61099609 1.14240234 -6.06640625 1.16015625 C-3.08270118 1.0437871 -3.00665528 0.07333306 0 0 Z " fill="#E9920E" transform="translate(142.5625,195.9375)"/>
<path d="M0 0 C0.33 0 0.66 0 1 0 C1.22786458 2.01822917 1.45572917 4.03645833 1.68359375 6.0546875 C1.91292961 8.07404316 1.91292961 8.07404316 3 10 C2.34 10 1.68 10 1 10 C1 11.65 1 13.3 1 15 C-1 13 -1 13 -1.23046875 10.21484375 C-1.21628906 9.13332031 -1.20210938 8.05179688 -1.1875 6.9375 C-1.18105469 5.85339844 -1.17460938 4.76929688 -1.16796875 3.65234375 C-1 1 -1 1 0 0 Z " fill="#EA8A1D" transform="translate(123,183)"/>
<path d="M0 0 C1.60597325 0.45196245 3.20972508 0.91182327 4.8125 1.375 C6.15248047 1.75785156 6.15248047 1.75785156 7.51953125 2.1484375 C10 3 10 3 13 5 C6.6 6.23076923 6.6 6.23076923 3.5625 5.0625 C3.046875 4.711875 2.53125 4.36125 2 4 C2.33 3.67 2.66 3.34 3 3 C2.01 2.67 1.02 2.34 0 2 C0 1.34 0 0.68 0 0 Z " fill="#FAC057" transform="translate(104,424)"/>
<path d="M0 0 C0.66 0 1.32 0 2 0 C5.07708804 5.93438408 6.48736475 10.29873464 6 17 C5.67 17 5.34 17 5 17 C4.67 14.36 4.34 11.72 4 9 C3.34 9 2.68 9 2 9 C1.34 6.03 0.68 3.06 0 0 Z " fill="#EB992C" transform="translate(373,175)"/>
<path d="M0 0 C0.33 0.99 0.66 1.98 1 3 C-1.44172459 6.25563278 -4.04449934 9.20005201 -7 12 C-7.66 11.67 -8.32 11.34 -9 11 C-6.03 7.37 -3.06 3.74 0 0 Z " fill="#E49F1F" transform="translate(323,238)"/>
<path d="M0 0 C1.6045556 0.14148989 3.20863767 0.28835686 4.8125 0.4375 C5.70582031 0.51871094 6.59914062 0.59992188 7.51953125 0.68359375 C10 1 10 1 13 2 C13 2.66 13 3.32 13 4 C13.66 4.33 14.32 4.66 15 5 C9.88634986 3.9318153 4.92772031 2.76892524 0 1 C0 0.67 0 0.34 0 0 Z " fill="#F5E2B4" transform="translate(135,452)"/>
<path d="M0 0 C2.16099373 2.16099373 2.71563716 3.5210418 3.6875 6.375 C3.95949219 7.14585937 4.23148437 7.91671875 4.51171875 8.7109375 C5.04278009 11.20055308 4.81115526 12.61553018 4 15 C1.54510684 9.87674471 0.49658297 5.66104589 0 0 Z " fill="#E7A929" transform="translate(273,264)"/>
<path d="M0 0 C2.00293347 3.00440021 2.49271626 4.70993945 3.125 8.1875 C3.29257812 9.08855469 3.46015625 9.98960937 3.6328125 10.91796875 C3.75398438 11.60503906 3.87515625 12.29210937 4 13 C3.34 13 2.68 13 2 13 C2 11.35 2 9.7 2 8 C1.34 8 0.68 8 0 8 C-0.38063221 5.6739143 -0.71269945 3.33944736 -1 1 C-0.67 0.67 -0.34 0.34 0 0 Z " fill="#E7AA25" transform="translate(260,219)"/>
<path d="M0 0 C-3.07692746 2.6815279 -5.19734663 3.42087807 -9.25 3.6875 C-10.14203125 3.75324219 -11.0340625 3.81898438 -11.953125 3.88671875 C-12.62859375 3.92410156 -13.3040625 3.96148437 -14 4 C-11.58592302 2.39061535 -9.65955563 1.34509262 -7 0.3125 C-5.9790625 -0.09548828 -5.9790625 -0.09548828 -4.9375 -0.51171875 C-3 -1 -3 -1 0 0 Z " fill="#D08412" transform="translate(397,418)"/>
<path d="M0 0 C0.33 0 0.66 0 1 0 C1.99 4.29 2.98 8.58 4 13 C2.66666667 13 1.33333333 13 0 13 C0 8.71 0 4.42 0 0 Z " fill="#E2A01D" transform="translate(160,267)"/>
<path d="M0 0 C3.96 0.33 7.92 0.66 12 1 C12 1.99 12 2.98 12 4 C10.3733152 3.71788123 8.74867104 3.42397625 7.125 3.125 C5.76761719 2.88136719 5.76761719 2.88136719 4.3828125 2.6328125 C2 2 2 2 0 0 Z " fill="#F5DCA9" transform="translate(210,476)"/>
<path d="M0 0 C-1.24735567 0.6509259 -2.49801832 1.29551669 -3.75 1.9375 C-4.44609375 2.29714844 -5.1421875 2.65679687 -5.859375 3.02734375 C-8.58767585 4.2670279 -10.99801614 5 -14 5 C-14 4.34 -14 3.68 -14 3 C-12.04486839 2.303447 -10.08577524 1.61800435 -8.125 0.9375 C-7.03445313 0.55464844 -5.94390625 0.17179687 -4.8203125 -0.22265625 C-2 -1 -2 -1 0 0 Z " fill="#F6B94C" transform="translate(378,431)"/>
<path d="M0 0 C0.33 0.99 0.66 1.98 1 3 C-1.24844471 6.3310292 -3.68270834 8.74898066 -7 11 C-6.42676569 7.13066838 -4.61046448 4.84777943 -2 2 C-1.34 2 -0.68 2 0 2 C0 1.34 0 0.68 0 0 Z " fill="#F8C34F" transform="translate(329,220)"/>
<path d="M0 0 C2.4375 0.375 2.4375 0.375 5 1 C5.33 1.66 5.66 2.32 6 3 C7.64363134 3.72159424 9.31050386 4.39351421 11 5 C9.375 5.75 9.375 5.75 7 6 C1.4109589 2.82191781 1.4109589 2.82191781 0 0 Z " fill="#F4A419" transform="translate(129,199)"/>
<path d="M0 0 C0.33 0 0.66 0 1 0 C1.33 3.96 1.66 7.92 2 12 C1.01 12 0.02 12 -1 12 C-0.67 8.04 -0.34 4.08 0 0 Z " fill="#FABB52" transform="translate(162,185)"/>
<path d="M0 0 C-2.51699845 2.51699845 -4.57554146 3.10964078 -8 4 C-10.375 3.625 -10.375 3.625 -12 3 C-4.71428571 -0.42857143 -4.71428571 -0.42857143 0 0 Z " fill="#F4E1B1" transform="translate(272,482)"/>
<path d="M0 0 C5.02254631 -0.2954439 7.89542386 0.01485372 12 3 C8.52128379 4.15957207 7.65780355 3.77456651 4.3125 2.5625 C3.50425781 2.27503906 2.69601563 1.98757813 1.86328125 1.69140625 C1.24839844 1.46324219 0.63351563 1.23507812 0 1 C0 0.67 0 0.34 0 0 Z " fill="#F5DEAC" transform="translate(222,480)"/>
<path d="M0 0 C-1.24420647 0.5345256 -2.49570936 1.05208611 -3.75 1.5625 C-4.44609375 1.85253906 -5.1421875 2.14257812 -5.859375 2.44140625 C-8.30012784 3.07831803 -9.6403655 2.80248831 -12 2 C-8.6359265 -1.3640735 -4.38226377 -1.46075459 0 0 Z " fill="#F6E1B0" transform="translate(372,451)"/>
<path d="M0 0 C0.33 0 0.66 0 1 0 C1.22331199 1.58129029 1.42804644 3.16521089 1.625 4.75 C1.74101562 5.63171875 1.85703125 6.5134375 1.9765625 7.421875 C2.00207817 10.22859878 1.44843844 11.63384866 0 14 C-1.33257403 4.58997722 -1.33257403 4.58997722 0 0 Z " fill="#D08A10" transform="translate(165,276)"/>
<path d="M0 0 C0.66 0.33 1.32 0.66 2 1 C1.360625 1.226875 0.72125 1.45375 0.0625 1.6875 C-2.27193661 2.85250896 -2.27193661 2.85250896 -2.75 5.625 C-2.8325 6.40875 -2.915 7.1925 -3 8 C-3.66 7.34 -4.32 6.68 -5 6 C-5 4.68 -5 3.36 -5 2 C-2.625 0.9375 -2.625 0.9375 0 0 Z " fill="#FBBE52" transform="translate(259,194)"/>
<path d="M0 0 C5.445 1.485 5.445 1.485 11 3 C6.80104745 4.04973814 4.20594226 3.72795155 0 3 C0 2.01 0 1.02 0 0 Z " fill="#FABD52" transform="translate(235,466)"/>
<path d="M0 0 C1.62600941 0.0870005 3.25089678 0.1951781 4.875 0.3125 C5.77992187 0.37050781 6.68484375 0.42851562 7.6171875 0.48828125 C10 1 10 1 12 4 C10.5608866 3.71640113 9.12374482 3.42278601 7.6875 3.125 C6.88699219 2.96257812 6.08648437 2.80015625 5.26171875 2.6328125 C3 2 3 2 0 0 Z " fill="#F4E0B3" transform="translate(76,433)"/>
<path d="M0 0 C2.97 0 5.94 0 9 0 C9 0.33 9 0.66 9 1 C5.04 1.99 1.08 2.98 -3 4 C-3 3.34 -3 2.68 -3 2 C-2.01 2 -1.02 2 0 2 C0 1.34 0 0.68 0 0 Z " fill="#F6BC50" transform="translate(374,421)"/>
<path d="M0 0 C0.33 0.66 0.66 1.32 1 2 C-1.39509338 4.89932357 -3.31245243 5.50168276 -7 6 C-7 5.34 -7 4.68 -7 4 C-4.69 2.68 -2.38 1.36 0 0 Z " fill="#E48F21" transform="translate(242,157)"/>
<path d="M0 0 C0 0.66 0 1.32 0 2 C-1.65 2.33 -3.3 2.66 -5 3 C-5 3.66 -5 4.32 -5 5 C-6.65 4.67 -8.3 4.34 -10 4 C-7.25346796 1.25346796 -3.91404908 0 0 0 Z " fill="#F8BC50" transform="translate(300,455)"/>
<path d="M0 0 C4.05606165 0.46800711 7.46588679 0.87953208 11 3 C3.49230769 3.36923077 3.49230769 3.36923077 1 1.5 C0.67 1.005 0.34 0.51 0 0 Z " fill="#F9BF52" transform="translate(192,453)"/>
<path d="M0 0 C-1 1.5 -1 1.5 -3 3 C-5.71846235 3.27345479 -8.25677199 3.13491285 -11 3 C-3.71428571 -1.85714286 -3.71428571 -1.85714286 0 0 Z " fill="#F1B447" transform="translate(343,442)"/>
<path d="M0 0 C-0.33 0.99 -0.66 1.98 -1 3 C-3.64 3 -6.28 3 -9 3 C-4.5 0 -4.5 0 0 0 Z " fill="#F9BE52" transform="translate(352,439)"/>
<path d="M0 0 C0.33 0 0.66 0 1 0 C0.67 2.97 0.34 5.94 0 9 C-0.66 9 -1.32 9 -2 9 C-1.125 1.125 -1.125 1.125 0 0 Z " fill="#E7A021" transform="translate(247,205)"/>
<path d="M0 0 C0.598125 0.309375 1.19625 0.61875 1.8125 0.9375 C4.08956772 2.10209704 4.08956772 2.10209704 7 3 C6.67 3.99 6.34 4.98 6 6 C3.37812506 4.95125002 2.20628639 4.35068687 0.75 1.875 C0.5025 1.25625 0.255 0.6375 0 0 Z " fill="#E78E1D" transform="translate(340,198)"/>
<path d="M0 0 C0.33 0 0.66 0 1 0 C1.1875 3.375 1.1875 3.375 1 7 C0.01 7.66 -0.98 8.32 -2 9 C-1.125 2.25 -1.125 2.25 0 0 Z " fill="#E4871A" transform="translate(237,170)"/>
<path d="M0 0 C2.31 0 4.62 0 7 0 C5.75 1.5 5.75 1.5 4 3 C2.68 3 1.36 3 0 3 C0 2.01 0 1.02 0 0 Z " fill="#F4D89A" transform="translate(297,471)"/>
<path d="M0 0 C6.52307692 0.61538462 6.52307692 0.61538462 8.9375 2.5625 C9.288125 3.036875 9.63875 3.51125 10 4 C8.72125 3.71125 7.4425 3.4225 6.125 3.125 C5.40570313 2.96257812 4.68640625 2.80015625 3.9453125 2.6328125 C2 2 2 2 0 0 Z " fill="#CD800E" transform="translate(80,415)"/>
<path d="M0 0 C0 0.66 0 1.32 0 2 C-4.455 2.495 -4.455 2.495 -9 3 C-6.01800145 0.01800145 -4.21244839 0 0 0 Z " fill="#E88F0E" transform="translate(360,197)"/>
<path d="M0 0 C0.66 0 1.32 0 2 0 C0.79618552 2.49361571 -0.45428722 4.68143083 -2 7 C-2.66 7 -3.32 7 -4 7 C-3.34 5.35 -2.68 3.7 -2 2 C-1.34 2 -0.68 2 0 2 C0 1.34 0 0.68 0 0 Z " fill="#E6901E" transform="translate(266,185)"/>
</svg>
