<?xml version="1.0" encoding="UTF-8"?>
<svg version="1.1" xmlns="http://www.w3.org/2000/svg" width="1080" height="1080">
<path d="M0 0 C1.85616483 0.89270146 3.69195238 1.82871345 5.5078125 2.80078125 C6.56202393 3.35902588 7.61623535 3.91727051 8.70239258 4.49243164 C9.83185303 5.0930542 10.96131348 5.69367676 12.125 6.3125 C26.19125728 13.71051599 40.50746002 20.47457358 55 27 C56.15209961 27.52416504 57.30419922 28.04833008 58.49121094 28.58837891 C79.83399054 38.26555833 101.66756744 46.40552891 123.75646973 54.20703125 C125.77728034 54.92128043 127.79658278 55.63959931 129.81542969 56.359375 C206.09454607 83.38723562 290.39432688 98.76702306 371.4309082 93.26831055 C373.28535759 93.1454143 375.14269756 93.06718364 377 93 C378.7297063 94.7297063 378.12878438 96.95667238 378.14064401 99.26323253 C378.13884735 100.40765694 378.13884735 100.40765694 378.13701439 101.57520103 C378.13966622 102.38206189 378.14231804 103.18892274 378.14505023 104.02023393 C378.15278896 106.75921807 378.15330415 109.49815772 378.15390015 112.2371521 C378.15791189 114.20692712 378.16234963 116.1767013 378.1671797 118.14647448 C378.17918547 123.58764653 378.18480302 129.02880969 378.18936086 134.4699924 C378.1953027 140.32876595 378.20691692 146.18752881 378.21765137 152.04629517 C378.24105854 165.54828436 378.25559586 179.05027687 378.26788078 192.55228014 C378.27274205 197.89489979 378.27806815 203.23751889 378.28349637 208.58013799 C378.30804715 232.79281881 378.32911565 257.00550067 378.34119225 281.21819115 C378.34411346 286.9870949 378.34708098 292.75599864 378.35009766 298.52490234 C378.35046857 299.24160314 378.35083947 299.95830394 378.35122162 300.69672294 C378.36334878 323.87922539 378.39424059 347.06165142 378.43601918 370.24411805 C378.47892073 394.09347482 378.50544836 417.94279129 378.51066696 441.79218767 C378.51140729 445.16996704 378.51231795 448.54774636 378.51332474 451.92552567 C378.51351535 452.59023728 378.51370597 453.25494889 378.51390236 453.93980327 C378.51718427 463.9303811 378.53450327 473.9208698 378.55921555 483.91141891 C378.58734891 495.303922 378.59815785 506.69628026 378.58702008 518.08881538 C378.58186578 523.89264667 378.58450755 529.69617537 378.60948563 535.49996185 C378.79401269 580.86976719 378.79401269 580.86976719 373 603 C372.72684487 604.05427146 372.45368974 605.10854291 372.17225718 606.19476199 C361.27872507 647.63789677 342.7325021 686.7211315 317 721 C316.57025879 721.5784668 316.14051758 722.15693359 315.69775391 722.75292969 C309.46840766 731.11771018 302.85530236 739.14428868 296 747 C295.23042969 747.88300781 294.46085938 748.76601563 293.66796875 749.67578125 C287.13639926 756.96708096 280.22166039 763.8823499 273.3125 770.8125 C272.81504272 771.31263611 272.31758545 771.81277222 271.80505371 772.32806396 C266.05190876 778.10466889 260.23854717 783.74558467 254 789 C253.37182373 789.53488037 252.74364746 790.06976074 252.09643555 790.62084961 C237.45198421 803.02200609 222.16611146 814.64575438 206 825 C205.33629395 825.42958008 204.67258789 825.85916016 203.98876953 826.30175781 C151.11171549 860.49082134 93.52732028 884.95124181 33.5 903.4375 C32.68328827 903.68911896 31.86657654 903.94073792 31.02511597 904.19998169 C26.40870071 905.61714717 21.78578568 907.00951105 17.15185547 908.36834717 C15.7344152 908.78442073 14.31803701 909.2041324 12.90283203 909.62774658 C-0.44279028 913.60036165 -9.71301323 913.54278242 -23.125 909.8125 C-24.07424347 909.5528244 -24.07424347 909.5528244 -25.04266357 909.28790283 C-68.76196035 897.30571665 -112.46345618 881.92019541 -152.8203125 861.1328125 C-156.0006409 859.49493555 -159.20833973 857.92281937 -162.4296875 856.3671875 C-199.05785869 838.57791714 -233.18071334 815.58677129 -264 789 C-264.73992187 788.36191406 -265.47984375 787.72382812 -266.2421875 787.06640625 C-268.1716225 785.38880513 -270.08626354 783.69546917 -272 782 C-273.02673828 781.11248047 -273.02673828 781.11248047 -274.07421875 780.20703125 C-280.00102025 775.0047284 -285.60304347 769.50325478 -291.1875 763.9375 C-292.32807861 762.80380981 -292.32807861 762.80380981 -293.49169922 761.6472168 C-298.19966605 756.92641472 -302.66586467 752.06450861 -307 747 C-307.85722656 746.02417969 -308.71445312 745.04835938 -309.59765625 744.04296875 C-353.95665087 692.65402253 -388.92002891 623.97266226 -388.48774719 554.94229126 C-388.49021614 552.9349971 -388.49444199 550.92770449 -388.50024194 548.92041719 C-388.51099098 543.47863982 -388.4972014 538.03717542 -388.47892153 532.59542871 C-388.4635655 526.69936771 -388.47159768 520.80332955 -388.47660828 514.90725708 C-388.48280247 503.39231443 -388.46792475 491.87749298 -388.44588266 480.36257358 C-388.42860155 471.01005537 -388.42018011 461.65756825 -388.41844749 452.30503464 C-388.41831766 451.63854163 -388.41818783 450.97204861 -388.41805406 450.28535885 C-388.41755407 447.57952178 -388.41711411 444.87368471 -388.41675197 442.16784763 C-388.41345816 417.57427355 -388.39118374 392.98075567 -388.35668945 368.38720703 C-388.32414541 345.17301215 -388.30293889 321.95884565 -388.29516602 298.74462891 C-388.29492297 298.02780212 -388.29467993 297.31097534 -388.29442953 296.57242653 C-388.29320744 292.96188306 -388.29200414 289.35133959 -388.29080774 285.74079611 C-388.29057147 285.02832114 -388.2903352 284.31584617 -388.29009177 283.58178105 C-388.28961759 282.14508685 -388.28914743 280.70839264 -388.2886813 279.27169843 C-388.28121798 256.42603801 -388.26544649 233.5803828 -388.24748212 210.73472846 C-388.24223467 204.04774934 -388.2372907 197.36077033 -388.2331202 190.67379045 C-388.22425442 176.62613797 -388.21248092 162.57849881 -388.19155417 148.53085847 C-388.18293348 142.72210919 -388.17586028 136.91336951 -388.17303848 131.10461426 C-388.17038446 125.79722026 -388.16313264 120.48985399 -388.15204801 115.18247108 C-388.148825 113.25381513 -388.14731092 111.32515547 -388.1475983 109.39649685 C-388.14772228 106.79308991 -388.14179946 104.18976844 -388.13422108 101.58637428 C-388.1357047 100.82228129 -388.13718832 100.05818829 -388.13871691 99.27094096 C-388.11416442 94.11416442 -388.11416442 94.11416442 -387 93 C-384.11655585 93.09694877 -381.25335048 93.25367391 -378.375 93.4375 C-294.65771579 97.96492606 -209.65777108 81.32561928 -34.0625 12.4375 C-33.05222748 11.94879929 -33.05222748 11.94879929 -32.02154541 11.45022583 C-30.08650618 10.5113655 -28.1540291 9.56747082 -26.22265625 8.62109375 C-25.61349365 8.32431229 -25.00433105 8.02753082 -24.37670898 7.72175598 C-21.31671951 6.21325717 -18.32965352 4.63661567 -15.38623047 2.91064453 C-14.24686035 2.2504834 -13.10749023 1.59032227 -11.93359375 0.91015625 C-10.93255615 0.30437744 -9.93151855 -0.30140137 -8.90014648 -0.92553711 C-5.10807795 -2.33044439 -3.62830294 -1.65580982 0 0 Z " fill="#4393FE" transform="translate(545,84)"/>
<path d="M0 0 C1.85616483 0.89270146 3.69195238 1.82871345 5.5078125 2.80078125 C6.56202393 3.35902588 7.61623535 3.91727051 8.70239258 4.49243164 C9.83185303 5.0930542 10.96131348 5.69367676 12.125 6.3125 C26.19125728 13.71051599 40.50746002 20.47457358 55 27 C56.15209961 27.52416504 57.30419922 28.04833008 58.49121094 28.58837891 C79.83399054 38.26555833 101.66756744 46.40552891 123.75646973 54.20703125 C125.77728034 54.92128043 127.79658278 55.63959931 129.81542969 56.359375 C206.09454607 83.38723562 290.39432688 98.76702306 371.4309082 93.26831055 C373.28535759 93.1454143 375.14269756 93.06718364 377 93 C378.7297063 94.7297063 378.12878438 96.95667238 378.14064401 99.26323253 C378.13884735 100.40765694 378.13884735 100.40765694 378.13701439 101.57520103 C378.13966622 102.38206189 378.14231804 103.18892274 378.14505023 104.02023393 C378.15278896 106.75921807 378.15330415 109.49815772 378.15390015 112.2371521 C378.15791189 114.20692712 378.16234963 116.1767013 378.1671797 118.14647448 C378.17918547 123.58764653 378.18480302 129.02880969 378.18936086 134.4699924 C378.1953027 140.32876595 378.20691692 146.18752881 378.21765137 152.04629517 C378.24105854 165.54828436 378.25559586 179.05027687 378.26788078 192.55228014 C378.27274205 197.89489979 378.27806815 203.23751889 378.28349637 208.58013799 C378.30804715 232.79281881 378.32911565 257.00550067 378.34119225 281.21819115 C378.34411346 286.9870949 378.34708098 292.75599864 378.35009766 298.52490234 C378.35046857 299.24160314 378.35083947 299.95830394 378.35122162 300.69672294 C378.36334878 323.87922539 378.39424059 347.06165142 378.43601918 370.24411805 C378.47892073 394.09347482 378.50544836 417.94279129 378.51066696 441.79218767 C378.51140729 445.16996704 378.51231795 448.54774636 378.51332474 451.92552567 C378.51351535 452.59023728 378.51370597 453.25494889 378.51390236 453.93980327 C378.51718427 463.9303811 378.53450327 473.9208698 378.55921555 483.91141891 C378.58734891 495.303922 378.59815785 506.69628026 378.58702008 518.08881538 C378.58186578 523.89264667 378.58450755 529.69617537 378.60948563 535.49996185 C378.79401269 580.86976719 378.79401269 580.86976719 373 603 C372.72684487 604.05427146 372.45368974 605.10854291 372.17225718 606.19476199 C361.27872507 647.63789677 342.7325021 686.7211315 317 721 C316.57025879 721.5784668 316.14051758 722.15693359 315.69775391 722.75292969 C309.46840766 731.11771018 302.85530236 739.14428868 296 747 C295.23042969 747.88300781 294.46085938 748.76601563 293.66796875 749.67578125 C287.13639926 756.96708096 280.22166039 763.8823499 273.3125 770.8125 C272.81504272 771.31263611 272.31758545 771.81277222 271.80505371 772.32806396 C266.05190876 778.10466889 260.23854717 783.74558467 254 789 C253.37182373 789.53488037 252.74364746 790.06976074 252.09643555 790.62084961 C237.45198421 803.02200609 222.16611146 814.64575438 206 825 C205.33629395 825.42958008 204.67258789 825.85916016 203.98876953 826.30175781 C151.11171549 860.49082134 93.52732028 884.95124181 33.5 903.4375 C32.68328827 903.68911896 31.86657654 903.94073792 31.02511597 904.19998169 C26.40870071 905.61714717 21.78578568 907.00951105 17.15185547 908.36834717 C15.7344152 908.78442073 14.31803701 909.2041324 12.90283203 909.62774658 C-0.44279028 913.60036165 -9.71301323 913.54278242 -23.125 909.8125 C-24.07424347 909.5528244 -24.07424347 909.5528244 -25.04266357 909.28790283 C-68.76196035 897.30571665 -112.46345618 881.92019541 -152.8203125 861.1328125 C-156.0006409 859.49493555 -159.20833973 857.92281937 -162.4296875 856.3671875 C-199.05785869 838.57791714 -233.18071334 815.58677129 -264 789 C-264.73992187 788.36191406 -265.47984375 787.72382812 -266.2421875 787.06640625 C-268.1716225 785.38880513 -270.08626354 783.69546917 -272 782 C-273.02673828 781.11248047 -273.02673828 781.11248047 -274.07421875 780.20703125 C-280.00102025 775.0047284 -285.60304347 769.50325478 -291.1875 763.9375 C-292.32807861 762.80380981 -292.32807861 762.80380981 -293.49169922 761.6472168 C-298.19966605 756.92641472 -302.66586467 752.06450861 -307 747 C-307.85722656 746.02417969 -308.71445312 745.04835938 -309.59765625 744.04296875 C-353.95665087 692.65402253 -388.92002891 623.97266226 -388.48774719 554.94229126 C-388.49021614 552.9349971 -388.49444199 550.92770449 -388.50024194 548.92041719 C-388.51099098 543.47863982 -388.4972014 538.03717542 -388.47892153 532.59542871 C-388.4635655 526.69936771 -388.47159768 520.80332955 -388.47660828 514.90725708 C-388.48280247 503.39231443 -388.46792475 491.87749298 -388.44588266 480.36257358 C-388.42860155 471.01005537 -388.42018011 461.65756825 -388.41844749 452.30503464 C-388.41831766 451.63854163 -388.41818783 450.97204861 -388.41805406 450.28535885 C-388.41755407 447.57952178 -388.41711411 444.87368471 -388.41675197 442.16784763 C-388.41345816 417.57427355 -388.39118374 392.98075567 -388.35668945 368.38720703 C-388.32414541 345.17301215 -388.30293889 321.95884565 -388.29516602 298.74462891 C-388.29492297 298.02780212 -388.29467993 297.31097534 -388.29442953 296.57242653 C-388.29320744 292.96188306 -388.29200414 289.35133959 -388.29080774 285.74079611 C-388.29057147 285.02832114 -388.2903352 284.31584617 -388.29009177 283.58178105 C-388.28961759 282.14508685 -388.28914743 280.70839264 -388.2886813 279.27169843 C-388.28121798 256.42603801 -388.26544649 233.5803828 -388.24748212 210.73472846 C-388.24223467 204.04774934 -388.2372907 197.36077033 -388.2331202 190.67379045 C-388.22425442 176.62613797 -388.21248092 162.57849881 -388.19155417 148.53085847 C-388.18293348 142.72210919 -388.17586028 136.91336951 -388.17303848 131.10461426 C-388.17038446 125.79722026 -388.16313264 120.48985399 -388.15204801 115.18247108 C-388.148825 113.25381513 -388.14731092 111.32515547 -388.1475983 109.39649685 C-388.14772228 106.79308991 -388.14179946 104.18976844 -388.13422108 101.58637428 C-388.1357047 100.82228129 -388.13718832 100.05818829 -388.13871691 99.27094096 C-388.11416442 94.11416442 -388.11416442 94.11416442 -387 93 C-384.11655585 93.09694877 -381.25335048 93.25367391 -378.375 93.4375 C-294.65771579 97.96492606 -209.65777108 81.32561928 -34.0625 12.4375 C-33.05222748 11.94879929 -33.05222748 11.94879929 -32.02154541 11.45022583 C-30.08650618 10.5113655 -28.1540291 9.56747082 -26.22265625 8.62109375 C-25.61349365 8.32431229 -25.00433105 8.02753082 -24.37670898 7.72175598 C-21.31671951 6.21325717 -18.32965352 4.63661567 -15.38623047 2.91064453 C-14.24686035 2.2504834 -13.10749023 1.59032227 -11.93359375 0.91015625 C-10.93255615 0.30437744 -9.93151855 -0.30140137 -8.90014648 -0.92553711 C-5.10807795 -2.33044439 -3.62830294 -1.65580982 0 0 Z M-10.98046875 65.9140625 C-12.20600464 66.54997314 -12.20600464 66.54997314 -13.45629883 67.19873047 C-14.35759521 67.66939941 -15.2588916 68.14006836 -16.1875 68.625 C-64.41937807 93.2118982 -116.57779751 111.94901554 -168.65625 126.34570312 C-170.89049435 126.96942967 -173.11761433 127.61362724 -175.34375 128.265625 C-199.48071949 135.27509149 -224.24729821 139.78766518 -249 144 C-249.67760376 144.11621704 -250.35520752 144.23243408 -251.05334473 144.35217285 C-272.25982605 147.981423 -293.41755255 150.20739464 -314.87841797 151.69042969 C-318.17549721 151.92638573 -321.46590974 152.21754818 -324.75759888 152.51934814 C-325.74134554 152.60936726 -326.7250922 152.69938637 -327.73864937 152.79213333 C-328.48489508 152.86072933 -329.23114079 152.92932533 -330 153 C-330.11462395 205.82515611 -330.20263937 258.65029957 -330.25532665 311.47555574 C-330.26157964 317.72222942 -330.26805131 323.96890286 -330.2746582 330.21557617 C-330.27596976 331.45909539 -330.27728131 332.7026146 -330.2786326 333.98381621 C-330.30034658 354.07786259 -330.33974589 374.17183691 -330.38576398 394.26584064 C-330.43264039 414.90789339 -330.46031897 435.54990859 -330.47044247 456.19201237 C-330.47727849 468.9134246 -330.49881272 481.63463313 -330.53958233 494.35598261 C-330.56615898 503.09782344 -330.57396747 511.83956007 -330.56750689 520.5814383 C-330.56432707 525.61341193 -330.5689508 530.64503143 -330.59602737 535.67694092 C-330.70207978 556.40164801 -330.38000003 575.83011466 -325 596 C-324.67265615 597.32557496 -324.34766668 598.65173537 -324.02589893 599.97867489 C-323.16857837 603.38611182 -322.12595535 606.67093696 -321 610 C-320.72236816 610.82161621 -320.44473633 611.64323242 -320.15869141 612.48974609 C-309.79981571 642.66282834 -294.68593501 669.96569985 -275 695 C-274.21882813 695.99515625 -273.43765625 696.9903125 -272.6328125 698.015625 C-267.4935773 704.41680764 -262.0011618 710.46576275 -256.41162109 716.47070312 C-254.9957722 718.00458024 -253.59907167 719.55388083 -252.20703125 721.109375 C-246.47770136 727.49446549 -240.50622972 733.39767484 -234 739 C-232.96438746 739.90963703 -231.92925618 740.81982218 -230.89453125 741.73046875 C-169.95682868 795.04313681 -94.71398516 828.10953806 -17.6875 850.75 C-16.88256104 850.99041016 -16.07762207 851.23082031 -15.24829102 851.47851562 C-7.68015614 853.61322368 -1.56803653 853.19577463 5.9375 850.8125 C6.58267578 850.61591797 7.22785156 850.41933594 7.89257812 850.21679688 C9.35139758 849.76993889 10.80835633 849.3169836 12.26391602 848.85961914 C14.35641467 848.20220076 16.45105868 847.55160719 18.54663086 846.90405273 C82.95386921 826.98126098 145.01719621 799.92458266 199 759 C199.59796387 758.5477002 200.19592773 758.09540039 200.81201172 757.62939453 C208.2346691 751.98577082 215.28957029 746.08818469 222.0859375 739.703125 C224.31136694 737.63878562 226.55950131 735.63932162 228.85546875 733.65625 C233.04197906 730.00814669 237.01412796 726.17815548 240.9375 722.25 C241.63697754 721.5497168 242.33645508 720.84943359 243.05712891 720.12792969 C247.64572129 715.48500291 251.90945819 710.75430091 255.94140625 705.6171875 C258.15698224 702.80042107 260.47945004 700.09504877 262.8125 697.375 C272.7489943 685.44812097 281.41910754 672.53753367 289 659 C289.4316748 658.23236328 289.86334961 657.46472656 290.30810547 656.67382812 C299.71537989 639.77613251 306.75238076 622.21892148 312.8125 603.875 C313.07836914 603.09068604 313.34423828 602.30637207 313.61816406 601.49829102 C314.51165652 598.68603755 315.25657231 595.85604019 316 593 C316.33522045 591.76282887 316.6704409 590.52565775 317.01581955 589.25099659 C321.39765862 571.17637374 320.54320759 552.60205032 320.46426249 534.13910925 C320.44681806 529.01264244 320.45284607 523.88619278 320.45587158 518.75970459 C320.45795831 509.90061255 320.44552069 501.0416393 320.42292023 492.18257713 C320.39026616 479.37423785 320.37997956 466.5659554 320.37496826 453.75757901 C320.36623653 432.97157293 320.33967881 412.18563003 320.30175781 391.3996582 C320.2649826 371.22062494 320.23669787 351.04160889 320.21972656 330.86254883 C320.21867567 329.61651487 320.21762477 328.37048092 320.21654204 327.08668836 C320.21132149 320.83504594 320.20626675 314.58340339 320.20129442 308.33176076 C320.15989853 256.55446355 320.08950824 204.77723487 320 153 C319.44809809 152.95432892 318.89619617 152.90865784 318.32756996 152.86160278 C312.49562587 152.37838147 306.66405691 151.89080247 300.83267212 151.40087891 C298.66678738 151.21946035 296.5008144 151.03909157 294.33474731 150.85986328 C270.89977246 148.91931429 247.72438037 146.23264432 224.6640625 141.52978516 C221.81220252 140.96265391 218.95477007 140.43685207 216.09375 139.91796875 C190.04389749 135.15483433 164.27916008 128.89822064 139 121 C138.30924377 120.78557251 137.61848755 120.57114502 136.90679932 120.35021973 C111.85442184 112.57062153 87.28922636 103.90978735 63 94 C61.79150391 93.50757813 60.58300781 93.01515625 59.33789062 92.5078125 C41.35230598 85.13015625 23.68594857 77.05367788 6.140625 68.6875 C5.43768311 68.35395508 4.73474121 68.02041016 4.01049805 67.67675781 C2.22420056 66.82692885 0.44196679 65.96857182 -1.33984375 65.109375 C-5.33130958 63.44479894 -7.31854636 63.97576837 -10.98046875 65.9140625 Z " fill="#337BDB" transform="translate(545,84)"/>
<path d="M0 0 C3.96632509 0.79326502 6.25965863 1.4496162 9.7265625 3.1953125 C10.65758789 3.65623291 11.58861328 4.11715332 12.54785156 4.59204102 C13.56331055 5.09791748 14.57876953 5.60379395 15.625 6.125 C62.52761185 29.02126609 112.44659252 47.96174622 163 61 C163.74638733 61.19251343 164.49277466 61.38502686 165.26177979 61.58337402 C188.36394721 67.51829467 211.50380456 72.86569308 235 77 C236.04333496 77.18755859 237.08666992 77.37511719 238.16162109 77.56835938 C255.10028803 80.5852446 272.14952102 82.47748934 289.25082779 84.28182983 C294.68500897 84.85559323 300.11643542 85.45220598 305.54711914 86.05810547 C306.3661396 86.14930161 307.18516006 86.24049774 308.02899933 86.3344574 C310.01935489 86.55610743 312.00968065 86.77802508 314 87 C314.09171004 137.65946627 314.162117 188.31892408 314.20426132 238.97845715 C314.20926368 244.96976909 314.21444102 250.96108088 314.21972656 256.95239258 C314.2207758 258.14507134 314.22182505 259.3377501 314.22290608 260.56657065 C314.24027469 279.83612219 314.27179271 299.10562563 314.30861118 318.37514871 C314.3461195 338.17195367 314.36825669 357.96873357 314.37635398 377.76557261 C314.3818213 389.96489442 314.39904056 402.16408021 314.43166587 414.36336011 C314.45293608 422.74777221 314.45917199 431.13211478 314.45400551 439.51655184 C314.45146304 444.34190196 314.45514469 449.16701568 314.4768219 453.99232292 C314.58788835 480.02036255 313.73016003 505.17135844 305 530 C304.71108887 530.8245166 304.42217773 531.6490332 304.12451172 532.49853516 C300.11919295 543.7620652 295.58151287 554.59212621 289.97363281 565.14990234 C289.02695006 566.94878949 288.11540846 568.76162139 287.2109375 570.58203125 C277.26340372 590.30813288 263.96662074 608.56519608 249.0234375 624.79296875 C247.25551137 626.72130517 245.56153954 628.68847978 243.875 630.6875 C235.6743158 640.09812121 226.57563194 648.99894616 217 657 C215.66388672 658.16982422 215.66388672 658.16982422 214.30078125 659.36328125 C188.82924708 681.55439057 159.79227715 699.28004522 130 715 C128.98808594 715.53995605 127.97617187 716.07991211 126.93359375 716.63623047 C37.65461679 764 37.65461679 764 0 764 C-0.23379658 737.85267457 -0.41003916 711.70550622 -0.51812172 685.55734539 C-0.56964467 673.41572273 -0.6398647 661.27475022 -0.75439453 649.13354492 C-0.85419332 638.54890224 -0.918612 627.96473049 -0.94088495 617.37963039 C-0.95390122 611.77669608 -0.98440088 606.17510878 -1.05730057 600.57260704 C-1.12543038 595.2936643 -1.14606626 590.01661672 -1.13107681 584.73727608 C-1.13381684 582.80511023 -1.1535629 580.87287779 -1.19205475 578.94109344 C-1.50234169 562.5583514 -1.50234169 562.5583514 4.79751587 555.595047 C6.51700249 554.04690869 8.25077043 552.51445117 10 551 C11.49226509 549.25766487 12.95561043 547.48969867 14.375 545.6875 C17.80786355 541.43872698 21.31225459 537.26458168 24.875 533.125 C28.78836618 528.57708419 32.69005274 524.02033529 36.5625 519.4375 C37.23708252 518.63916748 37.23708252 518.63916748 37.92529297 517.82470703 C38.83068442 516.7528666 39.73595817 515.68092674 40.64111328 514.60888672 C42.92546186 511.90427711 45.21289508 509.20227873 47.5 506.5 C48.41668126 505.41667901 49.33334793 504.33334568 50.25 503.25 C55.75 496.75 61.25 490.25 66.75 483.75 C67.20366943 483.21383057 67.65733887 482.67766113 68.12475586 482.12524414 C69.04217797 481.04104762 69.95965852 479.95690055 70.87719727 478.87280273 C73.15778544 476.17807689 75.43737815 473.48252188 77.71484375 470.78515625 C81.98585525 465.7289534 86.26732662 460.68289634 90.58422852 455.66577148 C94.61067571 450.98600755 98.60714224 446.2922906 102.5 441.5 C108.37403696 434.2712302 114.48058698 427.24297133 120.56152344 420.18847656 C125.58161498 414.36164087 130.59373649 408.53765352 135.4375 402.5625 C139.58060991 397.45692535 143.8823045 392.50199947 148.20288086 387.54711914 C151.36465838 383.91262149 154.46850206 380.24479157 157.5 376.5 C161.61893166 371.41190794 165.90147334 366.47996177 170.203125 361.546875 C173.36479231 357.91243501 176.46857472 354.24470182 179.5 350.5 C183.61532344 345.41636516 187.89351244 340.48819076 192.19213867 335.56005859 C196.20302635 330.95045188 200.0945373 326.26687557 203.91796875 321.5 C206.6684611 318.19734502 209.63723419 315.1203349 212.6640625 312.0703125 C214.22961714 310.06483149 214.22961714 310.06483149 213.9609375 307.53125 C212.79183869 304.45167265 211.28383392 302.74606369 209 300.375 C205.70916864 296.86581964 202.57392466 293.31470292 199.5625 289.5625 C196.48663412 285.75912497 193.31246834 282.09917348 190 278.5 C185.88621091 274.0301488 182.02912703 269.40955107 178.21484375 264.68359375 C176.04367173 262.05291443 173.79758643 259.52057576 171.5 257 C168.40444804 253.60401318 165.44848793 250.13828469 162.5625 246.5625 C158.70174863 241.788597 154.62562925 237.26611572 150.46875 232.75 C147.27118704 229.18815771 144.28611657 225.47434167 141.28125 221.75 C138.15040109 217.97582598 134.82473547 214.39572209 131.50390625 210.7890625 C128.10518671 207.0032813 124.9075747 203.07864278 121.71484375 199.1171875 C120.17273924 197.13793226 120.17273924 197.13793226 119 196 C117.45688956 195.89201408 115.9088876 195.85316742 114.36204529 195.84178162 C113.3614807 195.83200759 112.36091612 195.82223356 111.33003139 195.81216335 C110.21879437 195.8063931 109.10755735 195.80062284 107.96264648 195.79467773 C106.78297585 195.78464501 105.60330523 195.77461229 104.387887 195.76427555 C100.54897625 195.73275908 96.71005522 195.7080654 92.87109375 195.68359375 C90.50915174 195.66520243 88.14721315 195.64636643 85.78527832 195.6270752 C77.00272607 195.55848259 68.22010811 195.49852281 59.4375 195.4375 C39.823125 195.293125 20.20875 195.14875 0 195 C0 130.65 0 66.3 0 0 Z " fill="#347CDD" transform="translate(540,161)"/>
<path d="M0 0 C75.24 0 150.48 0 228 0 C226.57061865 4.28814406 225.16483519 7.93960256 223.19921875 11.9453125 C222.64121582 13.08959717 222.08321289 14.23388184 221.50830078 15.4128418 C221.21215881 16.01639496 220.91601685 16.61994812 220.61090088 17.24179077 C219.01374636 20.49907177 217.43041405 23.76304832 215.84765625 27.02734375 C215.52307434 27.69653336 215.19849243 28.36572296 214.86407471 29.05519104 C211.71302728 35.56632211 208.65763488 42.12043418 205.625 48.6875 C200.81309863 59.10367728 195.9552805 69.49662671 191.0625 79.875 C186.02002688 90.57333358 180.99453624 101.27920064 176 112 C170.66656056 123.44825695 165.29543619 134.8783957 159.91110229 146.30279541 C154.9062868 156.9241576 149.94467697 167.56437646 145.01464844 178.22070312 C141.93597383 184.86365967 138.8288758 191.49216487 135.6953125 198.109375 C135.32226486 198.89744537 134.94921722 199.68551575 134.56486511 200.49746704 C132.74183037 204.34733122 130.91609479 208.19588114 129.08618164 212.04248047 C124.22227042 222.288943 119.56381449 232.61654094 115 243 C114.34 243 113.68 243 113 243 C105.4819927 227.05967279 97.96426256 211.11972222 90.5625 195.125 C85.23307015 183.61122313 79.82341909 172.13669252 74.39675903 160.66851807 C69.20090128 149.68617083 64.05427422 138.68297659 58.953125 127.65625 C54.51697773 118.08119945 50.0136477 108.53870314 45.5 99 C39.91718868 87.20141047 34.37650497 75.38531898 28.89379883 63.53979492 C23.56868906 52.04509752 18.1730986 40.58383245 12.77198792 29.12469482 C12.14430334 27.79258431 11.51704932 26.46027082 10.89024353 25.12774658 C9.18460069 21.50355679 7.46858472 17.8846515 5.74072266 14.27099609 C5.36969925 13.49161179 4.99867584 12.71222748 4.6164093 11.90922546 C3.89849331 10.40139715 3.17756942 8.8949964 2.45329285 7.39021301 C0 2.22527466 0 2.22527466 0 0 Z " fill="#FEFEFF" transform="translate(426,471)"/>
<path d="M0 0 C1.10754639 0.52142578 2.21509277 1.04285156 3.35620117 1.58007812 C5.14054565 2.42795898 5.14054565 2.42795898 6.9609375 3.29296875 C9.51007803 4.49049188 12.061681 5.68272851 14.61328125 6.875 C15.26180557 7.17850372 15.9103299 7.48200745 16.57850647 7.79470825 C47.15115542 22.09146801 78.39776126 34.57294944 110.3359375 45.48046875 C111.43583008 45.85623047 112.53572266 46.23199219 113.66894531 46.61914062 C152.60241171 59.79100231 192.5758585 69.60756577 233.16918945 75.96704102 C236.06603261 76.43670883 238.94798759 76.95413814 241.83203125 77.49609375 C260.5203471 80.94010763 279.47914192 82.6828081 298.41015625 84.109375 C300.16258273 84.24417235 301.91498362 84.37930268 303.6673584 84.51477051 C307.88993467 84.84048863 312.11282582 85.16177094 316.3359375 85.48046875 C316.45056069 138.43301902 316.53857648 191.38555668 316.59126415 244.33820676 C316.59751715 250.59990172 316.60398881 256.86159643 316.6105957 263.12329102 C316.61190726 264.36980084 316.61321881 265.61631067 316.6145701 266.90059353 C316.63628426 287.04313875 316.67568367 307.18561211 316.72170148 327.3281148 C316.76857738 348.0198881 316.79625637 368.71162395 316.80637997 389.40344816 C316.81321609 402.15556964 316.8347509 414.90748792 316.87551983 427.6595468 C316.90209586 436.42241236 316.90990511 445.18517397 316.90344439 453.94807684 C316.90026447 458.99220173 316.90488943 464.03597335 316.93196487 469.08003426 C317.06581211 495.31733391 315.69507935 519.35882489 306.5859375 544.29296875 C306.15547119 545.50307617 305.72500488 546.71318359 305.28149414 547.95996094 C301.50392617 558.39621067 297.23567808 568.52470656 292.3359375 578.48046875 C291.99272461 579.18993652 291.64951172 579.8994043 291.29589844 580.63037109 C273.91580236 616.25544954 245.80944379 650.154119 215.3359375 675.48046875 C214.44777344 676.23457031 213.55960938 676.98867188 212.64453125 677.765625 C163.564291 719.16707929 106.03379903 747.7666201 45.84082031 769.22998047 C42.62446805 770.37752549 39.41347938 771.53893635 36.203125 772.703125 C26.17644768 776.30429748 16.07962334 779.55007411 5.8359375 782.48046875 C4.26815552 782.93534668 4.26815552 782.93534668 2.66870117 783.39941406 C-6.8020016 786.03261444 -13.53631106 785.56085988 -22.8515625 782.73046875 C-23.87475586 782.42463867 -24.89794922 782.11880859 -25.95214844 781.80371094 C-77.36509535 766.21261804 -127.74865207 746.69089692 -173.6640625 718.48046875 C-174.43733887 718.00609375 -175.21061523 717.53171875 -176.00732422 717.04296875 C-186.51046017 710.57042439 -196.77399855 703.85867617 -206.6640625 696.48046875 C-207.20724121 696.07618652 -207.75041992 695.6719043 -208.31005859 695.25537109 C-220.08092696 686.45077552 -231.19452425 676.95382157 -241.96484375 666.95703125 C-244.15757853 664.94517329 -246.38327939 663.01474286 -248.6640625 661.10546875 C-254.47629355 656.04978843 -259.54732668 650.22322218 -264.6640625 644.48046875 C-265.16486328 643.91908203 -265.66566406 643.35769531 -266.18164062 642.77929688 C-294.94619164 610.3394838 -318.88674758 570.56005105 -328.7890625 528.04296875 C-329.16611328 526.4796582 -329.16611328 526.4796582 -329.55078125 524.88476562 C-330.29235167 521.7534748 -331.01741171 518.63305709 -331.6640625 515.48046875 C-331.82866844 514.70283007 -331.99327438 513.9251914 -332.16286838 513.12398791 C-333.88225294 504.12171077 -333.93894034 495.28754903 -333.90457153 486.16851807 C-333.90544501 484.43399421 -333.9071986 482.69947062 -333.90974987 480.96494842 C-333.91419949 476.22616852 -333.90625269 471.48747987 -333.89619374 466.74871159 C-333.887527 461.62822039 -333.89048168 456.50773402 -333.89199829 451.38723755 C-333.89304511 442.52475015 -333.88678978 433.66229229 -333.87552261 424.79981232 C-333.85924298 411.98628305 -333.85405709 399.17276802 -333.85154663 386.35922953 C-333.84717339 365.56825431 -333.83387437 344.77729481 -333.81494141 323.98632812 C-333.796573 303.79427163 -333.78242119 283.60221942 -333.77392578 263.41015625 C-333.77313761 261.54203905 -333.77313761 261.54203905 -333.77233352 259.6361821 C-333.76972337 253.38808796 -333.76719597 247.13999378 -333.76470971 240.89189959 C-333.74398877 189.08807844 -333.70877336 137.28427436 -333.6640625 85.48046875 C-329.01537853 85.0688674 -324.36665994 84.65765992 -319.71791077 84.24679565 C-318.14101756 84.1073739 -316.56413338 83.96785007 -314.98725891 83.82821655 C-298.96052798 82.40916819 -298.96052798 82.40916819 -291.27189636 81.78952026 C-248.4093903 78.15463751 -204.46519955 69.20809109 -163.47021484 56.35498047 C-160.31676658 55.37223715 -157.15681677 54.41220703 -153.99609375 53.453125 C-112.24623338 40.73068595 -70.73323692 25.83004297 -31.51953125 6.515625 C-30.85190765 6.1877449 -30.18428406 5.85986481 -29.49642944 5.52204895 C-26.28187648 3.93967321 -23.07793601 2.34007164 -19.88769531 0.70922852 C-18.18178223 -0.14264038 -18.18178223 -0.14264038 -16.44140625 -1.01171875 C-14.94468384 -1.77524658 -14.94468384 -1.77524658 -13.41772461 -2.55419922 C-8.34154109 -4.33372131 -4.65282743 -2.20953555 0 0 Z M-14.53515625 10.796875 C-15.56624512 11.30621582 -16.59733398 11.81555664 -17.65966797 12.34033203 C-18.79549316 12.90220215 -19.93131836 13.46407227 -21.1015625 14.04296875 C-46.9669297 26.69056491 -73.59043192 37.69961254 -100.6640625 47.48046875 C-101.42583801 47.75630798 -102.18761353 48.03214722 -102.97247314 48.31634521 C-122.61586259 55.42102372 -142.2317885 62.44184083 -162.47680664 67.65649414 C-164.94258923 68.2939523 -167.40440893 68.94234637 -169.86499023 69.59936523 C-200.15022148 77.6714032 -230.59398994 84.61718341 -261.61315918 89.17834473 C-263.62847132 89.47522572 -265.64289197 89.77762002 -267.65722656 90.08105469 C-271.46969685 90.64866575 -275.28444085 91.19509602 -279.1015625 91.73046875 C-280.67611206 91.95742432 -280.67611206 91.95742432 -282.2824707 92.18896484 C-291.05386358 93.35427036 -299.84613609 93.94229203 -308.67211914 94.53417969 C-310.03221821 94.62647823 -311.39230792 94.71891486 -312.752388 94.81149292 C-316.0561902 95.03583958 -319.36008027 95.25879178 -322.6640625 95.48046875 C-322.75577188 146.26732915 -322.82617916 197.05418113 -322.86832382 247.84110817 C-322.87332618 253.84744139 -322.87850352 259.85377445 -322.88378906 265.86010742 C-322.8848383 267.0557768 -322.88588755 268.25144618 -322.88696858 269.48334796 C-322.90433735 288.80139839 -322.93585545 308.11940083 -322.97267368 327.43742286 C-323.01018156 347.28394838 -323.0323191 367.1304489 -323.04041648 386.9770084 C-323.04588389 399.20703953 -323.06310365 411.43693498 -323.09572837 423.66692431 C-323.11699803 432.07236115 -323.12323461 440.47772864 -323.11806801 448.88319039 C-323.11552545 453.72069186 -323.11920817 458.55795755 -323.1408844 463.39541626 C-323.25177573 489.44895252 -322.4055154 514.62753698 -313.6640625 539.48046875 C-313.38046875 540.2890332 -313.096875 541.09759766 -312.8046875 541.93066406 C-298.61072384 581.79104295 -276.06898694 616.17882489 -246.6640625 646.48046875 C-245.97199707 647.19444824 -245.27993164 647.90842773 -244.56689453 648.64404297 C-237.10406862 656.30743755 -229.67627999 663.86441532 -221.23828125 670.4609375 C-218.46814998 672.63416643 -215.82701873 674.92747074 -213.1640625 677.23046875 C-205.82688467 683.35905828 -197.92319038 688.62659145 -189.97998047 693.93164062 C-187.85905366 695.35006353 -185.74644048 696.77983142 -183.63671875 698.21484375 C-135.13155774 731.09671379 -79.80828699 754.23201102 -23.6640625 770.48046875 C-22.69645996 770.77179687 -21.72885742 771.063125 -20.73193359 771.36328125 C-19.78527832 771.63914062 -18.83862305 771.915 -17.86328125 772.19921875 C-16.61357544 772.56950195 -16.61357544 772.56950195 -15.33862305 772.94726562 C-9.08898919 774.19319902 -3.79334283 773.21947206 2.1875 771.3203125 C3.29202011 770.98192604 3.29202011 770.98192604 4.41885376 770.63670349 C5.96181559 770.16225219 7.50338734 769.68325809 9.0435791 769.19989014 C11.23164634 768.51319892 13.42316257 767.83904344 15.61621094 767.16845703 C38.67477923 760.08202669 61.09673891 751.81239035 83.3359375 742.48046875 C84.2527832 742.09971191 85.16962891 741.71895508 86.11425781 741.32666016 C108.1974007 732.10779524 129.95879057 721.00754224 150.3359375 708.48046875 C151.2115332 707.94599121 152.08712891 707.41151367 152.98925781 706.86083984 C164.99030587 699.50028099 176.4302574 691.70506983 187.45898438 682.95605469 C189.2391991 681.55652063 191.03831144 680.1883759 192.8515625 678.83203125 C199.46038692 673.87927098 205.63155489 668.62819493 211.6484375 662.984375 C213.77511517 661.00297909 215.92711181 659.10231863 218.1484375 657.23046875 C227.59377742 649.0102566 236.51716725 639.96289462 244.25 630.1171875 C245.66003538 628.33483941 247.11518496 626.58741367 248.609375 624.875 C260.79816905 610.89141588 270.72582946 594.87671122 279.3359375 578.48046875 C279.85728271 577.49336914 279.85728271 577.49336914 280.38916016 576.48632812 C285.34586904 567.03410575 289.50428911 557.43854396 293.3359375 547.48046875 C293.64966309 546.74111084 293.96338867 546.00175293 294.28662109 545.23999023 C297.02507883 538.7183942 298.85059423 532.17313906 300.4609375 525.29296875 C300.83798828 523.7605957 300.83798828 523.7605957 301.22265625 522.19726562 C304.54716354 508.22911327 305.63296095 494.73963356 305.57644653 480.45314026 C305.57732079 478.78614882 305.5790758 477.11915765 305.58162487 475.45216793 C305.58605921 470.91399111 305.57814916 466.37591017 305.56806874 461.83774555 C305.55937956 456.92794308 305.56235825 452.01814541 305.56387329 447.1083374 C305.5649187 438.615863 305.55867816 430.12341947 305.54739761 421.63095284 C305.53109879 409.35248603 305.52593013 397.07403406 305.52342163 384.79555761 C305.51905139 364.87142774 305.50576053 344.94731431 305.48681641 325.02319336 C305.46844022 305.67618898 305.45429223 286.32918908 305.44580078 266.98217773 C305.44527533 265.78833336 305.44474989 264.59448899 305.44420852 263.36446751 C305.44159832 257.37491448 305.43907093 251.38536142 305.43658471 245.39580834 C305.41587311 195.75735045 305.3806659 146.11891041 305.3359375 96.48046875 C302.51321933 96.16544835 299.6904596 95.85080817 296.86767578 95.53637695 C296.08044632 95.44848152 295.29321686 95.36058609 294.48213196 95.27002716 C289.2660315 94.68937261 284.04812229 94.13046287 278.828125 93.5859375 C247.34305915 90.26886641 216.5396401 85.36539026 185.73223877 78.04943848 C184.11809498 77.6661816 182.50362617 77.28429131 180.88885498 76.90368652 C157.04157366 71.28282261 133.58495106 64.87024942 110.33215332 57.14324951 C108.38628448 56.49718488 106.43893875 55.85576732 104.49121094 55.21533203 C68.64378263 43.37111621 33.63937949 28.71332717 -0.2277832 12.03515625 C-1.18386475 11.5659375 -2.13994629 11.09671875 -3.125 10.61328125 C-3.95821777 10.19965332 -4.79143555 9.78602539 -5.64990234 9.35986328 C-9.31416281 7.76002495 -11.10346136 9.08025777 -14.53515625 10.796875 Z " fill="#FCFDFE" transform="translate(548.6640625,151.51953125)"/>
<path d="M0 0 C3.0185695 1.37146959 5.2998923 2.96248713 7.765625 5.171875 C8.46236328 5.79513672 9.15910156 6.41839844 9.87695312 7.06054688 C13.19700456 10.09349175 16.4823631 13.16072314 19.75 16.25 C25.49082101 21.65489 31.26513105 27.01719522 37.0859375 32.3359375 C44.95570627 39.53055184 52.77332786 46.7807787 60.5625 54.0625 C66.02748136 59.17108466 71.52199152 64.24500697 77.04296875 69.29296875 C80.18333248 72.1649074 83.31124549 75.05021867 86.4375 77.9375 C87.23921631 78.67734131 87.23921631 78.67734131 88.05712891 79.43212891 C90.88758324 82.04505208 93.71386529 84.66234028 96.53515625 87.28515625 C97.11531494 87.82342041 97.69547363 88.36168457 98.29321289 88.91625977 C99.39657435 89.94007693 100.49871171 90.96521558 101.59936523 91.99194336 C103.95880554 94.17921135 106.32647494 96.25195349 108.875 98.21875 C109.57625 98.8065625 110.2775 99.394375 111 100 C111 100.66 111 101.32 111 102 C38.07 102 -34.86 102 -110 102 C-108.35 100.35 -106.7 98.7 -105 97 C-104.13761719 96.12601562 -103.27523438 95.25203125 -102.38671875 94.3515625 C-101.05060547 93.00191406 -101.05060547 93.00191406 -99.6875 91.625 C-98.36298828 90.28308594 -98.36298828 90.28308594 -97.01171875 88.9140625 C-94.14269975 86.07930336 -91.11085887 83.45245655 -88.0637207 80.81201172 C-84.71599899 77.87260671 -81.48693555 74.81025131 -78.25 71.75 C-72.51185663 66.34763096 -66.74064591 60.98740086 -60.921875 55.671875 C-57.79356015 52.81122345 -54.6763228 49.9389025 -51.5625 47.0625 C-51.02214111 46.56339111 -50.48178223 46.06428223 -49.92504883 45.55004883 C-48.83035108 44.53879388 -47.73570604 43.52748188 -46.64111328 42.51611328 C-43.92822414 40.00985896 -41.21405141 37.50499554 -38.5 35 C-37.41666043 34.00000676 -36.33332709 33.00000676 -35.25 32 C-33.08333333 30 -30.91666667 28 -28.75 26 C-28.21318604 25.50443604 -27.67637207 25.00887207 -27.12329102 24.49829102 C-26.04582918 23.50379812 -24.96819397 22.50949303 -23.89038086 21.51538086 C-21.09072274 18.93267823 -18.29464445 16.34624707 -15.50390625 13.75390625 C-14.92769531 13.21958984 -14.35148438 12.68527344 -13.7578125 12.13476562 C-12.66683197 11.12296916 -11.57690189 10.11003824 -10.48828125 9.09570312 C-7.08483376 5.94225114 -3.58593912 2.94463853 0 0 Z " fill="#FEFEFF" transform="translate(539,364)"/>
<path d="M0 0 C29.04 0 58.08 0 88 0 C107.15642458 40.44134078 107.15642458 40.44134078 115.6640625 58.828125 C119.54639888 67.19697899 123.49222997 75.53567562 127.4375 83.875 C132.67444781 94.94514141 137.89248851 106.02342894 143.0625 117.125 C148.01627785 127.76204245 152.99862783 138.38525135 158 149 C163.58666686 160.85744946 169.15347822 172.72379397 174.67797852 184.61035156 C177.52905361 190.74002681 180.40239085 196.85798203 183.31723022 202.9576416 C184.82641908 206.11608232 186.33026379 209.27705737 187.83422852 212.43798828 C188.56636394 213.97224861 189.30136583 215.50514455 190.03930664 217.03662109 C191.06317288 219.16176728 192.07743715 221.2912514 193.08984375 223.421875 C193.55583229 224.37897369 193.55583229 224.37897369 194.03123474 225.35540771 C194.74834088 226.87637609 195.38290258 228.43578237 196 230 C195.67 230.66 195.34 231.32 195 232 C187.38627566 223.24845358 179.81656078 214.46414264 172.34277344 205.59277344 C170.06578561 202.89185188 167.78254206 200.19622756 165.5 197.5 C164.58330416 196.41669135 163.66663747 195.33335804 162.75 194.25 C162.29625 193.71375 161.8425 193.1775 161.375 192.625 C36.25 44.75 36.25 44.75 34.87524414 43.12524414 C33.95782203 42.04104762 33.04034148 40.95690055 32.12280273 39.87280273 C29.84221456 37.17807689 27.56262185 34.48252188 25.28515625 31.78515625 C19.93250563 25.44820945 14.55619481 19.13255454 9.14672852 12.84399414 C8.2160776 11.76103454 7.28721687 10.67653336 6.36035156 9.59033203 C5.42562509 8.49758108 4.48449484 7.41028551 3.53808594 6.32763672 C0 2.22141822 0 2.22141822 0 0 Z " fill="#FDFEFF" transform="translate(333,471)"/>
<path d="M0 0 C29.04 0 58.08 0 88 0 C86.46887534 3.06224932 85.44819042 4.83850679 83.27734375 7.28515625 C82.74367188 7.89230469 82.21 8.49945313 81.66015625 9.125 C80.80744141 10.0840625 80.80744141 10.0840625 79.9375 11.0625 C78.74749539 12.41691314 77.55869743 13.77238739 76.37109375 15.12890625 C75.79085449 15.79164551 75.21061523 16.45438477 74.61279297 17.13720703 C72.52337528 19.5505066 70.50538675 22.01660672 68.5 24.5 C64.38106834 29.58809206 60.09852666 34.52003823 55.796875 39.453125 C52.63520769 43.08756499 49.53142528 46.75529818 46.5 50.5 C42.38106834 55.58809206 38.09852666 60.52003823 33.796875 65.453125 C30.63520769 69.08756499 27.53142528 72.75529818 24.5 76.5 C20.42242873 81.53348541 16.19494085 86.42333309 11.94189453 91.30810547 C7.0212235 96.96264879 2.17218901 102.67472086 -2.65722656 108.40722656 C-4.93421439 111.10814812 -7.21745794 113.80377244 -9.5 116.5 C-10.41669584 117.58330865 -11.33336253 118.66664196 -12.25 119.75 C-48 162 -48 162 -83.75 204.25 C-84.2042334 204.78689453 -84.6584668 205.32378906 -85.12646484 205.87695312 C-86.03795657 206.95402333 -86.94973779 208.03084862 -87.86181641 209.10742188 C-90.23516208 211.90958314 -92.60246792 214.71655188 -94.9609375 217.53125 C-95.69280273 218.40233398 -95.69280273 218.40233398 -96.43945312 219.29101562 C-97.36452485 220.39229149 -98.28784055 221.49504599 -99.20898438 222.59960938 C-101.99442036 225.91075931 -104.90565026 228.98328628 -108 232 C-106.50289956 227.13050881 -104.52546453 222.66261065 -102.32421875 218.0859375 C-101.96301941 217.32744507 -101.60182007 216.56895264 -101.22967529 215.78747559 C-100.45494927 214.16130735 -99.67870936 212.53585964 -98.90109253 210.91107178 C-96.83829814 206.60040365 -94.78692891 202.28430108 -92.734375 197.96875 C-92.32436752 197.10740448 -91.91436005 196.24605896 -91.4919281 195.35861206 C-88.09567597 188.21782232 -84.75320207 181.05358849 -81.4375 173.875 C-76.5134189 163.22354657 -71.5193735 152.6067948 -66.5 142 C-61.46087388 131.35108612 -56.44651063 120.69233116 -51.5 110 C-46.57267374 99.35014148 -41.58039931 88.73240681 -36.5625 78.125 C-28.98646185 62.10856192 -21.48141778 46.06102533 -14 30 C-9.38 20.1 -4.76 10.2 0 0 Z " fill="#FDFEFF" transform="translate(659,471)"/>
<path d="M0 0 C36.63 0 73.26 0 111 0 C109.35 1.65 107.7 3.3 106 5 C104.70642578 6.31097656 104.70642578 6.31097656 103.38671875 7.6484375 C102.49597656 8.54820312 101.60523438 9.44796875 100.6875 10.375 C99.80449219 11.26960938 98.92148437 12.16421875 98.01171875 13.0859375 C95.14269975 15.92069664 92.11085887 18.54754345 89.0637207 21.18798828 C85.71600007 24.12739234 82.48691291 27.18972626 79.25 30.25 C73.55893096 35.60874384 67.83096552 40.92029879 62.05859375 46.19140625 C58.51537135 49.43556339 55.00836194 52.71824097 51.5 56 C46.01195492 61.1324992 40.49404746 66.22974298 34.94921875 71.30078125 C31.85610018 74.13170169 28.76976466 76.96977507 25.6875 79.8125 C24.89460571 80.54243164 24.89460571 80.54243164 24.08569336 81.28710938 C21.03168467 84.10408643 17.99934525 86.94203081 14.984375 89.80078125 C14.31059814 90.43717529 13.63682129 91.07356934 12.94262695 91.72924805 C11.63275182 92.96767255 10.32643103 94.20987028 9.02416992 95.45629883 C8.42709229 96.01986084 7.83001465 96.58342285 7.21484375 97.1640625 C6.69011475 97.66373535 6.16538574 98.1634082 5.62475586 98.67822266 C4 100 4 100 0 102 C0 68.34 0 34.68 0 0 Z " fill="#FCFDFF" transform="translate(424,361)"/>
<path d="M0 0 C36.3 0 72.6 0 110 0 C110 33.33 110 66.66 110 101 C106.60854693 99.30427347 105.2059289 98.41745372 102.75 95.8125 C100.36668209 93.29349815 97.86639571 90.98650734 95.25 88.71484375 C91.15353079 85.15805461 87.19172142 81.47662066 83.25 77.75 C77.55893096 72.39125616 71.83096552 67.07970121 66.05859375 61.80859375 C62.51537135 58.56443661 59.00836194 55.28175903 55.5 52 C50.01195492 46.8675008 44.49404746 41.77025702 38.94921875 36.69921875 C35.85610204 33.86830001 32.7694588 31.03055449 29.6875 28.1875 C29.15600342 27.69725342 28.62450684 27.20700684 28.0769043 26.7019043 C25.08326073 23.93651769 22.09966429 21.16079671 19.125 18.375 C18.14732666 17.45944336 18.14732666 17.45944336 17.14990234 16.52539062 C15.85576078 15.31336056 14.5618111 14.10112556 13.26806641 12.88867188 C9.33114425 9.20992554 5.34344901 5.61008334 1.22265625 2.13671875 C0.81917969 1.76160156 0.41570313 1.38648438 0 1 C0 0.67 0 0.34 0 0 Z " fill="#FEFEFF" transform="translate(545,361)"/>
<path d="M0 0 C0.33 0 0.66 0 1 0 C1 33.66 1 67.32 1 102 C-27.71 102 -56.42 102 -86 102 C-84.49214039 98.98428077 -83.50872293 97.22758243 -81.3828125 94.8203125 C-80.86452881 94.22855225 -80.34624512 93.63679199 -79.81225586 93.02709961 C-79.25546143 92.39940674 -78.69866699 91.77171387 -78.125 91.125 C-76.94103136 89.77506829 -75.75744601 88.42480033 -74.57421875 87.07421875 C-73.97528809 86.39278809 -73.37635742 85.71135742 -72.75927734 85.00927734 C-70.12887255 82.00508202 -67.53180027 78.97287008 -64.9375 75.9375 C-63.94532601 74.77863427 -62.9531385 73.6197801 -61.9609375 72.4609375 C-60.97390406 71.3073381 -59.98692483 70.15369232 -59 69 C-52.31098326 61.18069397 -45.60251244 53.37934454 -38.85791016 45.60791016 C-33.71108119 39.67422648 -28.59882664 33.71136351 -23.49267578 27.74267578 C-21.97520879 25.97105665 -20.4548123 24.20199221 -18.93359375 22.43359375 C-17.91396231 21.24748195 -16.89443024 20.06128473 -15.875 18.875 C-15.38273926 18.30241455 -14.89047852 17.7298291 -14.38330078 17.13989258 C-11.9172914 14.26397146 -9.47166559 11.37365995 -7.05859375 8.453125 C-6.59533691 7.89254395 -6.13208008 7.33196289 -5.65478516 6.75439453 C-4.38782497 5.21643668 -3.12540728 3.67473999 -1.86328125 2.1328125 C-1.24839844 1.42898438 -0.63351562 0.72515625 0 0 Z " fill="#FBFCFF" transform="translate(419,365)"/>
<path d="M0 0 C7.39501602 7.39501602 14.17526331 15.15414493 20.75 23.28125 C22.93501569 25.92147729 25.19171391 28.4672972 27.5 31 C31.41891252 35.29991791 35.09170869 39.75919547 38.75 44.28125 C41.64475711 47.77908151 44.69589539 51.11785404 47.75390625 54.47265625 C50.06187598 57.06962393 52.25555863 59.73404013 54.4375 62.4375 C57.51336588 66.24087503 60.68753166 69.90082652 64 73.5 C68.10270302 77.9578056 71.95302974 82.56215839 75.75 87.28125 C78.81343204 90.98289705 82.06487058 94.4966566 85.34765625 98.00390625 C87 100 87 100 87 102 C58.29 102 29.58 102 0 102 C0 68.34 0 34.68 0 0 Z " fill="#FBFDFF" transform="translate(660,365)"/>
<path d="" fill="#2B2B2B" transform="translate(0,0)"/>
</svg>
