<?xml version="1.0" encoding="UTF-8"?>
<svg version="1.1" xmlns="http://www.w3.org/2000/svg" width="1080" height="1080">
<path d="M0 0 C1.97870291 0.95363236 3.93646278 1.95153747 5.875 2.984375 C7.00897217 3.58258057 8.14294434 4.18078613 9.3112793 4.79711914 C9.91064301 5.11488312 10.51000671 5.43264709 11.12753296 5.76004028 C80.61495678 42.49753627 156.00510748 69.17154542 304 93 C304.85223145 93.07347656 305.70446289 93.14695312 306.58251953 93.22265625 C328.21204065 94.97577113 350.71191814 94.96906417 372.34204102 93.26806641 C373.89257424 93.14739142 375.44626239 93.06793493 377 93 C378.72925657 94.72925657 378.12771526 96.9543212 378.13871691 99.26018524 C378.13723328 100.02267389 378.13574966 100.78516254 378.13422108 101.57075691 C378.13657331 102.37712778 378.13892554 103.18349865 378.14134905 104.014305 C378.14807483 106.75158474 378.14757975 109.4888174 378.14717102 112.22610474 C378.15046751 114.19460558 378.15419262 116.16310574 378.1583125 118.13160503 C378.16836667 123.56909957 378.17205482 129.00658307 378.17470181 134.4440856 C378.17859525 140.29869147 378.18817481 146.15328853 378.19691467 152.00788879 C378.21577848 165.49864495 378.2259439 178.98940181 378.23437535 192.48016789 C378.23858085 199.15118075 378.24380326 205.82219274 378.24905988 212.49320485 C378.26696095 235.34023063 378.28195201 258.18725666 378.28938007 281.03428841 C378.28985483 282.46974291 378.29033072 283.90519742 378.29080774 285.34065192 C378.2911623 286.40843184 378.2911623 286.40843184 378.29152403 287.49778307 C378.29272521 291.10431632 378.29394066 294.71084957 378.29516602 298.31738281 C378.29540617 299.0331118 378.29564632 299.74884079 378.29589374 300.48625854 C378.30377193 323.64820552 378.32716746 346.81010104 378.35972196 369.97202558 C378.39409387 394.47194675 378.41373849 418.97183786 378.41702431 443.47178352 C378.41744182 446.16692791 378.41792138 448.86207228 378.41844749 451.55721664 C378.41857069 452.2208148 378.41869388 452.88441295 378.4188208 453.56812013 C378.42100126 463.55195121 378.43433402 473.53572277 378.45348549 483.51953506 C378.4752625 494.89859884 378.48320891 506.27756885 378.47351871 517.65665109 C378.46899309 523.45589378 378.47075809 529.25494333 378.49028015 535.05415916 C378.50805132 540.37971567 378.50680229 545.70494016 378.49138286 551.03050087 C378.48902765 552.94136962 378.49321966 554.85226223 378.50521151 556.7630948 C378.61397115 575.26284512 375.74181939 593.25247611 370.75 611.0625 C370.30503174 612.67535889 370.30503174 612.67535889 369.85107422 614.32080078 C357.99480314 656.27803732 337.26686734 696.03797593 310 730 C309.21109375 730.99 308.4221875 731.98 307.609375 733 C305.4344426 735.69128326 303.22049037 738.34624322 301 741 C300.23945312 741.94617188 299.47890625 742.89234375 298.6953125 743.8671875 C291.58294708 752.57509219 283.69245507 760.49587344 275.75 768.4375 C274.89911301 769.28974655 274.89911301 769.28974655 274.03103638 770.15921021 C267.86793209 776.32120219 261.66017013 782.37047867 255 788 C254.03578125 788.845625 253.0715625 789.69125 252.078125 790.5625 C227.83159289 811.46006359 200.8359389 829.27152152 173 845 C172.10506836 845.50724609 171.21013672 846.01449219 170.28808594 846.53710938 C156.48486189 854.31899131 142.4140081 861.42109363 128 868 C126.33831787 868.75966064 126.33831787 868.75966064 124.64306641 869.53466797 C87.94035779 886.17766871 49.49328594 899.03536544 10.8125 910.25 C9.84610596 910.53794434 8.87971191 910.82588867 7.8840332 911.12255859 C-3.26023526 914.24704559 -11.92955611 912.89596029 -22.9375 909.6875 C-24.81248169 909.15334473 -24.81248169 909.15334473 -26.7253418 908.60839844 C-30.82509749 907.43289259 -34.91335077 906.22017932 -39 905 C-39.69895386 904.79207825 -40.39790771 904.58415649 -41.11804199 904.36993408 C-96.57722318 887.84210054 -151.97163659 866.06835473 -201 835 C-201.86206055 834.45649902 -202.72412109 833.91299805 -203.61230469 833.35302734 C-214.31977254 826.57294082 -224.79395194 819.51296017 -235 812 C-236.55267578 810.86111328 -236.55267578 810.86111328 -238.13671875 809.69921875 C-244.92817294 804.66432506 -251.50895669 799.41517978 -258 794 C-259.49273437 792.77023437 -259.49273437 792.77023437 -261.015625 791.515625 C-276.65222838 778.54797353 -291.8358693 764.4919343 -305 749 C-305.88952965 747.98471636 -306.78025986 746.97048392 -307.671875 745.95703125 C-341.48873238 707.33153403 -367.171883 661.3429709 -380.875 611.8125 C-381.13708252 610.87801025 -381.39916504 609.94352051 -381.66918945 608.98071289 C-382.35983947 606.34826101 -382.9689312 603.70915533 -383.54726088 601.05013287 C-383.85099007 599.67475982 -384.16675411 598.3019934 -384.49403799 596.93203437 C-389.48975045 575.45421945 -388.55271569 553.46477397 -388.47892153 531.56390607 C-388.46355549 525.68081443 -388.47159898 519.7977455 -388.47660828 513.91464233 C-388.48280017 502.42724223 -388.46793057 490.93996369 -388.44588266 479.4525869 C-388.42859743 470.1225012 -388.42017973 460.7924404 -388.41844749 451.4623394 C-388.41831766 450.79730148 -388.41818783 450.13226355 -388.41805406 449.44707296 C-388.41755406 446.74711416 -388.41711411 444.04715536 -388.41675197 441.34719653 C-388.41345874 416.8111083 -388.39118904 392.27507641 -388.35668945 367.73901367 C-388.32414194 344.58015732 -388.30293798 321.42132944 -388.29516602 298.26245117 C-388.29492297 297.54724997 -388.29467993 296.83204877 -388.29442953 296.0951748 C-388.29320744 292.49280902 -388.29200414 288.89044323 -388.29080774 285.28807744 C-388.29057147 284.57721357 -388.2903352 283.86634969 -388.29009177 283.13394449 C-388.28961759 281.70049547 -388.28914743 280.26704644 -388.2886813 278.83359742 C-388.28121815 256.04002048 -388.26544703 233.24644877 -388.24748212 210.45287793 C-388.24224201 203.7815621 -388.23729083 197.11024636 -388.2331202 190.4389298 C-388.22425469 176.42511637 -388.21248137 162.41131631 -388.19155417 148.39751507 C-388.18293353 142.6029357 -388.17586029 136.80836595 -388.17303848 131.01378059 C-388.17038447 125.71937942 -388.16313267 120.42500605 -388.15204801 115.130616 C-388.14882502 113.20670054 -388.14731092 111.28278138 -388.1475983 109.35886324 C-388.14772228 106.76186386 -388.14179945 104.16495016 -388.13422108 101.5679636 C-388.1357047 100.8057608 -388.13718832 100.04355799 -388.13871691 99.25825813 C-388.11416444 94.11416444 -388.11416444 94.11416444 -387 93 C-384.34562664 93.09807577 -381.71166811 93.2559999 -379.0625 93.4375 C-310.99926598 97.35294866 -242.32900818 86.80995985 -177 68 C-176.28366394 67.79437439 -175.56732788 67.58874878 -174.82928467 67.37689209 C-120.72759944 51.79901509 -66.70990948 31.32237165 -17.38671875 3.9296875 C-16.59185059 3.48947266 -15.79698242 3.04925781 -14.97802734 2.59570312 C-13.60324715 1.82074248 -12.23868752 1.02712891 -10.88916016 0.20898438 C-6.46571324 -2.32152934 -4.61142593 -1.83576439 0 0 Z " fill="#A2B3C3" transform="translate(545,84)"/>
<path d="M0 0 C1.97870291 0.95363236 3.93646278 1.95153747 5.875 2.984375 C7.00897217 3.58258057 8.14294434 4.18078613 9.3112793 4.79711914 C9.91064301 5.11488312 10.51000671 5.43264709 11.12753296 5.76004028 C80.61495678 42.49753627 156.00510748 69.17154542 304 93 C304.85223145 93.07347656 305.70446289 93.14695312 306.58251953 93.22265625 C328.21204065 94.97577113 350.71191814 94.96906417 372.34204102 93.26806641 C373.89257424 93.14739142 375.44626239 93.06793493 377 93 C378.72925657 94.72925657 378.12771526 96.9543212 378.13871691 99.26018524 C378.13723328 100.02267389 378.13574966 100.78516254 378.13422108 101.57075691 C378.13657331 102.37712778 378.13892554 103.18349865 378.14134905 104.014305 C378.14807483 106.75158474 378.14757975 109.4888174 378.14717102 112.22610474 C378.15046751 114.19460558 378.15419262 116.16310574 378.1583125 118.13160503 C378.16836667 123.56909957 378.17205482 129.00658307 378.17470181 134.4440856 C378.17859525 140.29869147 378.18817481 146.15328853 378.19691467 152.00788879 C378.21577848 165.49864495 378.2259439 178.98940181 378.23437535 192.48016789 C378.23858085 199.15118075 378.24380326 205.82219274 378.24905988 212.49320485 C378.26696095 235.34023063 378.28195201 258.18725666 378.28938007 281.03428841 C378.28985483 282.46974291 378.29033072 283.90519742 378.29080774 285.34065192 C378.2911623 286.40843184 378.2911623 286.40843184 378.29152403 287.49778307 C378.29272521 291.10431632 378.29394066 294.71084957 378.29516602 298.31738281 C378.29540617 299.0331118 378.29564632 299.74884079 378.29589374 300.48625854 C378.30377193 323.64820552 378.32716746 346.81010104 378.35972196 369.97202558 C378.39409387 394.47194675 378.41373849 418.97183786 378.41702431 443.47178352 C378.41744182 446.16692791 378.41792138 448.86207228 378.41844749 451.55721664 C378.41857069 452.2208148 378.41869388 452.88441295 378.4188208 453.56812013 C378.42100126 463.55195121 378.43433402 473.53572277 378.45348549 483.51953506 C378.4752625 494.89859884 378.48320891 506.27756885 378.47351871 517.65665109 C378.46899309 523.45589378 378.47075809 529.25494333 378.49028015 535.05415916 C378.50805132 540.37971567 378.50680229 545.70494016 378.49138286 551.03050087 C378.48902765 552.94136962 378.49321966 554.85226223 378.50521151 556.7630948 C378.61397115 575.26284512 375.74181939 593.25247611 370.75 611.0625 C370.30503174 612.67535889 370.30503174 612.67535889 369.85107422 614.32080078 C357.99480314 656.27803732 337.26686734 696.03797593 310 730 C309.21109375 730.99 308.4221875 731.98 307.609375 733 C305.4344426 735.69128326 303.22049037 738.34624322 301 741 C300.23945312 741.94617188 299.47890625 742.89234375 298.6953125 743.8671875 C291.58294708 752.57509219 283.69245507 760.49587344 275.75 768.4375 C274.89911301 769.28974655 274.89911301 769.28974655 274.03103638 770.15921021 C267.86793209 776.32120219 261.66017013 782.37047867 255 788 C254.03578125 788.845625 253.0715625 789.69125 252.078125 790.5625 C227.83159289 811.46006359 200.8359389 829.27152152 173 845 C172.10506836 845.50724609 171.21013672 846.01449219 170.28808594 846.53710938 C156.48486189 854.31899131 142.4140081 861.42109363 128 868 C126.33831787 868.75966064 126.33831787 868.75966064 124.64306641 869.53466797 C87.94035779 886.17766871 49.49328594 899.03536544 10.8125 910.25 C9.84610596 910.53794434 8.87971191 910.82588867 7.8840332 911.12255859 C-3.26023526 914.24704559 -11.92955611 912.89596029 -22.9375 909.6875 C-24.81248169 909.15334473 -24.81248169 909.15334473 -26.7253418 908.60839844 C-30.82509749 907.43289259 -34.91335077 906.22017932 -39 905 C-39.69895386 904.79207825 -40.39790771 904.58415649 -41.11804199 904.36993408 C-96.57722318 887.84210054 -151.97163659 866.06835473 -201 835 C-201.86206055 834.45649902 -202.72412109 833.91299805 -203.61230469 833.35302734 C-214.31977254 826.57294082 -224.79395194 819.51296017 -235 812 C-236.55267578 810.86111328 -236.55267578 810.86111328 -238.13671875 809.69921875 C-244.92817294 804.66432506 -251.50895669 799.41517978 -258 794 C-259.49273437 792.77023437 -259.49273437 792.77023437 -261.015625 791.515625 C-276.65222838 778.54797353 -291.8358693 764.4919343 -305 749 C-305.88952965 747.98471636 -306.78025986 746.97048392 -307.671875 745.95703125 C-341.48873238 707.33153403 -367.171883 661.3429709 -380.875 611.8125 C-381.13708252 610.87801025 -381.39916504 609.94352051 -381.66918945 608.98071289 C-382.35983947 606.34826101 -382.9689312 603.70915533 -383.54726088 601.05013287 C-383.85099007 599.67475982 -384.16675411 598.3019934 -384.49403799 596.93203437 C-389.48975045 575.45421945 -388.55271569 553.46477397 -388.47892153 531.56390607 C-388.46355549 525.68081443 -388.47159898 519.7977455 -388.47660828 513.91464233 C-388.48280017 502.42724223 -388.46793057 490.93996369 -388.44588266 479.4525869 C-388.42859743 470.1225012 -388.42017973 460.7924404 -388.41844749 451.4623394 C-388.41831766 450.79730148 -388.41818783 450.13226355 -388.41805406 449.44707296 C-388.41755406 446.74711416 -388.41711411 444.04715536 -388.41675197 441.34719653 C-388.41345874 416.8111083 -388.39118904 392.27507641 -388.35668945 367.73901367 C-388.32414194 344.58015732 -388.30293798 321.42132944 -388.29516602 298.26245117 C-388.29492297 297.54724997 -388.29467993 296.83204877 -388.29442953 296.0951748 C-388.29320744 292.49280902 -388.29200414 288.89044323 -388.29080774 285.28807744 C-388.29057147 284.57721357 -388.2903352 283.86634969 -388.29009177 283.13394449 C-388.28961759 281.70049547 -388.28914743 280.26704644 -388.2886813 278.83359742 C-388.28121815 256.04002048 -388.26544703 233.24644877 -388.24748212 210.45287793 C-388.24224201 203.7815621 -388.23729083 197.11024636 -388.2331202 190.4389298 C-388.22425469 176.42511637 -388.21248137 162.41131631 -388.19155417 148.39751507 C-388.18293353 142.6029357 -388.17586029 136.80836595 -388.17303848 131.01378059 C-388.17038447 125.71937942 -388.16313267 120.42500605 -388.15204801 115.130616 C-388.14882502 113.20670054 -388.14731092 111.28278138 -388.1475983 109.35886324 C-388.14772228 106.76186386 -388.14179945 104.16495016 -388.13422108 101.5679636 C-388.1357047 100.8057608 -388.13718832 100.04355799 -388.13871691 99.25825813 C-388.11416444 94.11416444 -388.11416444 94.11416444 -387 93 C-384.34562664 93.09807577 -381.71166811 93.2559999 -379.0625 93.4375 C-310.99926598 97.35294866 -242.32900818 86.80995985 -177 68 C-176.28366394 67.79437439 -175.56732788 67.58874878 -174.82928467 67.37689209 C-120.72759944 51.79901509 -66.70990948 31.32237165 -17.38671875 3.9296875 C-16.59185059 3.48947266 -15.79698242 3.04925781 -14.97802734 2.59570312 C-13.60324715 1.82074248 -12.23868752 1.02712891 -10.88916016 0.20898438 C-6.46571324 -2.32152934 -4.61142593 -1.83576439 0 0 Z M-10.98046875 65.9140625 C-12.20600464 66.54997314 -12.20600464 66.54997314 -13.45629883 67.19873047 C-14.35759521 67.66939941 -15.2588916 68.14006836 -16.1875 68.625 C-50.12465244 85.92495484 -86.02939359 99.59754153 -122 112 C-123.85866699 112.64412842 -123.85866699 112.64412842 -125.75488281 113.30126953 C-141.2429739 118.6562294 -156.76487383 123.47530908 -172.68164062 127.40917969 C-175.73146853 128.18641047 -178.73817952 129.08755192 -181.75 130 C-203.7307581 136.34009948 -226.46897839 140.16574354 -249 144 C-249.67760376 144.11621704 -250.35520752 144.23243408 -251.05334473 144.35217285 C-272.25982605 147.981423 -293.41755255 150.20739464 -314.87841797 151.69042969 C-318.17549721 151.92638573 -321.46590974 152.21754818 -324.75759888 152.51934814 C-325.74134554 152.60936726 -326.7250922 152.69938637 -327.73864937 152.79213333 C-328.48489508 152.86072933 -329.23114079 152.92932533 -330 153 C-330.11462395 205.82515611 -330.20263937 258.65029957 -330.25532665 311.47555574 C-330.26157964 317.72222942 -330.26805131 323.96890286 -330.2746582 330.21557617 C-330.27596976 331.45909539 -330.27728131 332.7026146 -330.2786326 333.98381621 C-330.30034658 354.07786259 -330.33974589 374.17183691 -330.38576398 394.26584064 C-330.43264039 414.90789339 -330.46031897 435.54990859 -330.47044247 456.19201237 C-330.47727849 468.9134246 -330.49881272 481.63463313 -330.53958233 494.35598261 C-330.56615898 503.09782344 -330.57396747 511.83956007 -330.56750689 520.5814383 C-330.56432707 525.61341193 -330.5689508 530.64503143 -330.59602737 535.67694092 C-330.70207978 556.40164801 -330.38000003 575.83011466 -325 596 C-324.67265615 597.32557496 -324.34766668 598.65173537 -324.02589893 599.97867489 C-323.16857837 603.38611182 -322.12595535 606.67093696 -321 610 C-320.72236816 610.82161621 -320.44473633 611.64323242 -320.15869141 612.48974609 C-309.79981571 642.66282834 -294.68593501 669.96569985 -275 695 C-274.21882813 695.99515625 -273.43765625 696.9903125 -272.6328125 698.015625 C-267.4935773 704.41680764 -262.0011618 710.46576275 -256.41162109 716.47070312 C-254.9957722 718.00458024 -253.59907167 719.55388083 -252.20703125 721.109375 C-246.47770136 727.49446549 -240.50622972 733.39767484 -234 739 C-232.96438746 739.90963703 -231.92925618 740.81982218 -230.89453125 741.73046875 C-209.92425043 760.07677282 -187.21744593 776.20468192 -163 790 C-162.33967773 790.37753418 -161.67935547 790.75506836 -160.99902344 791.14404297 C-155.70059424 794.16028033 -150.36087437 797.0964108 -145 800 C-144.12843262 800.4734082 -143.25686523 800.94681641 -142.35888672 801.43457031 C-110.95979786 818.40251025 -77.79890111 831.20268476 -44 842.5 C-43.27380463 842.74362274 -42.54760925 842.98724548 -41.79940796 843.23825073 C-33.7081873 845.94207973 -25.57408684 848.4861649 -17.375 850.84375 C-16.64079834 851.06107788 -15.90659668 851.27840576 -15.15014648 851.50231934 C-7.64854165 853.60915853 -1.48515971 853.1694583 5.9375 850.8125 C6.58267578 850.61591797 7.22785156 850.41933594 7.89257812 850.21679688 C9.35139758 849.76993889 10.80835633 849.3169836 12.26391602 848.85961914 C14.35641467 848.20220076 16.45105868 847.55160719 18.54663086 846.90405273 C82.95386921 826.98126098 145.01719621 799.92458266 199 759 C199.59796387 758.5477002 200.19592773 758.09540039 200.81201172 757.62939453 C208.2346691 751.98577082 215.28957029 746.08818469 222.0859375 739.703125 C224.31136694 737.63878562 226.55950131 735.63932162 228.85546875 733.65625 C233.04197906 730.00814669 237.01412796 726.17815548 240.9375 722.25 C241.63697754 721.5497168 242.33645508 720.84943359 243.05712891 720.12792969 C247.64572129 715.48500291 251.90945819 710.75430091 255.94140625 705.6171875 C258.15698224 702.80042107 260.47945004 700.09504877 262.8125 697.375 C272.7489943 685.44812097 281.41910754 672.53753367 289 659 C289.4316748 658.23236328 289.86334961 657.46472656 290.30810547 656.67382812 C299.71537989 639.77613251 306.75238076 622.21892148 312.8125 603.875 C313.07836914 603.09068604 313.34423828 602.30637207 313.61816406 601.49829102 C314.51165652 598.68603755 315.25657231 595.85604019 316 593 C316.33522045 591.76282887 316.6704409 590.52565775 317.01581955 589.25099659 C321.39765862 571.17637374 320.54320759 552.60205032 320.46426249 534.13910925 C320.44681806 529.01264244 320.45284607 523.88619278 320.45587158 518.75970459 C320.45795831 509.90061255 320.44552069 501.0416393 320.42292023 492.18257713 C320.39026616 479.37423785 320.37997956 466.5659554 320.37496826 453.75757901 C320.36623653 432.97157293 320.33967881 412.18563003 320.30175781 391.3996582 C320.2649826 371.22062494 320.23669787 351.04160889 320.21972656 330.86254883 C320.21867567 329.61651487 320.21762477 328.37048092 320.21654204 327.08668836 C320.21132149 320.83504594 320.20626675 314.58340339 320.20129442 308.33176076 C320.15989853 256.55446355 320.08950824 204.77723487 320 153 C315.90131281 152.29118357 311.94211775 151.82370934 307.78515625 151.640625 C279.84546919 150.24685845 251.91788559 147.28421279 224.51904297 141.51367188 C221.72855628 140.94464842 218.93114563 140.42981196 216.12890625 139.921875 C190.06656483 135.16560395 164.289466 128.90144062 139 121 C138.30924377 120.78557251 137.61848755 120.57114502 136.90679932 120.35021973 C111.85442184 112.57062153 87.28922636 103.90978735 63 94 C61.79150391 93.50757813 60.58300781 93.01515625 59.33789062 92.5078125 C41.35230598 85.13015625 23.68594857 77.05367788 6.140625 68.6875 C5.43768311 68.35395508 4.73474121 68.02041016 4.01049805 67.67675781 C2.22420056 66.82692885 0.44196679 65.96857182 -1.33984375 65.109375 C-5.33130958 63.44479894 -7.31854636 63.97576837 -10.98046875 65.9140625 Z " fill="#8596A8" transform="translate(545,84)"/>
<path d="M0 0 C3.96632509 0.79326502 6.25965863 1.4496162 9.7265625 3.1953125 C10.65758789 3.65623291 11.58861328 4.11715332 12.54785156 4.59204102 C13.56331055 5.09791748 14.57876953 5.60379395 15.625 6.125 C47.81270142 21.83794534 81.15188041 34.67149183 115 46.3125 C115.84274475 46.6035965 116.6854895 46.89469299 117.55377197 47.1946106 C137.90023129 54.20342111 158.56390267 59.79756099 179.4375 65 C180.4818219 65.26079346 181.5261438 65.52158691 182.60211182 65.7902832 C199.64887476 70.03516398 216.6889133 73.97238369 234 77 C235.04994141 77.1846582 236.09988281 77.36931641 237.18164062 77.55957031 C254.45558237 80.53506307 271.85383355 82.43514752 289.27686882 84.28182983 C294.70145155 84.85718905 300.12353122 85.45346964 305.54492188 86.05810547 C306.36410095 86.14930161 307.18328003 86.24049774 308.02728271 86.3344574 C310.01820847 86.55612542 312.00910714 86.7780367 314 87 C314.09171004 137.65946627 314.162117 188.31892408 314.20426132 238.97845715 C314.20926368 244.96976909 314.21444102 250.96108088 314.21972656 256.95239258 C314.2207758 258.14507134 314.22182505 259.3377501 314.22290608 260.56657065 C314.24027469 279.83612219 314.27179271 299.10562563 314.30861118 318.37514871 C314.3461195 338.17195367 314.36825669 357.96873357 314.37635398 377.76557261 C314.3818213 389.96489442 314.39904056 402.16408021 314.43166587 414.36336011 C314.45293608 422.74777221 314.45917199 431.13211478 314.45400551 439.51655184 C314.45146304 444.34190196 314.45514469 449.16701568 314.4768219 453.99232292 C314.65441277 495.6375846 307.73092803 531.96108409 288 569 C287.62117676 569.71897461 287.24235352 570.43794922 286.85205078 571.17871094 C276.53518148 590.66284346 263.9661177 608.56574236 249.0234375 624.79296875 C247.25551137 626.72130517 245.56153954 628.68847978 243.875 630.6875 C235.6743158 640.09812121 226.57563194 648.99894616 217 657 C215.66388672 658.16982422 215.66388672 658.16982422 214.30078125 659.36328125 C200.45678651 671.42433728 185.44801925 682.09855528 170 692 C169.24589844 692.48791016 168.49179687 692.97582031 167.71484375 693.47851562 C154.47239992 702.01277116 140.83333532 709.50334583 126.77197266 716.59863281 C124.39652837 717.7995356 122.03019173 719.01557255 119.66796875 720.2421875 C92.11596629 734.45560509 62.67885373 745.24895411 33.3125 755.0625 C32.31189545 755.39832596 32.31189545 755.39832596 31.29107666 755.74093628 C6.58176191 764 6.58176191 764 0 764 C-0.23379658 737.85267457 -0.41003916 711.70550622 -0.51812172 685.55734539 C-0.56964467 673.41572273 -0.6398647 661.27475022 -0.75439453 649.13354492 C-0.85419332 638.54890224 -0.918612 627.96473049 -0.94088495 617.37963039 C-0.95390122 611.77669608 -0.98440088 606.17510878 -1.05730057 600.57260704 C-1.12543038 595.2936643 -1.14606626 590.01661672 -1.13107681 584.73727608 C-1.13381684 582.80511023 -1.1535629 580.87287779 -1.19205475 578.94109344 C-1.50234169 562.5583514 -1.50234169 562.5583514 4.79751587 555.595047 C6.51700249 554.04690869 8.25077043 552.51445117 10 551 C11.49226509 549.25766487 12.95561043 547.48969867 14.375 545.6875 C17.80786355 541.43872698 21.31225459 537.26458168 24.875 533.125 C28.78836618 528.57708419 32.69005274 524.02033529 36.5625 519.4375 C37.23708252 518.63916748 37.23708252 518.63916748 37.92529297 517.82470703 C38.83068442 516.7528666 39.73595817 515.68092674 40.64111328 514.60888672 C42.92546186 511.90427711 45.21289508 509.20227873 47.5 506.5 C48.41668126 505.41667901 49.33334793 504.33334568 50.25 503.25 C66.75 483.75 83.25 464.25 99.75 444.75 C100.20366943 444.21383057 100.65733887 443.67766113 101.12475586 443.12524414 C102.04217797 442.04104762 102.95965852 440.95690055 103.87719727 439.87280273 C106.15778544 437.17807689 108.43737815 434.48252188 110.71484375 431.78515625 C115.49408326 426.12729174 120.2944851 420.48917257 125.125 414.875 C128.61815106 410.81371255 132.06448396 406.72481413 135.4375 402.5625 C139.58060991 397.45692535 143.8823045 392.50199947 148.20288086 387.54711914 C151.36465838 383.91262149 154.46850206 380.24479157 157.5 376.5 C161.61893166 371.41190794 165.90147334 366.47996177 170.203125 361.546875 C173.36479231 357.91243501 176.46857472 354.24470182 179.5 350.5 C183.61532344 345.41636516 187.89351244 340.48819076 192.19213867 335.56005859 C196.20302635 330.95045188 200.0945373 326.26687557 203.91796875 321.5 C206.6684611 318.19734502 209.63723419 315.1203349 212.6640625 312.0703125 C214.22961714 310.06483149 214.22961714 310.06483149 213.9609375 307.53125 C212.79183869 304.45167265 211.28383392 302.74606369 209 300.375 C205.70916864 296.86581964 202.57392466 293.31470292 199.5625 289.5625 C195.70174863 284.788597 191.62562925 280.26611572 187.46875 275.75 C184.27118704 272.18815771 181.28611657 268.47434167 178.28125 264.75 C175.93281032 261.91900422 173.49090098 259.20616402 171 256.5 C166.88621091 252.0301488 163.02912703 247.40955107 159.21484375 242.68359375 C157.04367173 240.05291443 154.79758643 237.52057576 152.5 235 C149.40444804 231.60401318 146.44848793 228.13828469 143.5625 224.5625 C139.71278428 219.80224283 135.64962964 215.29161654 131.50390625 210.7890625 C128.10518671 207.0032813 124.9075747 203.07864278 121.71484375 199.1171875 C120.17273924 197.13793226 120.17273924 197.13793226 119 196 C117.45688956 195.89201408 115.9088876 195.85316742 114.36204529 195.84178162 C113.3614807 195.83200759 112.36091612 195.82223356 111.33003139 195.81216335 C110.21879437 195.8063931 109.10755735 195.80062284 107.96264648 195.79467773 C106.78297585 195.78464501 105.60330523 195.77461229 104.387887 195.76427555 C100.54897625 195.73275908 96.71005522 195.7080654 92.87109375 195.68359375 C90.50915174 195.66520243 88.14721315 195.64636643 85.78527832 195.6270752 C77.00272607 195.55848259 68.22010811 195.49852281 59.4375 195.4375 C39.823125 195.293125 20.20875 195.14875 0 195 C0 130.65 0 66.3 0 0 Z " fill="#8697A8" transform="translate(540,161)"/>
<path d="M0 0 C75.24 0 150.48 0 228 0 C226.57061865 4.28814406 225.16483519 7.93960256 223.19921875 11.9453125 C222.64121582 13.08959717 222.08321289 14.23388184 221.50830078 15.4128418 C221.21215881 16.01639496 220.91601685 16.61994812 220.61090088 17.24179077 C219.01374636 20.49907177 217.43041405 23.76304832 215.84765625 27.02734375 C215.52307434 27.69653336 215.19849243 28.36572296 214.86407471 29.05519104 C211.71302728 35.56632211 208.65763488 42.12043418 205.625 48.6875 C200.81309863 59.10367728 195.9552805 69.49662671 191.0625 79.875 C186.02002688 90.57333358 180.99453624 101.27920064 176 112 C170.66656056 123.44825695 165.29543619 134.8783957 159.91110229 146.30279541 C154.9062868 156.9241576 149.94467697 167.56437646 145.01464844 178.22070312 C141.93597383 184.86365967 138.8288758 191.49216487 135.6953125 198.109375 C135.32226486 198.89744537 134.94921722 199.68551575 134.56486511 200.49746704 C132.74183037 204.34733122 130.91609479 208.19588114 129.08618164 212.04248047 C124.22227042 222.288943 119.56381449 232.61654094 115 243 C114.34 243 113.68 243 113 243 C105.4819927 227.05967279 97.96426256 211.11972222 90.5625 195.125 C85.23307015 183.61122313 79.82341909 172.13669252 74.39675903 160.66851807 C69.20090128 149.68617083 64.05427422 138.68297659 58.953125 127.65625 C54.51697773 118.08119945 50.0136477 108.53870314 45.5 99 C39.91718868 87.20141047 34.37650497 75.38531898 28.89379883 63.53979492 C23.56868906 52.04509752 18.1730986 40.58383245 12.77198792 29.12469482 C12.14430334 27.79258431 11.51704932 26.46027082 10.89024353 25.12774658 C9.18460069 21.50355679 7.46858472 17.8846515 5.74072266 14.27099609 C5.36969925 13.49161179 4.99867584 12.71222748 4.6164093 11.90922546 C3.89849331 10.40139715 3.17756942 8.8949964 2.45329285 7.39021301 C0 2.22527466 0 2.22527466 0 0 Z " fill="#FEFEFE" transform="translate(426,471)"/>
<path d="M0 0 C1.10754639 0.52142578 2.21509277 1.04285156 3.35620117 1.58007812 C5.14054565 2.42795898 5.14054565 2.42795898 6.9609375 3.29296875 C9.51007803 4.49049188 12.061681 5.68272851 14.61328125 6.875 C15.26180557 7.17850372 15.9103299 7.48200745 16.57850647 7.79470825 C47.15115542 22.09146801 78.39776126 34.57294944 110.3359375 45.48046875 C111.43583008 45.85623047 112.53572266 46.23199219 113.66894531 46.61914062 C152.60294592 59.79118305 192.57680934 69.60755347 233.1706543 75.96728516 C236.05921688 76.43560436 238.93284158 76.95155555 241.80859375 77.4921875 C248.35196013 78.69817074 254.92772983 79.61169176 261.5234375 80.48046875 C262.18036591 80.56728912 262.83729431 80.6541095 263.51412964 80.74356079 C275.64984812 82.32712961 287.78354501 83.24720364 300.00268555 83.88476562 C301.26894775 83.95115234 302.53520996 84.01753906 303.83984375 84.0859375 C304.95174072 84.13903076 306.0636377 84.19212402 307.20922852 84.24682617 C310.3021979 84.47794757 313.28179432 84.95187887 316.3359375 85.48046875 C316.45056069 138.43301902 316.53857648 191.38555668 316.59126415 244.33820676 C316.59751715 250.59990172 316.60398881 256.86159643 316.6105957 263.12329102 C316.61190726 264.36980084 316.61321881 265.61631067 316.6145701 266.90059353 C316.63628426 287.04313875 316.67568367 307.18561211 316.72170148 327.3281148 C316.76857738 348.0198881 316.79625637 368.71162395 316.80637997 389.40344816 C316.81321609 402.15556964 316.8347509 414.90748792 316.87551983 427.6595468 C316.90209586 436.42241236 316.90990511 445.18517397 316.90344439 453.94807684 C316.90026447 458.99220173 316.90488943 464.03597335 316.93196487 469.08003426 C317.06581211 495.31733391 315.69507935 519.35882489 306.5859375 544.29296875 C306.15547119 545.50307617 305.72500488 546.71318359 305.28149414 547.95996094 C301.50392617 558.39621067 297.23567808 568.52470656 292.3359375 578.48046875 C291.99272461 579.18993652 291.64951172 579.8994043 291.29589844 580.63037109 C273.91580236 616.25544954 245.80944379 650.154119 215.3359375 675.48046875 C214.44777344 676.23457031 213.55960938 676.98867188 212.64453125 677.765625 C163.564291 719.16707929 106.03379903 747.7666201 45.84082031 769.22998047 C42.62446805 770.37752549 39.41347938 771.53893635 36.203125 772.703125 C26.17644768 776.30429748 16.07962334 779.55007411 5.8359375 782.48046875 C4.26815552 782.93534668 4.26815552 782.93534668 2.66870117 783.39941406 C-6.8020016 786.03261444 -13.53631106 785.56085988 -22.8515625 782.73046875 C-23.87475586 782.42463867 -24.89794922 782.11880859 -25.95214844 781.80371094 C-77.36509535 766.21261804 -127.74865207 746.69089692 -173.6640625 718.48046875 C-174.43733887 718.00609375 -175.21061523 717.53171875 -176.00732422 717.04296875 C-186.51046017 710.57042439 -196.77399855 703.85867617 -206.6640625 696.48046875 C-207.20724121 696.07618652 -207.75041992 695.6719043 -208.31005859 695.25537109 C-220.08092696 686.45077552 -231.19452425 676.95382157 -241.96484375 666.95703125 C-244.15757853 664.94517329 -246.38327939 663.01474286 -248.6640625 661.10546875 C-254.47629355 656.04978843 -259.54732668 650.22322218 -264.6640625 644.48046875 C-265.16486328 643.91908203 -265.66566406 643.35769531 -266.18164062 642.77929688 C-294.94619164 610.3394838 -318.88674758 570.56005105 -328.7890625 528.04296875 C-329.16611328 526.4796582 -329.16611328 526.4796582 -329.55078125 524.88476562 C-330.29235167 521.7534748 -331.01741171 518.63305709 -331.6640625 515.48046875 C-331.82866844 514.70283007 -331.99327438 513.9251914 -332.16286838 513.12398791 C-333.88225294 504.12171077 -333.93894034 495.28754903 -333.90457153 486.16851807 C-333.90544501 484.43399421 -333.9071986 482.69947062 -333.90974987 480.96494842 C-333.91419949 476.22616852 -333.90625269 471.48747987 -333.89619374 466.74871159 C-333.887527 461.62822039 -333.89048168 456.50773402 -333.89199829 451.38723755 C-333.89304511 442.52475015 -333.88678978 433.66229229 -333.87552261 424.79981232 C-333.85924298 411.98628305 -333.85405709 399.17276802 -333.85154663 386.35922953 C-333.84717339 365.56825431 -333.83387437 344.77729481 -333.81494141 323.98632812 C-333.796573 303.79427163 -333.78242119 283.60221942 -333.77392578 263.41015625 C-333.77313761 261.54203905 -333.77313761 261.54203905 -333.77233352 259.6361821 C-333.76972337 253.38808796 -333.76719597 247.13999378 -333.76470971 240.89189959 C-333.74398877 189.08807844 -333.70877336 137.28427436 -333.6640625 85.48046875 C-329.01537853 85.0688674 -324.36665994 84.65765992 -319.71791077 84.24679565 C-318.14101756 84.1073739 -316.56413338 83.96785007 -314.98725891 83.82821655 C-298.96052798 82.40916819 -298.96052798 82.40916819 -291.27189636 81.78952026 C-248.38378728 78.15246629 -204.48931784 69.156379 -163.46289062 56.33349609 C-160.62635628 55.46897664 -157.77936668 54.64467774 -154.93017578 53.82301331 C-144.57641221 50.82542462 -134.36151599 47.46991156 -124.1640625 43.98046875 C-123.27899017 43.6781131 -122.39391785 43.37575745 -121.48202515 43.0642395 C-103.98873674 37.0709276 -86.74198266 30.5692539 -69.6640625 23.48046875 C-69.02635925 23.21576782 -68.38865601 22.95106689 -67.73162842 22.67834473 C-55.51976894 17.59467822 -43.38803534 12.36136808 -31.51953125 6.515625 C-30.85190765 6.1877449 -30.18428406 5.85986481 -29.49642944 5.52204895 C-26.28187648 3.93967321 -23.07793601 2.34007164 -19.88769531 0.70922852 C-18.18178223 -0.14264038 -18.18178223 -0.14264038 -16.44140625 -1.01171875 C-14.94468384 -1.77524658 -14.94468384 -1.77524658 -13.41772461 -2.55419922 C-8.34154109 -4.33372131 -4.65282743 -2.20953555 0 0 Z M-14.53515625 10.796875 C-15.56624512 11.30621582 -16.59733398 11.81555664 -17.65966797 12.34033203 C-18.79549316 12.90220215 -19.93131836 13.46407227 -21.1015625 14.04296875 C-68.53435352 37.2365612 -118.68155292 55.79637115 -169.6640625 69.48046875 C-171.06277528 69.86488522 -172.46125102 70.25016632 -173.859375 70.63671875 C-177.45344156 71.61620063 -181.05655583 72.55176703 -184.6640625 73.48046875 C-185.44378418 73.68849121 -186.22350586 73.89651367 -187.02685547 74.11083984 C-216.20339123 81.89088438 -245.86868927 87.01313869 -275.78125 90.96362305 C-278.35556652 91.30629332 -280.92854109 91.65921155 -283.5 92.02270508 C-292.00341394 93.21149026 -300.47197378 93.99440795 -309.0390625 94.54296875 C-311.42214723 94.69634814 -313.80498289 94.85366738 -316.1875 95.015625 C-317.7331665 95.11435913 -317.7331665 95.11435913 -319.31005859 95.21508789 C-321.61910168 95.22769421 -321.61910168 95.22769421 -322.6640625 96.48046875 C-322.76565244 98.58375231 -322.79515601 100.69051615 -322.79828358 102.79624939 C-322.80063581 103.46695117 -322.80298804 104.13765295 -322.80541155 104.82867903 C-322.81213506 107.10447048 -322.81164231 109.38020527 -322.81123352 111.65600586 C-322.81453019 113.29309744 -322.81825533 114.9301882 -322.822375 116.56727791 C-322.83242777 121.08878552 -322.83611712 125.61027986 -322.83876431 130.13179708 C-322.84265834 135.0007479 -322.85223807 139.86968812 -322.86097717 144.7386322 C-322.8807794 156.51746017 -322.89081792 168.29628904 -322.89970496 180.07512951 C-322.90408651 185.62570947 -322.90945411 191.17628847 -322.91469383 196.72686768 C-322.93171885 215.19091595 -322.94620773 233.65496363 -322.95344257 252.11901855 C-322.95535244 256.91544597 -322.95727276 261.71187338 -322.95922852 266.50830078 C-322.95971226 267.70041404 -322.960196 268.8925273 -322.9606944 270.12076521 C-322.96897456 289.38379104 -322.99427158 308.64675436 -323.02680919 327.90975296 C-323.05996678 347.70207378 -323.07789965 367.49436297 -323.08108681 387.28671169 C-323.08324516 398.3925863 -323.091893 409.49837008 -323.11754799 420.60421753 C-323.13937502 430.0750198 -323.14724736 439.54570923 -323.13758121 449.01653379 C-323.1330694 453.83986076 -323.13473774 458.66295556 -323.15434265 463.48624992 C-323.25421728 489.51173266 -322.38177976 514.65258892 -313.6640625 539.48046875 C-313.38578613 540.27839844 -313.10750977 541.07632813 -312.82080078 541.8984375 C-302.70850075 570.46882981 -288.55486481 596.74263819 -269.6640625 620.48046875 C-268.92027344 621.43566406 -268.17648437 622.39085937 -267.41015625 623.375 C-253.21697382 641.22756648 -236.66829202 658.48029027 -218.6640625 672.48046875 C-216.9751404 673.89543971 -215.28769699 675.31217711 -213.6015625 676.73046875 C-200.66725596 687.29133924 -186.80650127 696.6282716 -172.6640625 705.48046875 C-172.0875293 705.84527344 -171.51099609 706.21007812 -170.91699219 706.5859375 C-125.68933012 735.0949969 -74.88958932 755.65551008 -23.6640625 770.48046875 C-22.69645996 770.77179687 -21.72885742 771.063125 -20.73193359 771.36328125 C-19.78527832 771.63914062 -18.83862305 771.915 -17.86328125 772.19921875 C-16.61357544 772.56950195 -16.61357544 772.56950195 -15.33862305 772.94726562 C-9.08898919 774.19319902 -3.79334283 773.21947206 2.1875 771.3203125 C3.29202011 770.98192604 3.29202011 770.98192604 4.41885376 770.63670349 C5.96181559 770.16225219 7.50338734 769.68325809 9.0435791 769.19989014 C11.23164634 768.51319892 13.42316257 767.83904344 15.61621094 767.16845703 C49.7089413 756.69097396 83.19947746 744.02057499 114.95507812 727.69970703 C117.70641102 726.29074923 120.46690551 724.90039276 123.2265625 723.5078125 C135.69123176 717.17195709 147.72138435 710.47589674 159.38916016 702.76611328 C161.08539631 701.64592522 162.79366527 700.54399998 164.50390625 699.4453125 C181.2466372 688.56831074 197.12233127 676.3192164 211.80078125 662.796875 C213.86236803 660.91317552 215.95313816 659.09410167 218.0859375 657.29296875 C227.54628956 649.04198128 236.49707929 639.98847131 244.25 630.1171875 C245.66003538 628.33483941 247.11518496 626.58741367 248.609375 624.875 C279.39447762 589.55681592 305.47388409 537.90956273 305.45898533 490.23352051 C305.4607161 489.2041176 305.4607161 489.2041176 305.46248183 488.15391868 C305.46511657 485.86756144 305.46065243 483.58127544 305.45619202 481.29492188 C305.45662836 479.63397232 305.45750443 477.97302283 305.45878118 476.31207371 C305.4610137 471.75810857 305.45702186 467.20416703 305.45200312 462.6502049 C305.44768097 457.73550751 305.4491463 452.82081143 305.4499054 447.90611267 C305.45042951 439.39442632 305.44729444 430.88274765 305.44166756 422.37106323 C305.43353735 410.06462574 305.43093577 397.75819195 305.42967957 385.45175207 C305.42749144 365.48492245 305.42083783 345.51809693 305.41137695 325.55126953 C305.40219665 306.15641297 305.39511884 286.76155752 305.39086914 267.36669922 C305.39060642 266.17101578 305.39034369 264.97533234 305.39007301 263.74341607 C305.38876796 257.74496858 305.38750426 251.74652108 305.38626111 245.74807358 C305.37589595 195.99220248 305.35828413 146.23633581 305.3359375 96.48046875 C302.50956806 96.16461722 299.68314468 95.84926182 296.85668945 95.53417969 C296.06798714 95.44598969 295.27928482 95.35779968 294.46668243 95.26693726 C289.3148092 94.69310287 284.16091338 94.14682567 279.00390625 93.62109375 C247.40008427 90.35325629 216.28515858 85.51132689 185.3963623 77.98236084 C183.22616816 77.4537304 181.05502552 76.92911703 178.88378906 76.40478516 C134.65683405 65.69793439 91.26006314 52.28571294 49.3359375 34.48046875 C48.69114441 34.20696594 48.04635132 33.93346313 47.38201904 33.65167236 C31.32509729 26.83180485 15.4247679 19.74338753 -0.2277832 12.03515625 C-1.18386475 11.5659375 -2.13994629 11.09671875 -3.125 10.61328125 C-3.95821777 10.19965332 -4.79143555 9.78602539 -5.64990234 9.35986328 C-9.31416281 7.76002495 -11.10346136 9.08025777 -14.53515625 10.796875 Z " fill="#FDFDFD" transform="translate(548.6640625,151.51953125)"/>
<path d="M0 0 C3.0185695 1.37146959 5.2998923 2.96248713 7.765625 5.171875 C8.46236328 5.79513672 9.15910156 6.41839844 9.87695312 7.06054688 C13.19700456 10.09349175 16.4823631 13.16072314 19.75 16.25 C25.49082101 21.65489 31.26513105 27.01719522 37.0859375 32.3359375 C44.95570627 39.53055184 52.77332786 46.7807787 60.5625 54.0625 C66.02748136 59.17108466 71.52199152 64.24500697 77.04296875 69.29296875 C80.18333248 72.1649074 83.31124549 75.05021867 86.4375 77.9375 C87.23921631 78.67734131 87.23921631 78.67734131 88.05712891 79.43212891 C90.88758324 82.04505208 93.71386529 84.66234028 96.53515625 87.28515625 C97.11531494 87.82342041 97.69547363 88.36168457 98.29321289 88.91625977 C99.39657435 89.94007693 100.49871171 90.96521558 101.59936523 91.99194336 C103.95880554 94.17921135 106.32647494 96.25195349 108.875 98.21875 C109.57625 98.8065625 110.2775 99.394375 111 100 C111 100.66 111 101.32 111 102 C38.07 102 -34.86 102 -110 102 C-108.35 100.35 -106.7 98.7 -105 97 C-104.13761719 96.12601562 -103.27523438 95.25203125 -102.38671875 94.3515625 C-101.05060547 93.00191406 -101.05060547 93.00191406 -99.6875 91.625 C-98.36298828 90.28308594 -98.36298828 90.28308594 -97.01171875 88.9140625 C-94.14269975 86.07930336 -91.11085887 83.45245655 -88.0637207 80.81201172 C-84.71599899 77.87260671 -81.48693555 74.81025131 -78.25 71.75 C-72.51185663 66.34763096 -66.74064591 60.98740086 -60.921875 55.671875 C-57.79356015 52.81122345 -54.6763228 49.9389025 -51.5625 47.0625 C-51.02214111 46.56339111 -50.48178223 46.06428223 -49.92504883 45.55004883 C-48.83035108 44.53879388 -47.73570604 43.52748188 -46.64111328 42.51611328 C-43.92822414 40.00985896 -41.21405141 37.50499554 -38.5 35 C-37.41666043 34.00000676 -36.33332709 33.00000676 -35.25 32 C-33.08333333 30 -30.91666667 28 -28.75 26 C-28.21318604 25.50443604 -27.67637207 25.00887207 -27.12329102 24.49829102 C-26.04582918 23.50379812 -24.96819397 22.50949303 -23.89038086 21.51538086 C-21.09072274 18.93267823 -18.29464445 16.34624707 -15.50390625 13.75390625 C-14.92769531 13.21958984 -14.35148438 12.68527344 -13.7578125 12.13476562 C-12.66683197 11.12296916 -11.57690189 10.11003824 -10.48828125 9.09570312 C-7.08483376 5.94225114 -3.58593912 2.94463853 0 0 Z " fill="#FEFEFE" transform="translate(539,364)"/>
<path d="M0 0 C29.04 0 58.08 0 88 0 C107.17827298 40.48746518 107.17827298 40.48746518 115.66015625 58.8203125 C119.5632477 67.23409128 123.53271971 75.61634645 127.5 84 C132.5588211 94.69105738 137.5940634 105.39155892 142.5625 116.125 C147.27688231 126.30865554 152.03081262 136.4728091 156.8125 146.625 C157.14724335 147.33573669 157.48198669 148.04647339 157.82687378 148.77874756 C159.87456699 153.12590809 161.92322455 157.47261371 163.97210693 161.81921387 C168.67003018 171.78636532 173.36478644 181.75500283 178.05126953 191.72753906 C179.71423837 195.2661241 181.37850634 198.80408698 183.04541016 202.34082031 C184.70103348 205.85392167 186.35309707 209.36867607 188.00262451 212.88464355 C188.61973156 214.19846876 189.23807431 215.51171435 189.85772705 216.82434082 C190.70927197 218.62871754 191.55592725 220.43539941 192.40234375 222.2421875 C192.88179443 223.2616748 193.36124512 224.28116211 193.85522461 225.33154297 C194.81616305 227.57147837 195.51025063 229.62101501 196 232 C188.31131097 224.39310553 181.20115896 216.35130238 174.40625 207.94140625 C171.69414351 204.62612023 168.9189422 201.37130323 166.125 198.125 C160.83729591 191.97989834 155.58887908 185.80314126 150.35888672 179.60888672 C148.07453814 176.90427711 145.78710492 174.20227873 143.5 171.5 C142.58331874 170.41667901 141.66665207 169.33334568 140.75 168.25 C140.29625 167.71375 139.8425 167.1775 139.375 166.625 C36.25 44.75 36.25 44.75 34.87524414 43.12524414 C33.95782203 42.04104762 33.04034148 40.95690055 32.12280273 39.87280273 C29.84221456 37.17807689 27.56262185 34.48252188 25.28515625 31.78515625 C19.93250563 25.44820945 14.55619481 19.13255454 9.14672852 12.84399414 C8.2160776 11.76103454 7.28721687 10.67653336 6.36035156 9.59033203 C5.42562509 8.49758108 4.48449484 7.41028551 3.53808594 6.32763672 C0 2.22141822 0 2.22141822 0 0 Z " fill="#FEFEFE" transform="translate(333,471)"/>
<path d="M0 0 C29.04 0 58.08 0 88 0 C86.46887534 3.06224932 85.44819042 4.83850679 83.27734375 7.28515625 C82.74367188 7.89230469 82.21 8.49945313 81.66015625 9.125 C80.80744141 10.0840625 80.80744141 10.0840625 79.9375 11.0625 C78.74749539 12.41691314 77.55869743 13.77238739 76.37109375 15.12890625 C75.79085449 15.79164551 75.21061523 16.45438477 74.61279297 17.13720703 C72.52337528 19.5505066 70.50538675 22.01660672 68.5 24.5 C64.38106834 29.58809206 60.09852666 34.52003823 55.796875 39.453125 C52.63520769 43.08756499 49.53142528 46.75529818 46.5 50.5 C42.38106834 55.58809206 38.09852666 60.52003823 33.796875 65.453125 C30.63520769 69.08756499 27.53142528 72.75529818 24.5 76.5 C20.42242873 81.53348541 16.19494085 86.42333309 11.94189453 91.30810547 C7.0212235 96.96264879 2.17218901 102.67472086 -2.65722656 108.40722656 C-4.93421439 111.10814812 -7.21745794 113.80377244 -9.5 116.5 C-10.41669584 117.58330865 -11.33336253 118.66664196 -12.25 119.75 C-48 162 -48 162 -83.75 204.25 C-84.2042334 204.78689453 -84.6584668 205.32378906 -85.12646484 205.87695312 C-86.03795657 206.95402333 -86.94973779 208.03084862 -87.86181641 209.10742188 C-90.23516208 211.90958314 -92.60246792 214.71655188 -94.9609375 217.53125 C-95.69280273 218.40233398 -95.69280273 218.40233398 -96.43945312 219.29101562 C-97.36452485 220.39229149 -98.28784055 221.49504599 -99.20898438 222.59960938 C-101.99442036 225.91075931 -104.90565026 228.98328628 -108 232 C-106.50289956 227.13050881 -104.52546453 222.66261065 -102.32421875 218.0859375 C-101.96301941 217.32744507 -101.60182007 216.56895264 -101.22967529 215.78747559 C-100.45494927 214.16130735 -99.67870936 212.53585964 -98.90109253 210.91107178 C-96.83829814 206.60040365 -94.78692891 202.28430108 -92.734375 197.96875 C-92.32436752 197.10740448 -91.91436005 196.24605896 -91.4919281 195.35861206 C-88.09567597 188.21782232 -84.75320207 181.05358849 -81.4375 173.875 C-76.15214474 162.4420617 -70.78289683 151.0503731 -65.39520264 139.66540527 C-60.74479107 129.83649547 -56.12579695 119.99472623 -51.5625 110.125 C-46.44157541 99.0513255 -41.23220107 88.02141568 -36 77 C-28.58134743 61.37143374 -21.26825381 45.69942822 -14 30 C-9.38 20.1 -4.76 10.2 0 0 Z " fill="#FEFEFE" transform="translate(659,471)"/>
<path d="M0 0 C36.63 0 73.26 0 111 0 C109.35 1.65 107.7 3.3 106 5 C104.70642578 6.31097656 104.70642578 6.31097656 103.38671875 7.6484375 C102.49597656 8.54820312 101.60523438 9.44796875 100.6875 10.375 C99.80449219 11.26960938 98.92148437 12.16421875 98.01171875 13.0859375 C95.14269975 15.92069664 92.11085887 18.54754345 89.0637207 21.18798828 C85.71600007 24.12739234 82.48691291 27.18972626 79.25 30.25 C73.55893096 35.60874384 67.83096552 40.92029879 62.05859375 46.19140625 C58.51537135 49.43556339 55.00836194 52.71824097 51.5 56 C46.01195492 61.1324992 40.49404746 66.22974298 34.94921875 71.30078125 C31.85610018 74.13170169 28.76976466 76.96977507 25.6875 79.8125 C24.89460571 80.54243164 24.89460571 80.54243164 24.08569336 81.28710938 C21.03168467 84.10408643 17.99934525 86.94203081 14.984375 89.80078125 C14.31059814 90.43717529 13.63682129 91.07356934 12.94262695 91.72924805 C11.63275182 92.96767255 10.32643103 94.20987028 9.02416992 95.45629883 C8.42709229 96.01986084 7.83001465 96.58342285 7.21484375 97.1640625 C6.69011475 97.66373535 6.16538574 98.1634082 5.62475586 98.67822266 C4 100 4 100 0 102 C0 68.34 0 34.68 0 0 Z " fill="#FDFEFE" transform="translate(424,361)"/>
<path d="M0 0 C36.3 0 72.6 0 110 0 C110 33.33 110 66.66 110 101 C106.60854693 99.30427347 105.2059289 98.41745372 102.75 95.8125 C100.36668209 93.29349815 97.86639571 90.98650734 95.25 88.71484375 C91.15353079 85.15805461 87.19172142 81.47662066 83.25 77.75 C77.55893096 72.39125616 71.83096552 67.07970121 66.05859375 61.80859375 C62.51537135 58.56443661 59.00836194 55.28175903 55.5 52 C50.01195492 46.8675008 44.49404746 41.77025702 38.94921875 36.69921875 C35.85610204 33.86830001 32.7694588 31.03055449 29.6875 28.1875 C29.15600342 27.69725342 28.62450684 27.20700684 28.0769043 26.7019043 C25.08326073 23.93651769 22.09966429 21.16079671 19.125 18.375 C18.14732666 17.45944336 18.14732666 17.45944336 17.14990234 16.52539062 C15.85576078 15.31336056 14.5618111 14.10112556 13.26806641 12.88867188 C9.33114425 9.20992554 5.34344901 5.61008334 1.22265625 2.13671875 C0.81917969 1.76160156 0.41570313 1.38648438 0 1 C0 0.67 0 0.34 0 0 Z " fill="#FEFEFE" transform="translate(545,361)"/>
<path d="M0 0 C0.33 0 0.66 0 1 0 C1 33.66 1 67.32 1 102 C-27.71 102 -56.42 102 -86 102 C-84.49214039 98.98428077 -83.50872293 97.22758243 -81.3828125 94.8203125 C-80.86452881 94.22855225 -80.34624512 93.63679199 -79.81225586 93.02709961 C-79.25546143 92.39940674 -78.69866699 91.77171387 -78.125 91.125 C-76.94103136 89.77506829 -75.75744601 88.42480033 -74.57421875 87.07421875 C-73.97528809 86.39278809 -73.37635742 85.71135742 -72.75927734 85.00927734 C-70.12887255 82.00508202 -67.53180027 78.97287008 -64.9375 75.9375 C-63.94532601 74.77863427 -62.9531385 73.6197801 -61.9609375 72.4609375 C-60.97390406 71.3073381 -59.98692483 70.15369232 -59 69 C-52.31098326 61.18069397 -45.60251244 53.37934454 -38.85791016 45.60791016 C-33.71108119 39.67422648 -28.59882664 33.71136351 -23.49267578 27.74267578 C-21.97520879 25.97105665 -20.4548123 24.20199221 -18.93359375 22.43359375 C-17.91396231 21.24748195 -16.89443024 20.06128473 -15.875 18.875 C-15.38273926 18.30241455 -14.89047852 17.7298291 -14.38330078 17.13989258 C-11.9172914 14.26397146 -9.47166559 11.37365995 -7.05859375 8.453125 C-6.59533691 7.89254395 -6.13208008 7.33196289 -5.65478516 6.75439453 C-4.38782497 5.21643668 -3.12540728 3.67473999 -1.86328125 2.1328125 C-1.24839844 1.42898438 -0.63351562 0.72515625 0 0 Z " fill="#FDFDFD" transform="translate(419,365)"/>
<path d="M0 0 C7.39501602 7.39501602 14.17526331 15.15414493 20.75 23.28125 C22.93501569 25.92147729 25.19171391 28.4672972 27.5 31 C31.41891252 35.29991791 35.09170869 39.75919547 38.75 44.28125 C41.64475711 47.77908151 44.69589539 51.11785404 47.75390625 54.47265625 C50.06187598 57.06962393 52.25555863 59.73404013 54.4375 62.4375 C57.51336588 66.24087503 60.68753166 69.90082652 64 73.5 C68.10270302 77.9578056 71.95302974 82.56215839 75.75 87.28125 C78.81343204 90.98289705 82.06487058 94.4966566 85.34765625 98.00390625 C87 100 87 100 87 102 C58.29 102 29.58 102 0 102 C0 68.34 0 34.68 0 0 Z " fill="#FDFDFD" transform="translate(660,365)"/>
<path d="" fill="#2B68BA" transform="translate(0,0)"/>
</svg>
