<?xml version="1.0" encoding="UTF-8"?>
<svg version="1.1" xmlns="http://www.w3.org/2000/svg" width="1080" height="1080">
<path d="M0 0 C0.89605957 0.48057861 1.79211914 0.96115723 2.71533203 1.45629883 C4.26522827 2.27807617 4.26522827 2.27807617 5.84643555 3.11645508 C7.51790649 4.0059082 7.51790649 4.0059082 9.22314453 4.91333008 C79.22930445 41.70848371 155.03671508 68.44437371 335.52539062 92.85620117 C337.84788532 92.85083068 340.17018676 92.85619923 342.49267578 92.86254883 C351.28874075 92.86509024 360.02562632 92.61286217 368.8013916 91.98733521 C370.64822503 91.86363772 372.49827239 91.78960957 374.34814453 91.72583008 C376.07740111 93.45508665 375.47585979 95.68015128 375.48686144 97.98601532 C375.48537781 98.74850397 375.48389419 99.51099262 375.48236561 100.29658699 C375.48471784 101.10295786 375.48707007 101.90932873 375.48949358 102.74013507 C375.49621936 105.47741481 375.49572428 108.21464747 375.49531555 110.95193481 C375.49861204 112.92043566 375.50233715 114.88893582 375.50645703 116.85743511 C375.5165112 122.29492965 375.52019936 127.73241315 375.52284634 133.16991568 C375.52673978 139.02452155 375.53631934 144.8791186 375.5450592 150.73371887 C375.56392301 164.22447503 375.57408843 177.71523189 375.58251988 191.20599797 C375.58672538 197.87701083 375.59194779 204.54802282 375.59720441 211.21903493 C375.61510549 234.06606071 375.63009654 256.91308674 375.6375246 279.76011848 C375.63799936 281.19557299 375.63847525 282.6310275 375.63895227 284.066482 C375.63930683 285.13426192 375.63930683 285.13426192 375.63966856 286.22361315 C375.64086974 289.8301464 375.64208519 293.43667965 375.64331055 297.04321289 C375.6435507 297.75894188 375.64379085 298.47467087 375.64403827 299.21208862 C375.65191646 322.3740356 375.67531199 345.53593112 375.70786649 368.69785566 C375.7422384 393.19777682 375.76188302 417.69766794 375.76516885 442.1976136 C375.76558635 444.89275798 375.76606591 447.58790235 375.76659203 450.28304672 C375.76671522 450.94664487 375.76683841 451.61024303 375.76696533 452.29395021 C375.76914579 462.27778128 375.78247856 472.26155285 375.80163002 482.24536514 C375.82340703 493.62442891 375.83135344 505.00339893 375.82166324 516.38248117 C375.81713762 522.18172386 375.81890263 527.98077341 375.83842468 533.77998924 C375.85619586 539.10554575 375.85494683 544.43077023 375.83952739 549.75633095 C375.83717218 551.6671997 375.84136419 553.5780923 375.85335604 555.48892488 C375.96211568 573.9886752 373.08996393 591.97830619 368.09814453 609.78833008 C367.65317627 611.40118896 367.65317627 611.40118896 367.19921875 613.04663086 C355.8842265 653.08837779 336.52887198 692.33192274 310.34814453 724.72583008 C309.19994955 726.22402309 308.05394565 727.72389913 306.91064453 729.22583008 C295.75521526 743.51627461 283.44635509 756.7060938 270.66064453 769.53833008 C269.76941895 770.43422852 268.87819336 771.33012695 267.95996094 772.25317383 C262.91621563 777.28471577 257.7717074 782.10769506 252.34814453 786.72583008 C251.38392578 787.57145508 250.41970703 788.41708008 249.42626953 789.28833008 C223.04208756 812.02828802 193.59109524 830.61455826 163.34814453 847.72583008 C162.1817041 848.38615234 162.1817041 848.38615234 160.99169922 849.05981445 C156.83222185 851.39303083 152.6173597 853.59977803 148.34814453 855.72583008 C147.58630859 856.10803711 146.82447266 856.49024414 146.03955078 856.8840332 C101.93277828 878.86945833 55.25855543 895.35264868 7.97314453 909.03833008 C7.01883545 909.32224609 6.06452637 909.60616211 5.08129883 909.89868164 C-5.98364688 912.9910507 -14.66717428 911.59679331 -25.58935547 908.41333008 C-27.46433716 907.8791748 -27.46433716 907.8791748 -29.37719727 907.33422852 C-33.47695296 906.15872267 -37.56520624 904.9460094 -41.65185547 903.72583008 C-42.35080933 903.51790833 -43.04976318 903.30998657 -43.76989746 903.09576416 C-99.27005698 886.55571834 -154.54201841 864.73536484 -203.65185547 833.72583008 C-204.40080078 833.25773926 -205.14974609 832.78964844 -205.92138672 832.30737305 C-225.00975067 820.34371587 -243.35406644 807.15658225 -260.65185547 792.72583008 C-262.14458984 791.49606445 -262.14458984 791.49606445 -263.66748047 790.24145508 C-279.30408385 777.27380361 -294.48772477 763.21776438 -307.65185547 747.72583008 C-308.54138511 746.71054643 -309.43211533 745.696314 -310.32373047 744.68286133 C-344.14058785 706.05736411 -369.82373847 660.06880098 -383.52685547 610.53833008 C-383.78893799 609.60384033 -384.05102051 608.66935059 -384.32104492 607.70654297 C-385.01169493 605.07409109 -385.62078667 602.43498541 -386.19911635 599.77596295 C-386.50284553 598.40058989 -386.81860958 597.02782347 -387.14589345 595.65786445 C-392.14160592 574.18004953 -391.20457116 552.19060405 -391.130777 530.28973615 C-391.11541096 524.40664451 -391.12345445 518.52357558 -391.12846375 512.64047241 C-391.13465564 501.15307231 -391.11978604 489.66579377 -391.09773812 478.17841697 C-391.0804529 468.84833127 -391.0720352 459.51827048 -391.07030296 450.18816948 C-391.07017313 449.52313155 -391.0700433 448.85809363 -391.06990953 448.17290304 C-391.06940953 445.47294424 -391.06896958 442.77298544 -391.06860744 440.07302661 C-391.0653142 415.53693838 -391.04304451 391.00090649 -391.00854492 366.46484375 C-390.97599741 343.3059874 -390.95479345 320.14715951 -390.94702148 296.98828125 C-390.94677844 296.27308005 -390.9465354 295.55787885 -390.946285 294.82100488 C-390.94506291 291.2186391 -390.94385961 287.61627331 -390.9426632 284.01390752 C-390.94242693 283.30304364 -390.94219066 282.59217977 -390.94194723 281.85977457 C-390.94147306 280.42632554 -390.9410029 278.99287652 -390.94053677 277.5594275 C-390.93307362 254.76585056 -390.9173025 231.97227884 -390.89933759 209.17870801 C-390.89409748 202.50739218 -390.8891463 195.83607644 -390.88497567 189.16475987 C-390.87611016 175.15094645 -390.86433684 161.13714639 -390.84340964 147.12334514 C-390.834789 141.32876577 -390.82771576 135.53419603 -390.82489395 129.73961067 C-390.82223993 124.4452095 -390.81498813 119.15083613 -390.80390348 113.85644608 C-390.80068048 111.93253062 -390.79916639 110.00861146 -390.79945377 108.08469332 C-390.79957775 105.48769394 -390.79365492 102.89078024 -390.78607655 100.29379368 C-390.78756017 99.53159087 -390.78904379 98.76938807 -390.79057238 97.98408821 C-390.76601991 92.83999452 -390.76601991 92.83999452 -389.65185547 91.72583008 C-386.99748211 91.82390585 -384.36352358 91.98182998 -381.71435547 92.16333008 C-310.91275079 96.23630799 -240.48618377 84.33651729 -172.65185547 64.72583008 C-172.00726379 64.53996338 -171.36267212 64.35409668 -170.69854736 64.16259766 C-135.46417127 53.96738536 -101.02282429 40.92509165 -67.65185547 25.72583008 C-66.45544434 25.1832959 -65.2590332 24.64076172 -64.02636719 24.08178711 C-50.00472869 17.71208937 -36.10883001 11.1005554 -22.35888672 4.16333008 C-21.57465332 3.76887695 -20.79041992 3.37442383 -19.98242188 2.96801758 C-18.37591653 2.11175326 -16.80033677 1.1957341 -15.25488281 0.23364258 C-14.48225098 -0.24331055 -13.70961914 -0.72026367 -12.91357422 -1.21166992 C-12.23641357 -1.65381836 -11.55925293 -2.0959668 -10.86157227 -2.55151367 C-6.85467234 -3.86191294 -3.62239443 -1.74049683 0 0 Z " fill="#8C593A" transform="translate(547.65185546875,85.274169921875)"/>
<path d="M0 0 C0.89605957 0.48057861 1.79211914 0.96115723 2.71533203 1.45629883 C4.26522827 2.27807617 4.26522827 2.27807617 5.84643555 3.11645508 C7.51790649 4.0059082 7.51790649 4.0059082 9.22314453 4.91333008 C79.22930445 41.70848371 155.03671508 68.44437371 335.52539062 92.85620117 C337.84788532 92.85083068 340.17018676 92.85619923 342.49267578 92.86254883 C351.28874075 92.86509024 360.02562632 92.61286217 368.8013916 91.98733521 C370.64822503 91.86363772 372.49827239 91.78960957 374.34814453 91.72583008 C376.07740111 93.45508665 375.47585979 95.68015128 375.48686144 97.98601532 C375.48537781 98.74850397 375.48389419 99.51099262 375.48236561 100.29658699 C375.48471784 101.10295786 375.48707007 101.90932873 375.48949358 102.74013507 C375.49621936 105.47741481 375.49572428 108.21464747 375.49531555 110.95193481 C375.49861204 112.92043566 375.50233715 114.88893582 375.50645703 116.85743511 C375.5165112 122.29492965 375.52019936 127.73241315 375.52284634 133.16991568 C375.52673978 139.02452155 375.53631934 144.8791186 375.5450592 150.73371887 C375.56392301 164.22447503 375.57408843 177.71523189 375.58251988 191.20599797 C375.58672538 197.87701083 375.59194779 204.54802282 375.59720441 211.21903493 C375.61510549 234.06606071 375.63009654 256.91308674 375.6375246 279.76011848 C375.63799936 281.19557299 375.63847525 282.6310275 375.63895227 284.066482 C375.63930683 285.13426192 375.63930683 285.13426192 375.63966856 286.22361315 C375.64086974 289.8301464 375.64208519 293.43667965 375.64331055 297.04321289 C375.6435507 297.75894188 375.64379085 298.47467087 375.64403827 299.21208862 C375.65191646 322.3740356 375.67531199 345.53593112 375.70786649 368.69785566 C375.7422384 393.19777682 375.76188302 417.69766794 375.76516885 442.1976136 C375.76558635 444.89275798 375.76606591 447.58790235 375.76659203 450.28304672 C375.76671522 450.94664487 375.76683841 451.61024303 375.76696533 452.29395021 C375.76914579 462.27778128 375.78247856 472.26155285 375.80163002 482.24536514 C375.82340703 493.62442891 375.83135344 505.00339893 375.82166324 516.38248117 C375.81713762 522.18172386 375.81890263 527.98077341 375.83842468 533.77998924 C375.85619586 539.10554575 375.85494683 544.43077023 375.83952739 549.75633095 C375.83717218 551.6671997 375.84136419 553.5780923 375.85335604 555.48892488 C375.96211568 573.9886752 373.08996393 591.97830619 368.09814453 609.78833008 C367.65317627 611.40118896 367.65317627 611.40118896 367.19921875 613.04663086 C355.8842265 653.08837779 336.52887198 692.33192274 310.34814453 724.72583008 C309.19994955 726.22402309 308.05394565 727.72389913 306.91064453 729.22583008 C295.75521526 743.51627461 283.44635509 756.7060938 270.66064453 769.53833008 C269.76941895 770.43422852 268.87819336 771.33012695 267.95996094 772.25317383 C262.91621563 777.28471577 257.7717074 782.10769506 252.34814453 786.72583008 C251.38392578 787.57145508 250.41970703 788.41708008 249.42626953 789.28833008 C223.04208756 812.02828802 193.59109524 830.61455826 163.34814453 847.72583008 C162.1817041 848.38615234 162.1817041 848.38615234 160.99169922 849.05981445 C156.83222185 851.39303083 152.6173597 853.59977803 148.34814453 855.72583008 C147.58630859 856.10803711 146.82447266 856.49024414 146.03955078 856.8840332 C101.93277828 878.86945833 55.25855543 895.35264868 7.97314453 909.03833008 C7.01883545 909.32224609 6.06452637 909.60616211 5.08129883 909.89868164 C-5.98364688 912.9910507 -14.66717428 911.59679331 -25.58935547 908.41333008 C-27.46433716 907.8791748 -27.46433716 907.8791748 -29.37719727 907.33422852 C-33.47695296 906.15872267 -37.56520624 904.9460094 -41.65185547 903.72583008 C-42.35080933 903.51790833 -43.04976318 903.30998657 -43.76989746 903.09576416 C-99.27005698 886.55571834 -154.54201841 864.73536484 -203.65185547 833.72583008 C-204.40080078 833.25773926 -205.14974609 832.78964844 -205.92138672 832.30737305 C-225.00975067 820.34371587 -243.35406644 807.15658225 -260.65185547 792.72583008 C-262.14458984 791.49606445 -262.14458984 791.49606445 -263.66748047 790.24145508 C-279.30408385 777.27380361 -294.48772477 763.21776438 -307.65185547 747.72583008 C-308.54138511 746.71054643 -309.43211533 745.696314 -310.32373047 744.68286133 C-344.14058785 706.05736411 -369.82373847 660.06880098 -383.52685547 610.53833008 C-383.78893799 609.60384033 -384.05102051 608.66935059 -384.32104492 607.70654297 C-385.01169493 605.07409109 -385.62078667 602.43498541 -386.19911635 599.77596295 C-386.50284553 598.40058989 -386.81860958 597.02782347 -387.14589345 595.65786445 C-392.14160592 574.18004953 -391.20457116 552.19060405 -391.130777 530.28973615 C-391.11541096 524.40664451 -391.12345445 518.52357558 -391.12846375 512.64047241 C-391.13465564 501.15307231 -391.11978604 489.66579377 -391.09773812 478.17841697 C-391.0804529 468.84833127 -391.0720352 459.51827048 -391.07030296 450.18816948 C-391.07017313 449.52313155 -391.0700433 448.85809363 -391.06990953 448.17290304 C-391.06940953 445.47294424 -391.06896958 442.77298544 -391.06860744 440.07302661 C-391.0653142 415.53693838 -391.04304451 391.00090649 -391.00854492 366.46484375 C-390.97599741 343.3059874 -390.95479345 320.14715951 -390.94702148 296.98828125 C-390.94677844 296.27308005 -390.9465354 295.55787885 -390.946285 294.82100488 C-390.94506291 291.2186391 -390.94385961 287.61627331 -390.9426632 284.01390752 C-390.94242693 283.30304364 -390.94219066 282.59217977 -390.94194723 281.85977457 C-390.94147306 280.42632554 -390.9410029 278.99287652 -390.94053677 277.5594275 C-390.93307362 254.76585056 -390.9173025 231.97227884 -390.89933759 209.17870801 C-390.89409748 202.50739218 -390.8891463 195.83607644 -390.88497567 189.16475987 C-390.87611016 175.15094645 -390.86433684 161.13714639 -390.84340964 147.12334514 C-390.834789 141.32876577 -390.82771576 135.53419603 -390.82489395 129.73961067 C-390.82223993 124.4452095 -390.81498813 119.15083613 -390.80390348 113.85644608 C-390.80068048 111.93253062 -390.79916639 110.00861146 -390.79945377 108.08469332 C-390.79957775 105.48769394 -390.79365492 102.89078024 -390.78607655 100.29379368 C-390.78756017 99.53159087 -390.78904379 98.76938807 -390.79057238 97.98408821 C-390.76601991 92.83999452 -390.76601991 92.83999452 -389.65185547 91.72583008 C-386.99748211 91.82390585 -384.36352358 91.98182998 -381.71435547 92.16333008 C-310.91275079 96.23630799 -240.48618377 84.33651729 -172.65185547 64.72583008 C-172.00726379 64.53996338 -171.36267212 64.35409668 -170.69854736 64.16259766 C-135.46417127 53.96738536 -101.02282429 40.92509165 -67.65185547 25.72583008 C-66.45544434 25.1832959 -65.2590332 24.64076172 -64.02636719 24.08178711 C-50.00472869 17.71208937 -36.10883001 11.1005554 -22.35888672 4.16333008 C-21.57465332 3.76887695 -20.79041992 3.37442383 -19.98242188 2.96801758 C-18.37591653 2.11175326 -16.80033677 1.1957341 -15.25488281 0.23364258 C-14.48225098 -0.24331055 -13.70961914 -0.72026367 -12.91357422 -1.21166992 C-12.23641357 -1.65381836 -11.55925293 -2.0959668 -10.86157227 -2.55151367 C-6.85467234 -3.86191294 -3.62239443 -1.74049683 0 0 Z M-13.63232422 64.63989258 C-14.85786011 65.27580322 -14.85786011 65.27580322 -16.1081543 65.92456055 C-17.00945068 66.39522949 -17.91074707 66.86589844 -18.83935547 67.35083008 C-67.07123353 91.93772828 -119.22965298 110.67484562 -171.30810547 125.0715332 C-173.54234982 125.69525975 -175.7694698 126.33945731 -177.99560547 126.99145508 C-202.13257495 134.00092157 -226.89915368 138.51349526 -251.65185547 142.72583008 C-252.32945923 142.84204712 -253.00706299 142.95826416 -253.7052002 143.07800293 C-274.91168152 146.70725308 -296.06940802 148.93322471 -317.53027344 150.41625977 C-320.82735268 150.65221581 -324.11776521 150.94337825 -327.40945435 151.24517822 C-328.39320101 151.33519733 -329.37694767 151.42521645 -330.39050484 151.51796341 C-331.13675055 151.58655941 -331.88299625 151.65515541 -332.65185547 151.72583008 C-332.76649223 204.53396439 -332.85450131 257.34208605 -332.90718212 310.15032049 C-332.91343507 316.3957054 -332.91990674 322.64109007 -332.92651367 328.88647461 C-332.92782522 330.12973151 -332.92913678 331.37298842 -332.93048807 332.65391977 C-332.95219903 352.74082408 -332.99159664 372.82765628 -333.03761945 392.91451792 C-333.08450433 413.55092543 -333.11217622 434.18729537 -333.12229794 454.82375395 C-333.12913222 467.54055694 -333.15065682 480.25715604 -333.1914378 492.97389622 C-333.21802496 501.71387541 -333.22582061 510.45375038 -333.21936236 519.193767 C-333.21618414 524.22383936 -333.22078734 529.25355742 -333.24788284 534.28356552 C-333.35560776 555.32321252 -333.02830489 575.22249064 -327.65185547 595.72583008 C-327.45171581 596.49511864 -327.25157615 597.26440721 -327.04537165 598.05700755 C-325.80979239 602.70558964 -324.33452959 607.22272021 -322.65185547 611.72583008 C-322.31025391 612.64154785 -321.96865234 613.55726563 -321.61669922 614.50073242 C-307.50580309 651.84079441 -287.60792144 684.68229507 -260.33544922 713.85473633 C-258.49273071 715.82620373 -256.67330638 717.80533033 -254.87451172 719.81567383 C-249.14133808 726.20886062 -243.16459731 732.11789752 -236.65185547 737.72583008 C-235.61624293 738.63546711 -234.58111165 739.54565226 -233.54638672 740.45629883 C-172.60868415 793.76896688 -97.36584063 826.83536814 -20.33935547 849.47583008 C-19.5344165 849.71624023 -18.72947754 849.95665039 -17.90014648 850.2043457 C-10.33201161 852.33905376 -4.219892 851.92160471 3.28564453 849.53833008 C3.93082031 849.34174805 4.57599609 849.14516602 5.24072266 848.94262695 C6.69954211 848.49576897 8.15650086 848.04281368 9.61206055 847.58544922 C11.7045592 846.92803084 13.79920321 846.27743726 15.89477539 845.62988281 C80.28103221 825.71358117 142.3791367 798.63995397 196.34814453 757.72583008 C196.9461084 757.27353027 197.54407227 756.82123047 198.16015625 756.35522461 C205.58281363 750.7116009 212.63771482 744.81401477 219.43408203 738.42895508 C221.65951147 736.3646157 223.90764584 734.3651517 226.20361328 732.38208008 C230.39012359 728.73397677 234.36227249 724.90398555 238.28564453 720.97583008 C238.98512207 720.27554688 239.68459961 719.57526367 240.40527344 718.85375977 C244.99386582 714.21083299 249.25760272 709.48013098 253.28955078 704.34301758 C255.50512677 701.52625114 257.82759457 698.82087885 260.16064453 696.10083008 C270.09713883 684.17395105 278.76725208 671.26336375 286.34814453 657.72583008 C286.77981934 656.95819336 287.21149414 656.19055664 287.65625 655.3996582 C297.06352442 638.50196259 304.10052529 620.94475155 310.16064453 602.60083008 C310.42651367 601.81651611 310.69238281 601.03220215 310.96630859 600.22412109 C311.85980105 597.41186763 312.60471684 594.58187027 313.34814453 591.72583008 C313.68336498 590.48865895 314.01858543 589.25148783 314.36396408 587.97682667 C318.74580315 569.90220382 317.89135212 551.3278804 317.81240702 532.86493933 C317.79496259 527.73847252 317.8009906 522.61202286 317.80401611 517.48553467 C317.80610284 508.62644262 317.79366523 499.76746938 317.77106476 490.90840721 C317.7384107 478.10006793 317.7281241 465.29178548 317.72311279 452.48340908 C317.71438106 431.69740301 317.68782334 410.9114601 317.64990234 390.12548828 C317.61312714 369.94645501 317.5848424 349.76743897 317.56787109 329.58837891 C317.5668202 328.34234495 317.56576931 327.096311 317.56468657 325.81251844 C317.55946602 319.56087602 317.55441128 313.30923347 317.54943895 307.05759084 C317.50804306 255.28029363 317.43765277 203.50306495 317.34814453 151.72583008 C313.24945735 151.01701365 309.29026228 150.54953942 305.13330078 150.36645508 C277.19361372 148.97268852 249.26603013 146.01004287 221.8671875 140.23950195 C219.07670081 139.6704785 216.27929017 139.15564203 213.47705078 138.64770508 C187.41470936 133.89143403 161.63761053 127.6272707 136.34814453 119.72583008 C135.65738831 119.51140259 134.96663208 119.2969751 134.25494385 119.0760498 C109.20256637 111.29645161 84.63737089 102.63561743 60.34814453 92.72583008 C59.13964844 92.2334082 57.93115234 91.74098633 56.68603516 91.23364258 C38.70045051 83.85598633 21.0340931 75.77950795 3.48876953 67.41333008 C2.78582764 67.07978516 2.08288574 66.74624023 1.35864258 66.40258789 C-0.42765491 65.55275893 -2.20988868 64.6944019 -3.99169922 63.83520508 C-7.98316505 62.17062902 -9.97040183 62.70159845 -13.63232422 64.63989258 Z " fill="#69442C" transform="translate(547.65185546875,85.274169921875)"/>
<path d="M0 0 C3.96632509 0.79326502 6.25965863 1.4496162 9.7265625 3.1953125 C10.65758789 3.65623291 11.58861328 4.11715332 12.54785156 4.59204102 C13.56331055 5.09791748 14.57876953 5.60379395 15.625 6.125 C47.81270142 21.83794534 81.15188041 34.67149183 115 46.3125 C115.84274475 46.6035965 116.6854895 46.89469299 117.55377197 47.1946106 C137.87936059 54.19623171 158.52490637 59.79379227 179.375 65 C180.41737823 65.26079346 181.45975647 65.52158691 182.53372192 65.7902832 C199.93689008 70.12949504 217.32116184 73.95571874 235 77 C236.03318359 77.1846582 237.06636719 77.36931641 238.13085938 77.55957031 C251.50716521 79.94359399 264.94073512 81.66394525 278.4375 83.1875 C279.55153702 83.31478485 279.55153702 83.31478485 280.68807983 83.44464111 C288.96668359 84.38184154 297.22590257 85.1204105 305.54711914 85.55200195 C306.77564983 85.61791409 306.77564983 85.61791409 308.02899933 85.68515778 C310.01924765 85.79170931 312.00961215 85.89608739 314 86 C314.09170938 136.7868604 314.16211666 187.57371238 314.20426132 238.36063942 C314.20926368 244.36697264 314.21444102 250.3733057 314.21972656 256.37963867 C314.2207758 257.57530805 314.22182505 258.77097743 314.22290608 260.00287921 C314.24027485 279.32092964 314.27179295 298.63893208 314.30861118 317.95695411 C314.34611906 337.80347963 314.3682566 357.64998015 314.37635398 377.49653965 C314.38182139 389.72657078 314.39904115 401.95646623 314.43166587 414.18645556 C314.45293553 422.5918924 314.45917211 430.99725989 314.45400551 439.40272164 C314.45146295 444.24022311 314.45514567 449.0774888 314.4768219 453.91494751 C314.65409003 495.59095621 307.74630999 531.93220905 288 569 C287.62117676 569.71897461 287.24235352 570.43794922 286.85205078 571.17871094 C276.53518148 590.66284346 263.9661177 608.56574236 249.0234375 624.79296875 C247.25551137 626.72130517 245.56153954 628.68847978 243.875 630.6875 C235.6743158 640.09812121 226.57563194 648.99894616 217 657 C215.66388672 658.16982422 215.66388672 658.16982422 214.30078125 659.36328125 C188.83655159 681.54802679 159.79716489 699.30494494 130 715 C128.96149902 715.55059082 127.92299805 716.10118164 126.85302734 716.66845703 C99.64713728 730.99746514 71.0485288 742.00094349 42 752 C40.96246582 752.35819824 39.92493164 752.71639648 38.85595703 753.08544922 C7.0926245 764 7.0926245 764 0 764 C-0.21052632 742.28571318 -0.3690884 720.57159537 -0.46630955 698.85649395 C-0.51265727 688.77304086 -0.57581057 678.69022301 -0.67895508 668.60717773 C-0.76884524 659.81561734 -0.82676747 651.02451711 -0.84679645 642.23250991 C-0.85849931 637.57974209 -0.88587133 632.92829034 -0.95157051 628.27594566 C-1.01300124 623.89001976 -1.03143753 619.50594229 -1.01796913 615.119627 C-1.02043018 613.51642533 -1.03813466 611.91315711 -1.07284927 610.31032944 C-1.27167385 600.65040922 -0.22748125 594.50506943 6.7627573 587.17951679 C7.50104739 586.46027625 8.23933748 585.74103571 9 585 C10.05285012 583.78525185 11.09570026 582.56154989 12.1171875 581.3203125 C13.03527505 580.25418821 13.9545406 579.18907718 14.875 578.125 C15.90399871 576.92999126 16.93263644 575.73467162 17.9609375 574.5390625 C18.72229004 573.65395996 18.72229004 573.65395996 19.49902344 572.75097656 C21.84659998 570.01239182 24.17382326 567.25676332 26.5 564.5 C30.35040199 559.93686994 34.23043929 555.40047831 38.125 550.875 C41.61819482 546.8137519 45.06448551 542.72481221 48.4375 538.5625 C52.58060991 533.45692535 56.8823045 528.50199947 61.20288086 523.54711914 C64.36465838 519.91262149 67.46850206 516.24479157 70.5 512.5 C74.61893166 507.41190794 78.90147334 502.47996177 83.203125 497.546875 C86.36479231 493.91243501 89.46857472 490.24470182 92.5 486.5 C96.61893166 481.41190794 100.90147334 476.47996177 105.203125 471.546875 C108.36479231 467.91243501 111.46857472 464.24470182 114.5 460.5 C118.57627949 455.4681092 122.80283898 450.58021699 127.05371094 445.69628906 C133.94762278 437.77211368 140.75765971 429.78237585 147.375 421.625 C151.50066038 416.55633153 155.76674927 411.62077957 160.05761719 406.69238281 C164.97854497 401.03775817 169.82766343 395.32545429 174.65722656 389.59277344 C176.93421439 386.89185188 179.21745794 384.19622756 181.5 381.5 C182.41669584 380.41669135 183.33336253 379.33335804 184.25 378.25 C189.75 371.74999999 189.75 371.74999999 191.12646484 370.12329102 C192.03827791 369.04567902 192.95006202 367.96804251 193.86181641 366.89038086 C196.22749974 364.09430398 198.59376475 361.29872234 200.9609375 358.50390625 C201.44884766 357.92769531 201.93675781 357.35148437 202.43945312 356.7578125 C203.36244064 355.6678082 204.28560323 354.57795211 205.20898438 353.48828125 C206.4744017 351.99366353 207.73722004 350.49684665 209 349 C209.4837207 348.4932373 209.96744141 347.98647461 210.46582031 347.46435547 C212.58982279 345.16981799 213.95655841 343.69289328 214.15625 340.5078125 C212.5543264 337.03337009 210.15453289 334.56188059 207.5 331.875 C206.39723447 330.72244378 205.29700012 329.56746076 204.19921875 328.41015625 C203.38203369 327.54994873 203.38203369 327.54994873 202.54833984 326.67236328 C199.57514174 323.46100929 196.88345734 320.0233676 194.14453125 316.61328125 C192.00125044 314.00152377 189.7761967 311.49634698 187.5 309 C184.40444804 305.60401318 181.44848793 302.13828469 178.5625 298.5625 C175.48663412 294.75912497 172.31246834 291.09917348 169 287.5 C164.88621091 283.0301488 161.02912703 278.40955107 157.21484375 273.68359375 C155.04367173 271.05291443 152.79758643 268.52057576 150.5 266 C147.40444804 262.60401318 144.44848793 259.13828469 141.5625 255.5625 C137.73804099 250.83031599 133.71405706 246.33789929 129.5546875 241.8984375 C127 239 127 239 125.63447475 236.78734684 C123.34737386 233.26129327 121.54814821 230.50627604 117.44717598 229.16517448 C114.33025434 228.85242293 111.32183819 228.82088415 108.18969727 228.88647461 C106.99939124 228.87547761 105.80908522 228.86448061 104.58270931 228.85315037 C100.74275069 228.82780687 96.9061992 228.86382228 93.06640625 228.90234375 C90.69069971 228.89569906 88.31500091 228.88501993 85.93933105 228.87023926 C77.14706526 228.84378082 68.35470457 228.89534896 59.5625 228.9375 C39.906875 228.958125 20.25125 228.97875 0 229 C0 153.43 0 77.86 0 0 Z " fill="#6A442B" transform="translate(540,161)"/>
<path d="M0 0 C74.58 0 149.16 0 226 0 C225.28681256 3.56593718 224.83660869 5.70446067 223.34863281 8.79516602 C222.84032425 9.86194328 222.84032425 9.86194328 222.32174683 10.95027161 C221.95260162 11.71047104 221.58345642 12.47067047 221.203125 13.25390625 C220.62584152 14.46049141 220.62584152 14.46049141 220.03689575 15.69145203 C219.2100287 17.41830937 218.38065041 19.14396608 217.54901123 20.86853027 C215.35239546 25.42400775 213.17387841 29.98814275 210.9921875 34.55078125 C210.55778351 35.45782806 210.12337952 36.36487488 209.67581177 37.29940796 C206.18618618 44.59089969 202.7613106 51.90988061 199.375 59.25 C194.47313351 69.86047883 189.49967596 80.4353449 184.5 91 C179.46081942 101.64888699 174.4464621 112.30764758 169.5 123 C164.19245466 134.47287578 158.80339488 145.90574605 153.39648438 157.33203125 C148.20870979 168.29730968 143.06834089 179.2826118 137.97729492 190.29321289 C134.84251627 197.06192001 131.67761204 203.8154443 128.48828125 210.55859375 C128.10078705 211.37792389 127.71329285 212.19725403 127.3140564 213.04141235 C125.39816346 217.0906925 123.47976931 221.13877054 121.55859375 225.18554688 C120.85805632 226.66405464 120.15753472 228.1425699 119.45703125 229.62109375 C119.13680496 230.29377792 118.81657867 230.9664621 118.48664856 231.65953064 C116.87389666 235.06636132 115.35289583 238.48145964 114 242 C113.34 242 112.68 242 112 242 C103.2356945 223.55101115 94.47721476 205.10097749 85.90551758 186.56152344 C81.48685391 177.01726504 76.99873277 167.50671851 72.5 158 C66.91264215 146.19195969 61.36761772 134.36632224 55.88061523 122.51123047 C51.64378599 113.36545531 47.35962174 104.24256911 43.0625 95.125 C37.73592176 83.82299104 32.4307168 72.51146619 27.15484619 61.18569946 C23.69958466 53.7693672 20.23208528 46.35897568 16.74609375 38.95703125 C16.3866568 38.19381561 16.02721985 37.43059998 15.65689087 36.64425659 C13.91127496 32.93863537 12.16438707 29.23361874 10.41601562 25.52929688 C8.6042255 21.68920625 6.80169662 17.84483624 5 14 C4.22100342 12.35523682 4.22100342 12.35523682 3.42626953 10.67724609 C2.96720215 9.69449707 2.50813477 8.71174805 2.03515625 7.69921875 C1.43973022 6.43404419 1.43973022 6.43404419 0.83227539 5.14331055 C0 3 0 3 0 0 Z " fill="#FEFEFE" transform="translate(427,505)"/>
<path d="M0 0 C1.10754639 0.52142578 2.21509277 1.04285156 3.35620117 1.58007812 C5.14054565 2.42795898 5.14054565 2.42795898 6.9609375 3.29296875 C9.51007803 4.49049188 12.061681 5.68272851 14.61328125 6.875 C15.26180557 7.17850372 15.9103299 7.48200745 16.57850647 7.79470825 C85.31293536 39.93715096 158.13037495 64.3784719 233.23510742 75.98339844 C236.09768141 76.44227574 238.94393698 76.95254365 241.79296875 77.48828125 C248.3415075 78.69631026 254.92231921 79.61097908 261.5234375 80.48046875 C262.18036591 80.56728912 262.83729431 80.6541095 263.51412964 80.74356079 C275.64984812 82.32712961 287.78354501 83.24720364 300.00268555 83.88476562 C301.26894775 83.95115234 302.53520996 84.01753906 303.83984375 84.0859375 C304.95174072 84.13903076 306.0636377 84.19212402 307.20922852 84.24682617 C310.3021979 84.47794757 313.28179432 84.95187887 316.3359375 85.48046875 C316.45056069 138.43301902 316.53857648 191.38555668 316.59126415 244.33820676 C316.59751715 250.59990172 316.60398881 256.86159643 316.6105957 263.12329102 C316.61190726 264.36980084 316.61321881 265.61631067 316.6145701 266.90059353 C316.63628426 287.04313875 316.67568367 307.18561211 316.72170148 327.3281148 C316.76857738 348.0198881 316.79625637 368.71162395 316.80637997 389.40344816 C316.81321609 402.15556964 316.8347509 414.90748792 316.87551983 427.6595468 C316.90209586 436.42241236 316.90990511 445.18517397 316.90344439 453.94807684 C316.90026447 458.99220173 316.90488943 464.03597335 316.93196487 469.08003426 C317.06580863 495.31665204 315.6963931 519.35976575 306.5859375 544.29296875 C305.93806274 546.11139282 305.93806274 546.11139282 305.27709961 547.96655273 C287.52208808 596.96077848 255.49573369 642.10390109 215.3359375 675.48046875 C214.44777344 676.23457031 213.55960938 676.98867188 212.64453125 677.765625 C163.564291 719.16707929 106.03379903 747.7666201 45.84082031 769.22998047 C42.62446805 770.37752549 39.41347938 771.53893635 36.203125 772.703125 C26.17644768 776.30429748 16.07962334 779.55007411 5.8359375 782.48046875 C4.26815552 782.93534668 4.26815552 782.93534668 2.66870117 783.39941406 C-6.8020016 786.03261444 -13.53631106 785.56085988 -22.8515625 782.73046875 C-23.87475586 782.42463867 -24.89794922 782.11880859 -25.95214844 781.80371094 C-77.36509535 766.21261804 -127.74865207 746.69089692 -173.6640625 718.48046875 C-174.43733887 718.00609375 -175.21061523 717.53171875 -176.00732422 717.04296875 C-186.51046017 710.57042439 -196.77399855 703.85867617 -206.6640625 696.48046875 C-207.20724121 696.07618652 -207.75041992 695.6719043 -208.31005859 695.25537109 C-220.08092696 686.45077552 -231.19452425 676.95382157 -241.96484375 666.95703125 C-244.15757853 664.94517329 -246.38327939 663.01474286 -248.6640625 661.10546875 C-254.47629355 656.04978843 -259.54732668 650.22322218 -264.6640625 644.48046875 C-265.16486328 643.91908203 -265.66566406 643.35769531 -266.18164062 642.77929688 C-291.51292408 614.2114218 -310.91336385 581.51350075 -323.6640625 545.48046875 C-323.91978027 544.78018555 -324.17549805 544.07990234 -324.43896484 543.35839844 C-326.09265422 538.7921558 -327.43029834 534.17348692 -328.6640625 529.48046875 C-328.87536596 528.67768911 -329.08666941 527.87490946 -329.30437601 527.04780316 C-334.47422119 506.45696882 -334.35792083 486.19953864 -334.24439061 465.12379289 C-334.22250589 460.01309385 -334.23012551 454.90241982 -334.23390198 449.79168701 C-334.23650553 440.96757721 -334.22101044 432.14365432 -334.19271278 423.31959152 C-334.15182774 410.56199767 -334.13903017 397.80449287 -334.13277283 385.04684062 C-334.12186857 364.34123464 -334.08870012 343.63572795 -334.04125977 322.93017578 C-333.99526351 302.83382662 -333.95992104 282.73750456 -333.9387207 262.64111328 C-333.93740709 261.39937994 -333.93609347 260.1576466 -333.93474004 258.87828498 C-333.92821418 252.64797986 -333.9218958 246.41767455 -333.91568053 240.18736911 C-333.86396818 188.61833376 -333.7760092 137.04940613 -333.6640625 85.48046875 C-329.01537853 85.0688674 -324.36665994 84.65765992 -319.71791077 84.24679565 C-318.14101756 84.1073739 -316.56413338 83.96785007 -314.98725891 83.82821655 C-298.96052798 82.40916819 -298.96052798 82.40916819 -291.27189636 81.78952026 C-248.4093903 78.15463751 -204.46519955 69.20809109 -163.47021484 56.35498047 C-160.31676658 55.37223715 -157.15681677 54.41220703 -153.99609375 53.453125 C-112.24623338 40.73068595 -70.73323692 25.83004297 -31.51953125 6.515625 C-30.85190765 6.1877449 -30.18428406 5.85986481 -29.49642944 5.52204895 C-26.28187648 3.93967321 -23.07793601 2.34007164 -19.88769531 0.70922852 C-18.18178223 -0.14264038 -18.18178223 -0.14264038 -16.44140625 -1.01171875 C-14.94468384 -1.77524658 -14.94468384 -1.77524658 -13.41772461 -2.55419922 C-8.34154109 -4.33372131 -4.65282743 -2.20953555 0 0 Z M-14.53515625 10.796875 C-15.56624512 11.30621582 -16.59733398 11.81555664 -17.65966797 12.34033203 C-18.79549316 12.90220215 -19.93131836 13.46407227 -21.1015625 14.04296875 C-46.9669297 26.69056491 -73.59043192 37.69961254 -100.6640625 47.48046875 C-101.42583801 47.75630798 -102.18761353 48.03214722 -102.97247314 48.31634521 C-122.61586259 55.42102372 -142.2317885 62.44184083 -162.47680664 67.65649414 C-164.94258923 68.2939523 -167.40440893 68.94234637 -169.86499023 69.59936523 C-200.15022148 77.6714032 -230.59398994 84.61718341 -261.61315918 89.17834473 C-263.62847132 89.47522572 -265.64289197 89.77762002 -267.65722656 90.08105469 C-271.46969685 90.64866575 -275.28444085 91.19509602 -279.1015625 91.73046875 C-280.67611206 91.95742432 -280.67611206 91.95742432 -282.2824707 92.18896484 C-291.05386358 93.35427036 -299.84613609 93.94229203 -308.67211914 94.53417969 C-310.03221821 94.62647823 -311.39230792 94.71891486 -312.752388 94.81149292 C-316.0561902 95.03583958 -319.36008027 95.25879178 -322.6640625 95.48046875 C-322.75577188 146.26732915 -322.82617916 197.05418113 -322.86832382 247.84110817 C-322.87332618 253.84744139 -322.87850352 259.85377445 -322.88378906 265.86010742 C-322.8848383 267.0557768 -322.88588755 268.25144618 -322.88696858 269.48334796 C-322.90433735 288.80139839 -322.93585545 308.11940083 -322.97267368 327.43742286 C-323.01018156 347.28394838 -323.0323191 367.1304489 -323.04041648 386.9770084 C-323.04588389 399.20703953 -323.06310365 411.43693498 -323.09572837 423.66692431 C-323.11699803 432.07236115 -323.12323461 440.47772864 -323.11806801 448.88319039 C-323.11552545 453.72069186 -323.11920817 458.55795755 -323.1408844 463.39541626 C-323.25177573 489.44895252 -322.4055154 514.62753698 -313.6640625 539.48046875 C-313.38046875 540.2890332 -313.096875 541.09759766 -312.8046875 541.93066406 C-298.61072384 581.79104295 -276.06898694 616.17882489 -246.6640625 646.48046875 C-245.97199707 647.19444824 -245.27993164 647.90842773 -244.56689453 648.64404297 C-237.10406862 656.30743755 -229.67627999 663.86441532 -221.23828125 670.4609375 C-218.46814998 672.63416643 -215.82701873 674.92747074 -213.1640625 677.23046875 C-205.82688467 683.35905828 -197.92319038 688.62659145 -189.97998047 693.93164062 C-187.85905366 695.35006353 -185.74644048 696.77983142 -183.63671875 698.21484375 C-135.13155774 731.09671379 -79.80828699 754.23201102 -23.6640625 770.48046875 C-22.69645996 770.77179687 -21.72885742 771.063125 -20.73193359 771.36328125 C-19.78527832 771.63914062 -18.83862305 771.915 -17.86328125 772.19921875 C-16.61357544 772.56950195 -16.61357544 772.56950195 -15.33862305 772.94726562 C-9.08898919 774.19319902 -3.79334283 773.21947206 2.1875 771.3203125 C3.29202011 770.98192604 3.29202011 770.98192604 4.41885376 770.63670349 C5.96181559 770.16225219 7.50338734 769.68325809 9.0435791 769.19989014 C11.23164634 768.51319892 13.42316257 767.83904344 15.61621094 767.16845703 C38.67477923 760.08202669 61.09673891 751.81239035 83.3359375 742.48046875 C84.2527832 742.09971191 85.16962891 741.71895508 86.11425781 741.32666016 C108.1974007 732.10779524 129.95879057 721.00754224 150.3359375 708.48046875 C151.2115332 707.94599121 152.08712891 707.41151367 152.98925781 706.86083984 C164.99030587 699.50028099 176.4302574 691.70506983 187.45898438 682.95605469 C189.2391991 681.55652063 191.03831144 680.1883759 192.8515625 678.83203125 C199.46038692 673.87927098 205.63155489 668.62819493 211.6484375 662.984375 C213.77511517 661.00297909 215.92711181 659.10231863 218.1484375 657.23046875 C227.59377742 649.0102566 236.51716725 639.96289462 244.25 630.1171875 C245.66003538 628.33483941 247.11518496 626.58741367 248.609375 624.875 C260.79816905 610.89141588 270.72582946 594.87671122 279.3359375 578.48046875 C279.85728271 577.49336914 279.85728271 577.49336914 280.38916016 576.48632812 C285.01660541 567.66199677 289.11649648 558.72499937 292.61376953 549.39013672 C293.34197788 547.46449583 294.10178092 545.5533091 294.86328125 543.640625 C301.30485897 526.97623281 305.4645666 508.12263185 305.45898533 490.21790314 C305.46013917 489.52994616 305.46129302 488.84198919 305.46248183 488.13318503 C305.46511668 485.84108445 305.46065234 483.54905492 305.45619202 481.25695801 C305.45662836 479.59188365 305.45750443 477.92680936 305.45878118 476.26173544 C305.46101375 471.69636875 305.45702179 467.1310256 305.45200312 462.56566191 C305.44768104 457.63869446 305.4491463 452.71172833 305.4499054 447.78475952 C305.45042951 439.25179226 305.4472944 430.71883265 305.44166756 422.18586731 C305.43353741 409.84866073 305.43093578 397.51145784 305.42967957 385.17424887 C305.42749143 365.15750497 305.4208378 345.14076513 305.41137695 325.12402344 C305.40219667 305.68066427 305.39511885 286.23730621 305.39086914 266.79394531 C305.39060642 265.59527488 305.39034369 264.39660444 305.39007301 263.16161066 C305.38876796 257.1481791 305.38750426 251.13474753 305.38626111 245.12131596 C305.37589592 195.24103074 305.35828408 145.36074994 305.3359375 95.48046875 C304.17992271 95.39661659 304.17992271 95.39661659 303.00055408 95.31107044 C299.46683243 95.05405595 295.93324566 94.79522967 292.3996582 94.53637695 C291.18745857 94.44848152 289.97525894 94.36058609 288.72632599 94.27002716 C279.62966084 93.60178211 270.57954538 92.76483185 261.5234375 91.66796875 C260.82390961 91.58398834 260.12438171 91.50000793 259.40365601 91.41348267 C233.71628538 88.31072709 208.48343077 83.5460642 183.3359375 77.48046875 C182.60598572 77.30475342 181.87603394 77.12903809 181.1239624 76.94799805 C136.1303276 66.09834902 91.98217422 52.59239468 49.3359375 34.48046875 C48.69114441 34.20696594 48.04635132 33.93346313 47.38201904 33.65167236 C31.32509729 26.83180485 15.4247679 19.74338753 -0.2277832 12.03515625 C-1.18386475 11.5659375 -2.13994629 11.09671875 -3.125 10.61328125 C-3.95821777 10.19965332 -4.79143555 9.78602539 -5.64990234 9.35986328 C-9.31416281 7.76002495 -11.10346136 9.08025777 -14.53515625 10.796875 Z " fill="#FCFCFB" transform="translate(548.6640625,151.51953125)"/>
<path d="M0 0 C4.00905464 1.63438679 6.8465398 4.44002698 9.9375 7.375 C11.10534368 8.46888355 12.27331592 9.56262984 13.44140625 10.65625 C14.03453613 11.21441406 14.62766602 11.77257812 15.23876953 12.34765625 C17.93343409 14.87572524 20.65525119 17.37398986 23.375 19.875 C28.12213818 24.25169676 32.84595186 28.65287517 37.5625 33.0625 C43.02745856 38.17110874 48.52199183 43.24500725 54.04296875 48.29296875 C58.83137494 52.67208212 63.59297075 57.08033323 68.35888672 61.48388672 C71.07177586 63.99014104 73.78594859 66.49500446 76.5 69 C77.58333957 69.99999324 78.66667291 70.99999324 79.75 72 C80.28625 72.495 80.8225 72.99 81.375 73.5 C83 75 84.625 76.5 86.25 78 C86.78705566 78.49564453 87.32411133 78.99128906 87.87744141 79.50195312 C88.95303677 80.49500958 90.02823684 81.48849437 91.10302734 82.48242188 C93.92654179 85.09243645 96.75797297 87.69310934 99.6015625 90.28125 C100.48618164 91.08949219 100.48618164 91.08949219 101.38867188 91.9140625 C102.51504929 92.94287966 103.64381902 93.96908607 104.77539062 94.9921875 C107.56058271 97.54146571 109.71133209 99.94844278 112 103 C38.41 103 -35.18 103 -111 103 C-109.35 101.35 -107.7 99.7 -106 98 C-105.28199219 97.27039063 -104.56398438 96.54078125 -103.82421875 95.7890625 C-102.76654297 94.71785156 -102.76654297 94.71785156 -101.6875 93.625 C-100.99011719 92.91601562 -100.29273438 92.20703125 -99.57421875 91.4765625 C-96.82722702 88.83378139 -93.97642866 86.3456792 -91.09887695 83.84716797 C-87.74212528 80.8929766 -84.49898232 77.82164052 -81.25 74.75 C-75.51185663 69.34763096 -69.74064591 63.98740086 -63.921875 58.671875 C-60.79356015 55.81122345 -57.6763228 52.9389025 -54.5625 50.0625 C-54.02214111 49.56339111 -53.48178223 49.06428223 -52.92504883 48.55004883 C-51.83035108 47.53879388 -50.73570604 46.52748188 -49.64111328 45.51611328 C-46.92822414 43.00985896 -44.21405141 40.50499554 -41.5 38 C-40.41666043 37.00000676 -39.33332709 36.00000676 -38.25 35 C-36.08333333 33 -33.91666667 31 -31.75 29 C-31.21342773 28.50467773 -30.67685547 28.00935547 -30.12402344 27.49902344 C-29.04404521 26.50217041 -27.96396757 25.50542507 -26.88378906 24.50878906 C-24.12328469 21.96152824 -21.364698 19.41224029 -18.609375 16.859375 C-12.46564017 11.1707645 -6.29071674 5.52672789 0 0 Z " fill="#FEFDFD" transform="translate(539,397)"/>
<path d="M0 0 C29.04 0 58.08 0 88 0 C92.66404976 9.32809953 97.31247301 18.62823286 101.73046875 28.0703125 C102.04935059 28.75125977 102.36823242 29.43220703 102.69677734 30.13378906 C103.02371582 30.83213867 103.3506543 31.53048828 103.6875 32.25 C104.38791174 33.74223871 105.08843475 35.2344252 105.7890625 36.7265625 C110.57915943 46.93522234 115.33194473 57.16097667 120.07177734 67.39306641 C124.28714666 76.48531757 128.54241241 85.5583422 132.8125 94.625 C133.14682037 95.33489075 133.48114075 96.04478149 133.82559204 96.77618408 C136.21601599 101.85128221 138.60785276 106.92571396 141 112 C143.73012579 117.79121509 146.45960996 123.5827314 149.1875 129.375 C149.52239441 130.08603882 149.85728882 130.79707764 150.20233154 131.52966309 C154.6446747 140.9641058 159.05655678 150.41186102 163.4375 159.875 C168.12608108 170.00147877 172.86428563 180.10356767 177.63095093 190.19348145 C178.73619688 192.53327891 179.84042805 194.87355334 180.94458008 197.21386719 C183.97648533 203.63569692 187.01522733 210.05301718 190.1171875 216.44140625 C190.55192383 217.34109131 190.98666016 218.24077637 191.43457031 219.16772461 C192.20048081 220.7487109 192.97276757 222.32663235 193.75292969 223.90063477 C194.56157721 225.57288054 195.29144456 227.28294847 196 229 C195.67 229.66 195.34 230.32 195 231 C189.64350391 225.16230568 184.4984133 219.20957728 179.515625 213.05078125 C176.57075051 209.47943501 173.54283024 205.98785513 170.5 202.5 C166.76584832 198.21793708 163.07540896 193.91668165 159.5 189.5 C155.42242873 184.46651459 151.19494085 179.57666691 146.94189453 174.69189453 C142.0212235 169.03735121 137.17218901 163.32527914 132.34277344 157.59277344 C130.06578561 154.89185188 127.78254206 152.19622756 125.5 149.5 C124.58330416 148.41669135 123.66663747 147.33335804 122.75 146.25 C122.29625 145.71375 121.8425 145.1775 121.375 144.625 C90.66666667 108.33333333 59.95833333 72.04166667 29.25 35.75 C28.79616943 35.21366943 28.34233887 34.67733887 27.87475586 34.12475586 C26.95884461 33.04228572 26.04299167 31.95976625 25.12719727 30.87719727 C22.82445016 28.15524784 20.52067062 25.43418493 18.21484375 22.71484375 C15.47251024 19.47997619 12.73520415 16.24089661 10 13 C9.52014648 12.4323291 9.04029297 11.8646582 8.54589844 11.27978516 C7.13208114 9.60542829 5.72179427 7.92816447 4.3125 6.25 C3.48363281 5.26515625 2.65476562 4.2803125 1.80078125 3.265625 C0 1 0 1 0 0 Z " fill="#FEFDFD" transform="translate(333,505)"/>
<path d="M0 0 C0.81926971 0.00359528 1.63853943 0.00719055 2.4826355 0.01089478 C3.34109573 0.01074875 4.19955597 0.01060272 5.08403015 0.01045227 C7.93559249 0.0111517 10.78709036 0.01894547 13.63864136 0.02676392 C15.61019353 0.02862799 17.58174615 0.03005194 19.55329895 0.03105164 C24.75324778 0.03487765 29.95316886 0.04470865 35.15310669 0.05575562 C40.45492172 0.06596794 45.75674121 0.07054887 51.05856323 0.07559204 C61.46938274 0.08633084 71.88018162 0.10340826 82.29098511 0.12442017 C81.35732155 1.38227197 80.42181586 2.63875651 79.48556519 3.89468384 C78.96480911 4.59453903 78.44405304 5.29439423 77.90751648 6.01545715 C75.40487321 9.28046158 72.70025975 12.3544284 69.97848511 15.43692017 C66.17822487 19.77884645 62.41986852 24.13694697 58.79098511 28.62442017 C54.71341384 33.65790558 50.48592596 38.54775326 46.23287964 43.43252563 C41.31220861 49.08706896 36.46317412 54.79914103 31.63375854 60.53164673 C29.35677072 63.23256829 27.07352717 65.9281926 24.79098511 68.62442017 C23.87428927 69.70772881 22.95762258 70.79106213 22.04098511 71.87442017 C-9.12568156 108.7077535 -40.29234823 145.54108683 -71.45901489 182.37442017 C-72.13951904 183.17867432 -72.13951904 183.17867432 -72.83377075 183.99917603 C-73.75119286 185.08337254 -74.66867341 186.16751962 -75.58621216 187.25161743 C-77.86680033 189.94634327 -80.14639304 192.64189829 -82.42385864 195.33926392 C-87.70176899 201.58747591 -93.00886583 207.80886468 -98.34695435 214.00576782 C-102.31868349 218.63151836 -106.16639333 223.34475758 -109.96682739 228.11270142 C-111.70901489 230.12442017 -111.70901489 230.12442017 -113.70901489 231.12442017 C-112.1797219 226.12125057 -110.11382935 221.54142492 -107.84963989 216.84317017 C-107.46893341 216.04566345 -107.08822693 215.24815674 -106.69598389 214.42648315 C-105.87871076 212.7151825 -105.05990716 211.00461207 -104.23971558 209.29470825 C-102.0633911 204.75702557 -99.89861075 200.21383723 -97.73245239 195.67129517 C-97.29889435 194.76284851 -96.8653363 193.85440186 -96.41864014 192.91842651 C-92.76460735 185.25663043 -89.16168763 177.5721101 -85.58401489 169.87442017 C-80.47887054 158.89659838 -75.3243458 147.94312599 -70.14651489 136.99942017 C-64.60300251 125.28170193 -59.10462292 113.54513007 -53.66189575 101.78018188 C-49.22586537 92.2052749 -44.72238832 82.66305343 -40.20901489 73.12442017 C-32.09361889 55.97014817 -24.05987567 38.77958745 -16.13987732 21.5340271 C-15.29016501 19.68386715 -14.43971823 17.83404629 -13.58914185 15.98428345 C-12.52437491 13.66721537 -11.4616225 11.3492202 -10.40115356 9.03018188 C-9.93040405 8.00553833 -9.45965454 6.98089478 -8.97463989 5.92520142 C-8.55988403 5.01939331 -8.14512817 4.11358521 -7.71780396 3.18032837 C-5.8369718 -0.65280027 -4.10551438 0.00760791 0 0 Z " fill="#FEFDFD" transform="translate(664.7090148925781,504.8755798339844)"/>
<path d="M0 0 C36.63 0 73.26 0 111 0 C111 33.99 111 67.98 111 103 C101.78837182 95.1043187 92.8685128 86.96572715 84.03222656 78.65722656 C79.02743529 73.95390036 73.98423468 69.29691525 68.9140625 64.6640625 C61.04429373 57.46944816 53.22667214 50.2192213 45.4375 42.9375 C39.97251864 37.82891534 34.47800848 32.75499303 28.95703125 27.70703125 C25.2776473 24.34214556 21.61403276 20.96022229 17.95385742 17.57446289 C15.07355008 14.91060236 12.1866011 12.2544937 9.2890625 9.609375 C8.68634521 9.05757568 8.08362793 8.50577637 7.46264648 7.93725586 C6.29747328 6.87079627 5.13037719 5.80643299 3.96118164 4.74438477 C2.62196473 3.51647508 1.30810355 2.26100326 0 1 C0 0.67 0 0.34 0 0 Z " fill="#FCFBFB" transform="translate(545,394)"/>
<path d="M0 0 C36.63 0 73.26 0 111 0 C104.28276601 7.83677298 104.28276601 7.83677298 101.109375 10.484375 C97.03682541 13.95358391 93.13693171 17.57517916 89.25 21.25 C83.55893096 26.60874384 77.83096552 31.92029879 72.05859375 37.19140625 C68.51537135 40.43556339 65.00836194 43.71824097 61.5 47 C56.01195492 52.1324992 50.49404746 57.22974298 44.94921875 62.30078125 C37.71621572 68.92065554 30.51646928 75.57612283 23.35351562 82.27172852 C20.84514808 84.61613166 18.33373637 86.95726192 15.82226562 89.29833984 C14.61354239 90.42706451 13.40649117 91.55758253 12.20117188 92.68994141 C10.53401334 94.25604592 8.86139552 95.81610298 7.1875 97.375 C6.23230469 98.26960938 5.27710938 99.16421875 4.29296875 100.0859375 C2 102 2 102 0 102 C0 68.34 0 34.68 0 0 Z " fill="#FDFCFB" transform="translate(424,394)"/>
<path d="M0 0 C0.33 0 0.66 0 1 0 C1 33.33 1 66.66 1 101 C-27.71 101 -56.42 101 -86 101 C-84.18929768 97.37859536 -82.65071878 95.34212751 -79.9375 92.4375 C-76.68892508 88.89831774 -73.57531784 85.30439832 -70.5625 81.5625 C-66.70291397 76.79003797 -62.62800009 72.26890891 -58.47265625 67.75390625 C-55.25290481 64.16792716 -52.24094824 60.43298508 -49.21484375 56.68359375 C-46.33519113 53.19449084 -43.29306124 49.87003079 -40.24609375 46.52734375 C-37.93812402 43.93037607 -35.74444137 41.26595987 -33.5625 38.5625 C-29.70174863 33.788597 -25.62562925 29.26611572 -21.46875 24.75 C-19.05621896 22.06262366 -16.7674379 19.31034556 -14.5 16.5 C-9.89575172 10.80224276 -5.11557447 5.24752381 0 0 Z " fill="#FDFCFC" transform="translate(419,399)"/>
<path d="M0 0 C4.22106099 3.51755082 7.05843633 6.03872203 10.3125 10.1875 C13.27681702 13.89662029 16.29683973 17.49497123 19.5 21 C22.59555196 24.39598682 25.55151207 27.86171531 28.4375 31.4375 C31.51336588 35.24087503 34.68753166 38.90082652 38 42.5 C42.11378909 46.9698512 45.97087297 51.59044893 49.78515625 56.31640625 C51.95632827 58.94708557 54.20241357 61.47942424 56.5 64 C59.59555196 67.39598682 62.55151207 70.86171531 65.4375 74.4375 C70.0730344 80.16517602 75.0174211 85.57488942 80 91 C81.38160715 92.51483356 82.75741481 94.03499557 84.125 95.5625 C84.68445313 96.18253906 85.24390625 96.80257812 85.8203125 97.44140625 C87 99 87 99 87 101 C58.29 101 29.58 101 0 101 C0 67.67 0 34.34 0 0 Z " fill="#FDFCFC" transform="translate(660,399)"/>
</svg>
