<?xml version="1.0" encoding="UTF-8"?>
<svg version="1.1" xmlns="http://www.w3.org/2000/svg" width="1080" height="1080">
<path d="M0 0 C0.9278833 0.50378174 1.8557666 1.00756348 2.81176758 1.52661133 C3.87089355 2.0912207 4.93001953 2.65583008 6.02124023 3.23754883 C7.15480957 3.85500977 8.28837891 4.4724707 9.45629883 5.10864258 C11.90183826 6.41119886 14.35297686 7.70307457 16.80395508 8.99536133 C17.74014679 9.49089005 17.74014679 9.49089005 18.69525146 9.99642944 C61.91396244 32.82506462 108.41563605 51.08330285 155.26879883 64.92114258 C156.05540894 65.15361694 156.84201904 65.38609131 157.65246582 65.62561035 C195.17176499 76.66155974 233.38116058 85.405048 272.26879883 89.92114258 C273.48470703 90.06245605 274.70061523 90.20376953 275.95336914 90.34936523 C296.41921917 92.67823782 316.66889842 94.1013922 337.26489258 94.05151367 C339.89906526 94.04613182 342.5330686 94.05151276 345.16723633 94.05786133 C354.61607684 94.06028552 363.96716631 93.79235918 373.38745117 93.0378418 C374.3382959 92.99933105 375.28914062 92.96082031 376.26879883 92.92114258 C377.99575322 94.64809697 377.39650099 96.86572229 377.40751573 99.16864499 C377.40603211 99.92924345 377.40454849 100.68984191 377.40301991 101.47348881 C377.40537214 102.2778717 377.40772437 103.0822546 377.41014788 103.91101274 C377.41687364 106.64153979 377.41637858 109.37201965 377.41596985 112.10255432 C377.41926635 114.06621767 377.42299145 116.02988034 377.42711133 117.99354213 C377.43716552 123.41770449 377.44085366 128.84185578 377.44350064 134.26602614 C377.4473941 140.10633609 377.45697369 145.9466372 377.4657135 151.78694153 C377.48457771 165.24518138 377.49474299 178.70342117 377.50317418 192.16167107 C377.5078013 199.48406752 377.51366327 206.80646294 377.51943016 214.12885857 C377.53653884 236.25672637 377.55096834 258.38459398 377.5581789 280.51246738 C377.55865366 281.9446702 377.55912955 283.37687301 377.55960656 284.80907583 C377.55996113 285.87443502 377.55996113 285.87443502 377.56032285 286.96131662 C377.56152403 290.55966031 377.56273949 294.15800398 377.56396484 297.75634766 C377.56420499 298.47045105 377.56444514 299.18455443 377.56469257 299.92029732 C377.57256978 323.02675277 377.59596302 346.13315663 377.62852079 369.23958959 C377.66289829 393.68235177 377.68253785 418.12508382 377.68582314 442.56787056 C377.68624065 445.25713505 377.68672021 447.94639952 377.68724632 450.63566399 C377.68736951 451.29781156 377.68749271 451.95995914 377.68761963 452.6421718 C377.68979953 462.60152037 377.70312884 472.56081432 377.72228432 482.52014351 C377.74406882 493.87282833 377.75200412 505.22541915 377.74231753 516.5781225 C377.73779399 522.36331242 377.73954456 528.14830873 377.75907898 533.93347168 C377.90138817 578.51605755 377.90138817 578.51605755 373.26879883 597.92114258 C372.9778125 599.2390158 372.68866252 600.55729656 372.40181446 601.8760767 C371.73104773 604.8584012 370.9695718 607.79082805 370.14379883 610.73364258 C369.84723389 611.80090576 369.55066895 612.86816895 369.24511719 613.96777344 C360.06582217 646.04963205 346.0039377 677.26027278 327.26879883 704.92114258 C326.75333496 705.68297852 326.23787109 706.44481445 325.70678711 707.22973633 C322.31913742 712.1950356 318.83556881 717.08312312 315.26879883 721.92114258 C314.84002441 722.50299316 314.41125 723.08484375 313.96948242 723.68432617 C301.63690616 740.29938112 287.66729388 755.58514887 273.08129883 770.23364258 C272.33283691 770.98677734 271.584375 771.73991211 270.81323242 772.51586914 C266.1265683 777.18908664 261.296081 781.61845509 256.26879883 785.92114258 C255.13929192 786.9061313 254.01036026 787.89178016 252.88208008 788.87817383 C231.69492022 807.26045164 208.56669629 823.56139577 184.34448242 837.70532227 C182.93010239 838.53378764 181.51908692 839.3680177 180.11108398 840.20727539 C126.40852428 872.2037454 67.38878329 893.79461508 7.39379883 910.67114258 C6.5573584 910.91147217 5.72091797 911.15180176 4.85913086 911.39941406 C-4.98516465 914.06295854 -12.66357906 912.50579557 -22.35620117 909.85864258 C-23.29693985 909.60429947 -23.29693985 909.60429947 -24.25668335 909.34481812 C-56.38648207 900.61385674 -88.05133435 889.85069161 -118.73120117 876.92114258 C-120.46128418 876.19362793 -120.46128418 876.19362793 -122.22631836 875.45141602 C-170.5855687 854.92822197 -217.99546029 829.03027669 -257.80151367 794.44848633 C-260.68865505 791.9578457 -263.63406784 789.55932017 -266.60620117 787.17114258 C-270.31716602 784.15296278 -273.74676465 781.02750812 -277.06713867 777.58911133 C-278.82153861 775.83059308 -280.65553682 774.22223323 -282.54370117 772.60864258 C-289.53130238 766.56897177 -295.98347185 759.97141128 -301.97729492 752.94848633 C-303.19345296 751.54272681 -304.43796619 750.16119525 -305.70385742 748.80004883 C-312.9840288 740.96494606 -319.34618749 732.48541721 -325.73120117 723.92114258 C-326.27856934 723.19330566 -326.8259375 722.46546875 -327.38989258 721.71557617 C-347.0631303 695.49044245 -362.39724551 666.66631106 -373.73120117 635.92114258 C-374.03106934 635.11660645 -374.3309375 634.31207031 -374.63989258 633.4831543 C-378.01803534 624.30709259 -380.59002554 614.97725201 -382.91870117 605.48364258 C-383.15685547 604.52006836 -383.39500977 603.55649414 -383.64038086 602.5637207 C-387.5138679 586.14622023 -389.17559595 570.25551004 -389.09196472 553.41365051 C-389.0932764 551.41734704 -389.09590944 549.42104408 -389.09973222 547.42474383 C-389.10637805 541.99484827 -389.0945268 536.5651333 -389.07939804 531.1352607 C-389.06635582 525.25892125 -389.07083288 519.38259072 -389.07310486 513.50624084 C-389.07467245 503.34354584 -389.06531721 493.18090893 -389.04839134 483.01822853 C-389.03066706 472.36918613 -389.01908354 461.72016818 -389.0158329 451.07111168 C-389.01552357 450.07490108 -389.01552357 450.07490108 -389.015208 449.05856501 C-389.01419288 445.68521369 -389.01328877 442.31186234 -389.01242737 438.93851098 C-389.00613974 415.09554757 -388.98596584 391.25261438 -388.95751953 367.40966797 C-388.92993037 344.25830241 -388.90869714 321.10694513 -388.89599609 297.95556641 C-388.89560152 297.24091857 -388.89520694 296.52627073 -388.8948004 295.78996689 C-388.89084456 288.61264776 -388.88701716 281.43532857 -388.88328382 274.25800933 C-388.87567684 259.6392655 -388.86721309 245.02052222 -388.85823059 230.40177917 C-388.85781872 229.729753 -388.85740685 229.05772683 -388.8569825 228.36533622 C-388.8294184 183.55059234 -388.78182455 138.73586565 -388.73120117 93.92114258 C-385.3023718 92.97578334 -382.719776 92.97778946 -379.16479492 93.34692383 C-370.37353541 94.1075999 -361.61146065 94.11991195 -352.79370117 94.10864258 C-351.91648407 94.10803833 -351.03926697 94.10743408 -350.13546753 94.10681152 C-264.15619194 93.94717063 -179.60977647 72.56611306 -14.53613281 1.76367188 C-13.84898193 1.38509033 -13.16183105 1.00650879 -12.45385742 0.61645508 C-11.87385986 0.28661621 -11.2938623 -0.04322266 -10.69628906 -0.38305664 C-6.88571778 -1.73230849 -3.72624776 -1.47191283 0 0 Z " fill="#640578" transform="translate(545.731201171875,84.078857421875)"/>
<path d="M0 0 C0.9278833 0.50378174 1.8557666 1.00756348 2.81176758 1.52661133 C3.87089355 2.0912207 4.93001953 2.65583008 6.02124023 3.23754883 C7.15480957 3.85500977 8.28837891 4.4724707 9.45629883 5.10864258 C11.90183826 6.41119886 14.35297686 7.70307457 16.80395508 8.99536133 C17.74014679 9.49089005 17.74014679 9.49089005 18.69525146 9.99642944 C61.91396244 32.82506462 108.41563605 51.08330285 155.26879883 64.92114258 C156.05540894 65.15361694 156.84201904 65.38609131 157.65246582 65.62561035 C195.17176499 76.66155974 233.38116058 85.405048 272.26879883 89.92114258 C273.48470703 90.06245605 274.70061523 90.20376953 275.95336914 90.34936523 C296.41921917 92.67823782 316.66889842 94.1013922 337.26489258 94.05151367 C339.89906526 94.04613182 342.5330686 94.05151276 345.16723633 94.05786133 C354.61607684 94.06028552 363.96716631 93.79235918 373.38745117 93.0378418 C374.3382959 92.99933105 375.28914062 92.96082031 376.26879883 92.92114258 C377.99575322 94.64809697 377.39650099 96.86572229 377.40751573 99.16864499 C377.40603211 99.92924345 377.40454849 100.68984191 377.40301991 101.47348881 C377.40537214 102.2778717 377.40772437 103.0822546 377.41014788 103.91101274 C377.41687364 106.64153979 377.41637858 109.37201965 377.41596985 112.10255432 C377.41926635 114.06621767 377.42299145 116.02988034 377.42711133 117.99354213 C377.43716552 123.41770449 377.44085366 128.84185578 377.44350064 134.26602614 C377.4473941 140.10633609 377.45697369 145.9466372 377.4657135 151.78694153 C377.48457771 165.24518138 377.49474299 178.70342117 377.50317418 192.16167107 C377.5078013 199.48406752 377.51366327 206.80646294 377.51943016 214.12885857 C377.53653884 236.25672637 377.55096834 258.38459398 377.5581789 280.51246738 C377.55865366 281.9446702 377.55912955 283.37687301 377.55960656 284.80907583 C377.55996113 285.87443502 377.55996113 285.87443502 377.56032285 286.96131662 C377.56152403 290.55966031 377.56273949 294.15800398 377.56396484 297.75634766 C377.56420499 298.47045105 377.56444514 299.18455443 377.56469257 299.92029732 C377.57256978 323.02675277 377.59596302 346.13315663 377.62852079 369.23958959 C377.66289829 393.68235177 377.68253785 418.12508382 377.68582314 442.56787056 C377.68624065 445.25713505 377.68672021 447.94639952 377.68724632 450.63566399 C377.68736951 451.29781156 377.68749271 451.95995914 377.68761963 452.6421718 C377.68979953 462.60152037 377.70312884 472.56081432 377.72228432 482.52014351 C377.74406882 493.87282833 377.75200412 505.22541915 377.74231753 516.5781225 C377.73779399 522.36331242 377.73954456 528.14830873 377.75907898 533.93347168 C377.90138817 578.51605755 377.90138817 578.51605755 373.26879883 597.92114258 C372.9778125 599.2390158 372.68866252 600.55729656 372.40181446 601.8760767 C371.73104773 604.8584012 370.9695718 607.79082805 370.14379883 610.73364258 C369.84723389 611.80090576 369.55066895 612.86816895 369.24511719 613.96777344 C360.06582217 646.04963205 346.0039377 677.26027278 327.26879883 704.92114258 C326.75333496 705.68297852 326.23787109 706.44481445 325.70678711 707.22973633 C322.31913742 712.1950356 318.83556881 717.08312312 315.26879883 721.92114258 C314.84002441 722.50299316 314.41125 723.08484375 313.96948242 723.68432617 C301.63690616 740.29938112 287.66729388 755.58514887 273.08129883 770.23364258 C272.33283691 770.98677734 271.584375 771.73991211 270.81323242 772.51586914 C266.1265683 777.18908664 261.296081 781.61845509 256.26879883 785.92114258 C255.13929192 786.9061313 254.01036026 787.89178016 252.88208008 788.87817383 C231.69492022 807.26045164 208.56669629 823.56139577 184.34448242 837.70532227 C182.93010239 838.53378764 181.51908692 839.3680177 180.11108398 840.20727539 C126.40852428 872.2037454 67.38878329 893.79461508 7.39379883 910.67114258 C6.5573584 910.91147217 5.72091797 911.15180176 4.85913086 911.39941406 C-4.98516465 914.06295854 -12.66357906 912.50579557 -22.35620117 909.85864258 C-23.29693985 909.60429947 -23.29693985 909.60429947 -24.25668335 909.34481812 C-56.38648207 900.61385674 -88.05133435 889.85069161 -118.73120117 876.92114258 C-120.46128418 876.19362793 -120.46128418 876.19362793 -122.22631836 875.45141602 C-170.5855687 854.92822197 -217.99546029 829.03027669 -257.80151367 794.44848633 C-260.68865505 791.9578457 -263.63406784 789.55932017 -266.60620117 787.17114258 C-270.31716602 784.15296278 -273.74676465 781.02750812 -277.06713867 777.58911133 C-278.82153861 775.83059308 -280.65553682 774.22223323 -282.54370117 772.60864258 C-289.53130238 766.56897177 -295.98347185 759.97141128 -301.97729492 752.94848633 C-303.19345296 751.54272681 -304.43796619 750.16119525 -305.70385742 748.80004883 C-312.9840288 740.96494606 -319.34618749 732.48541721 -325.73120117 723.92114258 C-326.27856934 723.19330566 -326.8259375 722.46546875 -327.38989258 721.71557617 C-347.0631303 695.49044245 -362.39724551 666.66631106 -373.73120117 635.92114258 C-374.03106934 635.11660645 -374.3309375 634.31207031 -374.63989258 633.4831543 C-378.01803534 624.30709259 -380.59002554 614.97725201 -382.91870117 605.48364258 C-383.15685547 604.52006836 -383.39500977 603.55649414 -383.64038086 602.5637207 C-387.5138679 586.14622023 -389.17559595 570.25551004 -389.09196472 553.41365051 C-389.0932764 551.41734704 -389.09590944 549.42104408 -389.09973222 547.42474383 C-389.10637805 541.99484827 -389.0945268 536.5651333 -389.07939804 531.1352607 C-389.06635582 525.25892125 -389.07083288 519.38259072 -389.07310486 513.50624084 C-389.07467245 503.34354584 -389.06531721 493.18090893 -389.04839134 483.01822853 C-389.03066706 472.36918613 -389.01908354 461.72016818 -389.0158329 451.07111168 C-389.01552357 450.07490108 -389.01552357 450.07490108 -389.015208 449.05856501 C-389.01419288 445.68521369 -389.01328877 442.31186234 -389.01242737 438.93851098 C-389.00613974 415.09554757 -388.98596584 391.25261438 -388.95751953 367.40966797 C-388.92993037 344.25830241 -388.90869714 321.10694513 -388.89599609 297.95556641 C-388.89560152 297.24091857 -388.89520694 296.52627073 -388.8948004 295.78996689 C-388.89084456 288.61264776 -388.88701716 281.43532857 -388.88328382 274.25800933 C-388.87567684 259.6392655 -388.86721309 245.02052222 -388.85823059 230.40177917 C-388.85781872 229.729753 -388.85740685 229.05772683 -388.8569825 228.36533622 C-388.8294184 183.55059234 -388.78182455 138.73586565 -388.73120117 93.92114258 C-385.3023718 92.97578334 -382.719776 92.97778946 -379.16479492 93.34692383 C-370.37353541 94.1075999 -361.61146065 94.11991195 -352.79370117 94.10864258 C-351.91648407 94.10803833 -351.03926697 94.10743408 -350.13546753 94.10681152 C-264.15619194 93.94717063 -179.60977647 72.56611306 -14.53613281 1.76367188 C-13.84898193 1.38509033 -13.16183105 1.00650879 -12.45385742 0.61645508 C-11.87385986 0.28661621 -11.2938623 -0.04322266 -10.69628906 -0.38305664 C-6.88571778 -1.73230849 -3.72624776 -1.47191283 0 0 Z M-11.71166992 65.83520508 C-12.93720581 66.47111572 -12.93720581 66.47111572 -14.1875 67.11987305 C-15.08879639 67.59054199 -15.99009277 68.06121094 -16.91870117 68.54614258 C-50.85585362 85.84609742 -86.76059476 99.51868411 -122.73120117 111.92114258 C-124.58986816 112.565271 -124.58986816 112.565271 -126.48608398 113.22241211 C-141.97417507 118.57737198 -157.496075 123.39645166 -173.4128418 127.33032227 C-176.4626697 128.10755305 -179.46938069 129.0086945 -182.48120117 129.92114258 C-204.46195927 136.26124205 -227.20017957 140.08688612 -249.73120117 143.92114258 C-250.40880493 144.03735962 -251.08640869 144.15357666 -251.7845459 144.27331543 C-272.99102722 147.90256558 -294.14875372 150.12853721 -315.60961914 151.61157227 C-318.90669838 151.84752831 -322.19711092 152.13869075 -325.48880005 152.44049072 C-326.47254671 152.53050983 -327.45629337 152.62052895 -328.46985054 152.71327591 C-329.21609625 152.78187191 -329.96234196 152.85046791 -330.73120117 152.92114258 C-330.84583794 205.72927689 -330.93384701 258.53739855 -330.98652782 311.34563299 C-330.99278078 317.5910179 -330.99925244 323.83640257 -331.00585938 330.08178711 C-331.00717093 331.32504401 -331.00848248 332.56830092 -331.00983378 333.84923227 C-331.03154473 353.93613658 -331.07094234 374.02296878 -331.11696515 394.10983042 C-331.16385003 414.74623793 -331.19152192 435.38260787 -331.20164365 456.01906645 C-331.20847792 468.73586944 -331.23000253 481.45246854 -331.27078351 494.16920872 C-331.29737066 502.90918791 -331.30516631 511.64906288 -331.29870806 520.3890795 C-331.29552984 525.41915186 -331.30013304 530.44886992 -331.32722855 535.47887802 C-331.43495347 556.51852502 -331.1076506 576.41780314 -325.73120117 596.92114258 C-325.53106151 597.69043114 -325.33092185 598.45971971 -325.12471735 599.25232005 C-323.88913809 603.90090214 -322.41387529 608.41803271 -320.73120117 612.92114258 C-320.38959961 613.83686035 -320.04799805 614.75257813 -319.69604492 615.69604492 C-305.5851488 653.03610691 -285.68726714 685.87760757 -258.41479492 715.05004883 C-256.57207641 717.02151623 -254.75265209 719.00064283 -252.95385742 721.01098633 C-247.22068379 727.40417312 -241.24394301 733.31321002 -234.73120117 738.92114258 C-233.69558863 739.83077961 -232.66045736 740.74096476 -231.62573242 741.65161133 C-170.68802985 794.96427938 -95.44518633 828.03068064 -18.41870117 850.67114258 C-17.61376221 850.91155273 -16.80882324 851.15196289 -15.97949219 851.3996582 C-8.41135732 853.53436626 -2.29923771 853.11691721 5.20629883 850.73364258 C5.85147461 850.53706055 6.49665039 850.34047852 7.16137695 850.13793945 C8.62019641 849.69108147 10.07715515 849.23812618 11.53271484 848.78076172 C13.6252135 848.12334334 15.71985751 847.47274976 17.81542969 846.82519531 C82.20168651 826.90889367 144.29979099 799.83526647 198.26879883 758.92114258 C198.8667627 758.46884277 199.46472656 758.01654297 200.08081055 757.55053711 C207.50346793 751.9069134 214.55836911 746.00932727 221.35473633 739.62426758 C223.58016577 737.5599282 225.82830013 735.5604642 228.12426758 733.57739258 C232.31077789 729.92928927 236.28292679 726.09929805 240.20629883 722.17114258 C240.90577637 721.47085938 241.60525391 720.77057617 242.32592773 720.04907227 C246.91452012 715.40614549 251.17825702 710.67544348 255.21020508 705.53833008 C257.42578106 702.72156364 259.74824887 700.01619135 262.08129883 697.29614258 C272.01779313 685.36926355 280.68790637 672.45867625 288.26879883 658.92114258 C288.70047363 658.15350586 289.13214844 657.38586914 289.5769043 656.5949707 C298.98417871 639.69727509 306.02117958 622.14006405 312.08129883 603.79614258 C312.34716797 603.01182861 312.61303711 602.22751465 312.88696289 601.41943359 C313.78045535 598.60718013 314.52537114 595.77718277 315.26879883 592.92114258 C315.60401928 591.68397145 315.93923973 590.44680033 316.28461838 589.17213917 C320.66645745 571.09751632 319.81200641 552.5231929 319.73306131 534.06025183 C319.71561689 528.93378502 319.7216449 523.80733536 319.72467041 518.68084717 C319.72675714 509.82175512 319.71431952 500.96278188 319.69171906 492.10371971 C319.65906499 479.29538043 319.64877839 466.48709798 319.64376709 453.67872158 C319.63503536 432.89271551 319.60847764 412.1067726 319.57055664 391.32080078 C319.53378143 371.14176751 319.5054967 350.96275147 319.48852539 330.78369141 C319.4874745 329.53765745 319.4864236 328.2916235 319.48534086 327.00783094 C319.48012032 320.75618852 319.47506558 314.50454597 319.47009325 308.25290334 C319.42869736 256.47560613 319.35830707 204.69837745 319.26879883 152.92114258 C315.17011164 152.21232615 311.21091657 151.74485192 307.05395508 151.56176758 C279.11426802 150.16800102 251.18668442 147.20535537 223.7878418 141.43481445 C220.99735511 140.865791 218.19994446 140.35095453 215.39770508 139.84301758 C189.33536365 135.08674653 163.55826483 128.8225832 138.26879883 120.92114258 C137.5780426 120.70671509 136.88728638 120.4922876 136.17559814 120.2713623 C111.12322067 112.49176411 86.55802519 103.83092993 62.26879883 93.92114258 C61.06030273 93.4287207 59.85180664 92.93629883 58.60668945 92.42895508 C40.62110481 85.05129883 22.9547474 76.97482045 5.40942383 68.60864258 C4.70648193 68.27509766 4.00354004 67.94155273 3.27929688 67.59790039 C1.49299939 66.74807143 -0.28923438 65.8897144 -2.07104492 65.03051758 C-6.06251075 63.36594152 -8.04974753 63.89691095 -11.71166992 65.83520508 Z " fill="#470356" transform="translate(545.731201171875,84.078857421875)"/>
<path d="M0 0 C3.96632509 0.79326502 6.25965863 1.4496162 9.7265625 3.1953125 C10.65758789 3.65623291 11.58861328 4.11715332 12.54785156 4.59204102 C13.56331055 5.09791748 14.57876953 5.60379395 15.625 6.125 C47.81270142 21.83794534 81.15188041 34.67149183 115 46.3125 C115.84274475 46.6035965 116.6854895 46.89469299 117.55377197 47.1946106 C137.87936059 54.19623171 158.52490637 59.79379227 179.375 65 C180.41737823 65.26079346 181.45975647 65.52158691 182.53372192 65.7902832 C199.93689008 70.12949504 217.32116184 73.95571874 235 77 C236.03318359 77.1846582 237.06636719 77.36931641 238.13085938 77.55957031 C251.50716521 79.94359399 264.94073512 81.66394525 278.4375 83.1875 C279.55153702 83.31478485 279.55153702 83.31478485 280.68807983 83.44464111 C288.96668359 84.38184154 297.22590257 85.1204105 305.54711914 85.55200195 C306.77564983 85.61791409 306.77564983 85.61791409 308.02899933 85.68515778 C310.01924765 85.79170931 312.00961215 85.89608739 314 86 C314.09170938 136.7868604 314.16211666 187.57371238 314.20426132 238.36063942 C314.20926368 244.36697264 314.21444102 250.3733057 314.21972656 256.37963867 C314.2207758 257.57530805 314.22182505 258.77097743 314.22290608 260.00287921 C314.24027485 279.32092964 314.27179295 298.63893208 314.30861118 317.95695411 C314.34611906 337.80347963 314.3682566 357.64998015 314.37635398 377.49653965 C314.38182139 389.72657078 314.39904115 401.95646623 314.43166587 414.18645556 C314.45293553 422.5918924 314.45917211 430.99725989 314.45400551 439.40272164 C314.45146295 444.24022311 314.45514567 449.0774888 314.4768219 453.91494751 C314.58771747 479.96947963 313.73919057 505.14567553 305 530 C304.71108887 530.8245166 304.42217773 531.6490332 304.12451172 532.49853516 C300.11919295 543.7620652 295.58151287 554.59212621 289.97363281 565.14990234 C289.02695006 566.94878949 288.11540846 568.76162139 287.2109375 570.58203125 C277.26340372 590.30813288 263.96662074 608.56519608 249.0234375 624.79296875 C247.25551137 626.72130517 245.56153954 628.68847978 243.875 630.6875 C235.6743158 640.09812121 226.57563194 648.99894616 217 657 C215.66388672 658.16982422 215.66388672 658.16982422 214.30078125 659.36328125 C188.83655159 681.54802679 159.79716489 699.30494494 130 715 C128.96149902 715.55059082 127.92299805 716.10118164 126.85302734 716.66845703 C99.64713728 730.99746514 71.0485288 742.00094349 42 752 C40.96246582 752.35819824 39.92493164 752.71639648 38.85595703 753.08544922 C7.0926245 764 7.0926245 764 0 764 C-0.23379658 737.85267457 -0.41003916 711.70550622 -0.51812172 685.55734539 C-0.56964467 673.41572273 -0.6398647 661.27475022 -0.75439453 649.13354492 C-0.85419332 638.54890224 -0.918612 627.96473049 -0.94088495 617.37963039 C-0.95390122 611.77669608 -0.98440088 606.17510878 -1.05730057 600.57260704 C-1.12543038 595.2936643 -1.14606626 590.01661672 -1.13107681 584.73727608 C-1.13381684 582.80511023 -1.1535629 580.87287779 -1.19205475 578.94109344 C-1.50234169 562.5583514 -1.50234169 562.5583514 4.79751587 555.595047 C6.51700249 554.04690869 8.25077043 552.51445117 10 551 C11.49226509 549.25766487 12.95561043 547.48969867 14.375 545.6875 C17.80786355 541.43872698 21.31225459 537.26458168 24.875 533.125 C28.78836618 528.57708419 32.69005274 524.02033529 36.5625 519.4375 C37.23708252 518.63916748 37.23708252 518.63916748 37.92529297 517.82470703 C38.83068442 516.7528666 39.73595817 515.68092674 40.64111328 514.60888672 C42.92546186 511.90427711 45.21289508 509.20227873 47.5 506.5 C48.41668126 505.41667901 49.33334793 504.33334568 50.25 503.25 C70.41666667 479.41666667 90.58333333 455.58333333 110.75 431.75 C111.20366943 431.21383057 111.65733887 430.67766113 112.12475586 430.12524414 C113.04217797 429.04104762 113.95965852 427.95690055 114.87719727 426.87280273 C117.15778544 424.17807689 119.43737815 421.48252188 121.71484375 418.78515625 C126.49408326 413.12729174 131.2944851 407.48917257 136.125 401.875 C139.61815106 397.81371255 143.06448396 393.72481413 146.4375 389.5625 C150.58060991 384.45692535 154.8823045 379.50199947 159.20288086 374.54711914 C162.36465838 370.91262149 165.46850206 367.24479157 168.5 363.5 C172.61893166 358.41190794 176.90147334 353.47996177 181.203125 348.546875 C184.36479231 344.91243501 187.46857472 341.24470182 190.5 337.5 C195.16267846 331.74275562 200.01952417 326.1621465 204.88671875 320.578125 C205.39509277 319.98708984 205.9034668 319.39605469 206.42724609 318.78710938 C207.51162905 317.55493253 208.62626245 316.34895052 209.76416016 315.16601562 C213.09749212 311.78915169 213.09749212 311.78915169 214.125 307.3515625 C212.769034 304.5172169 211.18171337 302.6400427 209 300.375 C205.70916864 296.86581964 202.57392466 293.31470292 199.5625 289.5625 C195.70174863 284.788597 191.62562925 280.26611572 187.46875 275.75 C184.27118704 272.18815771 181.28611657 268.47434167 178.28125 264.75 C175.93281032 261.91900422 173.49090098 259.20616402 171 256.5 C166.88621091 252.0301488 163.02912703 247.40955107 159.21484375 242.68359375 C157.04367173 240.05291443 154.79758643 237.52057576 152.5 235 C149.40444804 231.60401318 146.44848793 228.13828469 143.5625 224.5625 C139.71278428 219.80224283 135.64962964 215.29161654 131.50390625 210.7890625 C128.10518671 207.0032813 124.9075747 203.07864278 121.71484375 199.1171875 C120.17273924 197.13793226 120.17273924 197.13793226 119 196 C117.45688956 195.89201408 115.9088876 195.85316742 114.36204529 195.84178162 C113.3614807 195.83200759 112.36091612 195.82223356 111.33003139 195.81216335 C110.21879437 195.8063931 109.10755735 195.80062284 107.96264648 195.79467773 C106.78297585 195.78464501 105.60330523 195.77461229 104.387887 195.76427555 C100.54897625 195.73275908 96.71005522 195.7080654 92.87109375 195.68359375 C90.50915174 195.66520243 88.14721315 195.64636643 85.78527832 195.6270752 C77.00272607 195.55848259 68.22010811 195.49852281 59.4375 195.4375 C39.823125 195.293125 20.20875 195.14875 0 195 C0 130.65 0 66.3 0 0 Z " fill="#480356" transform="translate(540,161)"/>
<path d="M0 0 C75.24 0 150.48 0 228 0 C226.57061865 4.28814406 225.16483519 7.93960256 223.19921875 11.9453125 C222.64121582 13.08959717 222.08321289 14.23388184 221.50830078 15.4128418 C221.21215881 16.01639496 220.91601685 16.61994812 220.61090088 17.24179077 C219.01374636 20.49907177 217.43041405 23.76304832 215.84765625 27.02734375 C215.52307434 27.69653336 215.19849243 28.36572296 214.86407471 29.05519104 C211.71302728 35.56632211 208.65763488 42.12043418 205.625 48.6875 C200.81309863 59.10367728 195.9552805 69.49662671 191.0625 79.875 C186.02002665 90.57333405 180.99462648 101.27924242 176 112 C170.68773618 123.40188581 165.34064127 134.78704083 159.97949219 146.16601562 C155.01360559 156.70721689 150.07072441 167.25882141 145.15155029 177.82189941 C141.73613437 185.1554098 138.30594833 192.48162913 134.8515625 199.796875 C124.69198172 221.29145542 124.69198172 221.29145542 115 243 C114.34 243 113.68 243 113 243 C105.4819927 227.05967279 97.96426256 211.11972222 90.5625 195.125 C85.23307015 183.61122313 79.82341909 172.13669252 74.39675903 160.66851807 C69.20090128 149.68617083 64.05427422 138.68297659 58.953125 127.65625 C54.51697773 118.08119945 50.0136477 108.53870314 45.5 99 C39.91718868 87.20141047 34.37650497 75.38531898 28.89379883 63.53979492 C23.56868906 52.04509752 18.1730986 40.58383245 12.77198792 29.12469482 C12.14430334 27.79258431 11.51704932 26.46027082 10.89024353 25.12774658 C9.18460069 21.50355679 7.46858472 17.8846515 5.74072266 14.27099609 C5.36969925 13.49161179 4.99867584 12.71222748 4.6164093 11.90922546 C3.89849331 10.40139715 3.17756942 8.8949964 2.45329285 7.39021301 C0 2.22527466 0 2.22527466 0 0 Z " fill="#FEFDFE" transform="translate(426,471)"/>
<path d="M0 0 C1.10754639 0.52142578 2.21509277 1.04285156 3.35620117 1.58007812 C5.14054565 2.42795898 5.14054565 2.42795898 6.9609375 3.29296875 C9.51007803 4.49049188 12.061681 5.68272851 14.61328125 6.875 C15.26180557 7.17850372 15.9103299 7.48200745 16.57850647 7.79470825 C85.31293536 39.93715096 158.13037495 64.3784719 233.23510742 75.98339844 C236.09768141 76.44227574 238.94393698 76.95254365 241.79296875 77.48828125 C248.3415075 78.69631026 254.92231921 79.61097908 261.5234375 80.48046875 C262.18036591 80.56728912 262.83729431 80.6541095 263.51412964 80.74356079 C275.64984812 82.32712961 287.78354501 83.24720364 300.00268555 83.88476562 C301.26894775 83.95115234 302.53520996 84.01753906 303.83984375 84.0859375 C304.95174072 84.13903076 306.0636377 84.19212402 307.20922852 84.24682617 C310.3021979 84.47794757 313.28179432 84.95187887 316.3359375 85.48046875 C316.45056069 138.43301902 316.53857648 191.38555668 316.59126415 244.33820676 C316.59751715 250.59990172 316.60398881 256.86159643 316.6105957 263.12329102 C316.61190726 264.36980084 316.61321881 265.61631067 316.6145701 266.90059353 C316.63628426 287.04313875 316.67568367 307.18561211 316.72170148 327.3281148 C316.76857738 348.0198881 316.79625637 368.71162395 316.80637997 389.40344816 C316.81321609 402.15556964 316.8347509 414.90748792 316.87551983 427.6595468 C316.90209586 436.42241236 316.90990511 445.18517397 316.90344439 453.94807684 C316.90026447 458.99220173 316.90488943 464.03597335 316.93196487 469.08003426 C317.06580863 495.31665204 315.6963931 519.35976575 306.5859375 544.29296875 C305.93806274 546.11139282 305.93806274 546.11139282 305.27709961 547.96655273 C287.52208808 596.96077848 255.49573369 642.10390109 215.3359375 675.48046875 C214.44777344 676.23457031 213.55960938 676.98867188 212.64453125 677.765625 C163.564291 719.16707929 106.03379903 747.7666201 45.84082031 769.22998047 C42.62446805 770.37752549 39.41347938 771.53893635 36.203125 772.703125 C26.17644768 776.30429748 16.07962334 779.55007411 5.8359375 782.48046875 C4.26815552 782.93534668 4.26815552 782.93534668 2.66870117 783.39941406 C-6.8020016 786.03261444 -13.53631106 785.56085988 -22.8515625 782.73046875 C-23.87475586 782.42463867 -24.89794922 782.11880859 -25.95214844 781.80371094 C-77.36509535 766.21261804 -127.74865207 746.69089692 -173.6640625 718.48046875 C-174.43733887 718.00609375 -175.21061523 717.53171875 -176.00732422 717.04296875 C-186.51046017 710.57042439 -196.77399855 703.85867617 -206.6640625 696.48046875 C-207.20724121 696.07618652 -207.75041992 695.6719043 -208.31005859 695.25537109 C-220.08092696 686.45077552 -231.19452425 676.95382157 -241.96484375 666.95703125 C-244.15757853 664.94517329 -246.38327939 663.01474286 -248.6640625 661.10546875 C-254.47629355 656.04978843 -259.54732668 650.22322218 -264.6640625 644.48046875 C-265.16486328 643.91908203 -265.66566406 643.35769531 -266.18164062 642.77929688 C-291.51292408 614.2114218 -310.91336385 581.51350075 -323.6640625 545.48046875 C-323.91978027 544.78018555 -324.17549805 544.07990234 -324.43896484 543.35839844 C-326.09265422 538.7921558 -327.43029834 534.17348692 -328.6640625 529.48046875 C-328.87536596 528.67768911 -329.08666941 527.87490946 -329.30437601 527.04780316 C-334.47422119 506.45696882 -334.35792083 486.19953864 -334.24439061 465.12379289 C-334.22250589 460.01309385 -334.23012551 454.90241982 -334.23390198 449.79168701 C-334.23650553 440.96757721 -334.22101044 432.14365432 -334.19271278 423.31959152 C-334.15182774 410.56199767 -334.13903017 397.80449287 -334.13277283 385.04684062 C-334.12186857 364.34123464 -334.08870012 343.63572795 -334.04125977 322.93017578 C-333.99526351 302.83382662 -333.95992104 282.73750456 -333.9387207 262.64111328 C-333.93740709 261.39937994 -333.93609347 260.1576466 -333.93474004 258.87828498 C-333.92821418 252.64797986 -333.9218958 246.41767455 -333.91568053 240.18736911 C-333.86396818 188.61833376 -333.7760092 137.04940613 -333.6640625 85.48046875 C-329.01537853 85.0688674 -324.36665994 84.65765992 -319.71791077 84.24679565 C-318.14101756 84.1073739 -316.56413338 83.96785007 -314.98725891 83.82821655 C-298.96052798 82.40916819 -298.96052798 82.40916819 -291.27189636 81.78952026 C-248.38378728 78.15246629 -204.48931784 69.156379 -163.46289062 56.33349609 C-160.62635628 55.46897664 -157.77936668 54.64467774 -154.93017578 53.82301331 C-144.57641221 50.82542462 -134.36151599 47.46991156 -124.1640625 43.98046875 C-123.27899017 43.6781131 -122.39391785 43.37575745 -121.48202515 43.0642395 C-103.98873674 37.0709276 -86.74198266 30.5692539 -69.6640625 23.48046875 C-69.02635925 23.21576782 -68.38865601 22.95106689 -67.73162842 22.67834473 C-55.51976894 17.59467822 -43.38803534 12.36136808 -31.51953125 6.515625 C-30.85190765 6.1877449 -30.18428406 5.85986481 -29.49642944 5.52204895 C-26.28187648 3.93967321 -23.07793601 2.34007164 -19.88769531 0.70922852 C-18.18178223 -0.14264038 -18.18178223 -0.14264038 -16.44140625 -1.01171875 C-14.94468384 -1.77524658 -14.94468384 -1.77524658 -13.41772461 -2.55419922 C-8.34154109 -4.33372131 -4.65282743 -2.20953555 0 0 Z M-14.53515625 10.796875 C-15.56624512 11.30621582 -16.59733398 11.81555664 -17.65966797 12.34033203 C-18.79549316 12.90220215 -19.93131836 13.46407227 -21.1015625 14.04296875 C-46.9669297 26.69056491 -73.59043192 37.69961254 -100.6640625 47.48046875 C-101.42583801 47.75630798 -102.18761353 48.03214722 -102.97247314 48.31634521 C-123.6769922 55.80481618 -144.32858307 62.98490635 -165.6640625 68.48046875 C-167.35329119 68.92808061 -169.04210614 69.37725731 -170.73046875 69.828125 C-173.85414972 70.66016714 -176.98016705 71.48196693 -180.109375 72.29296875 C-183.25488247 73.108924 -186.39444668 73.94417199 -189.53125 74.79296875 C-198.44735283 77.19753107 -207.33639624 79.35935745 -216.42041016 81.05175781 C-218.99992888 81.54464518 -221.57175022 82.07073807 -224.14453125 82.59765625 C-241.77206404 86.16032378 -259.49255644 88.74234075 -277.30713272 91.14831066 C-279.07828272 91.39791581 -280.84715264 91.66378581 -282.61471176 91.93766499 C-291.41001628 93.27263904 -300.16308738 94.05410981 -309.0390625 94.60546875 C-310.37242799 94.69221548 -311.70576163 94.77945317 -313.0390625 94.8671875 C-316.24711881 95.07640856 -319.45540181 95.28077024 -322.6640625 95.48046875 C-322.75577188 146.26732915 -322.82617916 197.05418113 -322.86832382 247.84110817 C-322.87332618 253.84744139 -322.87850352 259.85377445 -322.88378906 265.86010742 C-322.8848383 267.0557768 -322.88588755 268.25144618 -322.88696858 269.48334796 C-322.90433735 288.80139839 -322.93585545 308.11940083 -322.97267368 327.43742286 C-323.01018156 347.28394838 -323.0323191 367.1304489 -323.04041648 386.9770084 C-323.04588389 399.20703953 -323.06310365 411.43693498 -323.09572837 423.66692431 C-323.11699803 432.07236115 -323.12323461 440.47772864 -323.11806801 448.88319039 C-323.11552545 453.72069186 -323.11920817 458.55795755 -323.1408844 463.39541626 C-323.25177573 489.44895252 -322.4055154 514.62753698 -313.6640625 539.48046875 C-313.38046875 540.2890332 -313.096875 541.09759766 -312.8046875 541.93066406 C-298.61072384 581.79104295 -276.06898694 616.17882489 -246.6640625 646.48046875 C-245.97199707 647.19444824 -245.27993164 647.90842773 -244.56689453 648.64404297 C-237.10406862 656.30743755 -229.67627999 663.86441532 -221.23828125 670.4609375 C-218.46814998 672.63416643 -215.82701873 674.92747074 -213.1640625 677.23046875 C-205.82688467 683.35905828 -197.92319038 688.62659145 -189.97998047 693.93164062 C-187.85905366 695.35006353 -185.74644048 696.77983142 -183.63671875 698.21484375 C-135.13155774 731.09671379 -79.80828699 754.23201102 -23.6640625 770.48046875 C-22.69645996 770.77179687 -21.72885742 771.063125 -20.73193359 771.36328125 C-19.78527832 771.63914062 -18.83862305 771.915 -17.86328125 772.19921875 C-16.61357544 772.56950195 -16.61357544 772.56950195 -15.33862305 772.94726562 C-9.08898919 774.19319902 -3.79334283 773.21947206 2.1875 771.3203125 C3.29202011 770.98192604 3.29202011 770.98192604 4.41885376 770.63670349 C5.96181559 770.16225219 7.50338734 769.68325809 9.0435791 769.19989014 C11.23164634 768.51319892 13.42316257 767.83904344 15.61621094 767.16845703 C38.67477923 760.08202669 61.09673891 751.81239035 83.3359375 742.48046875 C84.2527832 742.09971191 85.16962891 741.71895508 86.11425781 741.32666016 C108.1974007 732.10779524 129.95879057 721.00754224 150.3359375 708.48046875 C151.2115332 707.94599121 152.08712891 707.41151367 152.98925781 706.86083984 C164.99030587 699.50028099 176.4302574 691.70506983 187.45898438 682.95605469 C189.2391991 681.55652063 191.03831144 680.1883759 192.8515625 678.83203125 C199.46038692 673.87927098 205.63155489 668.62819493 211.6484375 662.984375 C213.77511517 661.00297909 215.92711181 659.10231863 218.1484375 657.23046875 C227.59377742 649.0102566 236.51716725 639.96289462 244.25 630.1171875 C245.66003538 628.33483941 247.11518496 626.58741367 248.609375 624.875 C260.79816905 610.89141588 270.72582946 594.87671122 279.3359375 578.48046875 C279.85728271 577.49336914 279.85728271 577.49336914 280.38916016 576.48632812 C285.34586904 567.03410575 289.50428911 557.43854396 293.3359375 547.48046875 C293.64966309 546.74111084 293.96338867 546.00175293 294.28662109 545.23999023 C297.02507883 538.7183942 298.85059423 532.17313906 300.4609375 525.29296875 C300.83798828 523.7605957 300.83798828 523.7605957 301.22265625 522.19726562 C304.55032832 508.21581621 305.63286955 494.71518909 305.57644653 480.41517639 C305.57732078 478.74406015 305.57907577 477.07294418 305.58162487 475.40182966 C305.58605938 470.85225136 305.57814892 466.30276869 305.56806874 461.75320256 C305.55937981 456.83113003 305.56235823 451.9090623 305.56387329 446.98698425 C305.56491872 438.47322895 305.55867802 429.95950446 305.54739761 421.44575691 C305.531099 409.13652102 305.52593015 396.82729993 305.52342163 384.51805442 C305.51905136 364.54401027 305.50576041 344.56998252 305.48681641 324.59594727 C305.4684403 305.20044028 305.45429227 285.80493777 305.44580078 266.40942383 C305.44527533 265.21259246 305.44474989 264.01576109 305.44420852 262.7826621 C305.44159832 256.778125 305.43907093 250.77358787 305.43658471 244.76905072 C305.41587301 195.00617873 305.38066571 145.24332454 305.3359375 95.48046875 C304.57424129 95.42552876 303.81254509 95.37058876 303.02776718 95.31398392 C299.52067699 95.06014278 296.01375755 94.80401075 292.50683594 94.54785156 C291.30900482 94.46149445 290.11117371 94.37513733 288.87704468 94.28616333 C278.41362985 93.51915785 268.0009308 92.48779637 257.5859375 91.23046875 C256.69894165 91.12442322 255.8119458 91.01837769 254.89807129 90.90911865 C227.96888443 87.65689686 201.68101778 81.88512727 175.3359375 75.48046875 C174.13275879 75.19026855 172.92958008 74.90006836 171.68994141 74.60107422 C129.91218625 64.49655572 88.91640991 51.29035961 49.3359375 34.48046875 C48.69114441 34.20696594 48.04635132 33.93346313 47.38201904 33.65167236 C31.32509729 26.83180485 15.4247679 19.74338753 -0.2277832 12.03515625 C-1.18386475 11.5659375 -2.13994629 11.09671875 -3.125 10.61328125 C-3.95821777 10.19965332 -4.79143555 9.78602539 -5.64990234 9.35986328 C-9.31416281 7.76002495 -11.10346136 9.08025777 -14.53515625 10.796875 Z " fill="#FCFBFC" transform="translate(548.6640625,151.51953125)"/>
<path d="M0 0 C3.0185695 1.37146959 5.2998923 2.96248713 7.765625 5.171875 C8.46236328 5.79513672 9.15910156 6.41839844 9.87695312 7.06054688 C13.19700456 10.09349175 16.4823631 13.16072314 19.75 16.25 C25.49082101 21.65489 31.26513105 27.01719522 37.0859375 32.3359375 C44.95570627 39.53055184 52.77332786 46.7807787 60.5625 54.0625 C66.02748136 59.17108466 71.52199152 64.24500697 77.04296875 69.29296875 C80.18333248 72.1649074 83.31124549 75.05021867 86.4375 77.9375 C87.23921631 78.67734131 87.23921631 78.67734131 88.05712891 79.43212891 C90.88758324 82.04505208 93.71386529 84.66234028 96.53515625 87.28515625 C97.11531494 87.82342041 97.69547363 88.36168457 98.29321289 88.91625977 C99.39657435 89.94007693 100.49871171 90.96521558 101.59936523 91.99194336 C103.95880554 94.17921135 106.32647494 96.25195349 108.875 98.21875 C109.57625 98.8065625 110.2775 99.394375 111 100 C111 100.66 111 101.32 111 102 C38.07 102 -34.86 102 -110 102 C-108.35 100.35 -106.7 98.7 -105 97 C-104.13761719 96.12601562 -103.27523438 95.25203125 -102.38671875 94.3515625 C-101.05060547 93.00191406 -101.05060547 93.00191406 -99.6875 91.625 C-98.36298828 90.28308594 -98.36298828 90.28308594 -97.01171875 88.9140625 C-94.14269975 86.07930336 -91.11085887 83.45245655 -88.0637207 80.81201172 C-84.71599899 77.87260671 -81.48693555 74.81025131 -78.25 71.75 C-72.51185663 66.34763096 -66.74064591 60.98740086 -60.921875 55.671875 C-57.79356015 52.81122345 -54.6763228 49.9389025 -51.5625 47.0625 C-51.02214111 46.56339111 -50.48178223 46.06428223 -49.92504883 45.55004883 C-48.83035108 44.53879388 -47.73570604 43.52748188 -46.64111328 42.51611328 C-43.92822414 40.00985896 -41.21405141 37.50499554 -38.5 35 C-37.41666043 34.00000676 -36.33332709 33.00000676 -35.25 32 C-33.08333333 30 -30.91666667 28 -28.75 26 C-28.21318604 25.50443604 -27.67637207 25.00887207 -27.12329102 24.49829102 C-26.04582918 23.50379812 -24.96819397 22.50949303 -23.89038086 21.51538086 C-21.09072274 18.93267823 -18.29464445 16.34624707 -15.50390625 13.75390625 C-14.92769531 13.21958984 -14.35148438 12.68527344 -13.7578125 12.13476562 C-12.66683197 11.12296916 -11.57690189 10.11003824 -10.48828125 9.09570312 C-7.08483376 5.94225114 -3.58593912 2.94463853 0 0 Z " fill="#FEFEFE" transform="translate(539,364)"/>
<path d="M0 0 C29.04 0 58.08 0 88 0 C107.15642458 40.44134078 107.15642458 40.44134078 115.6640625 58.828125 C119.54639888 67.19697899 123.49222997 75.53567562 127.4375 83.875 C132.67444781 94.94514141 137.89248851 106.02342894 143.0625 117.125 C148.01627785 127.76204245 152.99862783 138.38525135 158 149 C163.58666686 160.85744946 169.15347822 172.72379397 174.67797852 184.61035156 C177.52905361 190.74002681 180.40239085 196.85798203 183.31723022 202.9576416 C184.82641908 206.11608232 186.33026379 209.27705737 187.83422852 212.43798828 C188.56636394 213.97224861 189.30136583 215.50514455 190.03930664 217.03662109 C191.06317288 219.16176728 192.07743715 221.2912514 193.08984375 223.421875 C193.55583229 224.37897369 193.55583229 224.37897369 194.03123474 225.35540771 C194.74834088 226.87637609 195.38290258 228.43578237 196 230 C195.67 230.66 195.34 231.32 195 232 C187.38627566 223.24845358 179.81656078 214.46414264 172.34277344 205.59277344 C170.06578561 202.89185188 167.78254206 200.19622756 165.5 197.5 C164.58330416 196.41669135 163.66663747 195.33335804 162.75 194.25 C162.29625 193.71375 161.8425 193.1775 161.375 192.625 C116 139 70.625 85.375 23.8737793 30.12353516 C22.96121085 29.04505992 22.04861341 27.96660922 21.13598633 26.88818359 C18.78137304 24.10572652 16.42733348 21.32278706 14.07421875 18.5390625 C13.59380127 17.97098877 13.11338379 17.40291504 12.6184082 16.81762695 C11.67755022 15.70468234 10.73726635 14.59125208 9.79760742 13.47729492 C7.33398742 10.56009885 4.83809441 7.67602606 2.3125 4.8125 C0 2 0 2 0 0 Z " fill="#FDFCFD" transform="translate(333,471)"/>
<path d="M0 0 C29.04 0 58.08 0 88 0 C86.46887534 3.06224932 85.44819042 4.83850679 83.27734375 7.28515625 C82.74367188 7.89230469 82.21 8.49945313 81.66015625 9.125 C80.80744141 10.0840625 80.80744141 10.0840625 79.9375 11.0625 C78.74749539 12.41691314 77.55869743 13.77238739 76.37109375 15.12890625 C75.79085449 15.79164551 75.21061523 16.45438477 74.61279297 17.13720703 C72.52337528 19.5505066 70.50538675 22.01660672 68.5 24.5 C64.38106834 29.58809206 60.09852666 34.52003823 55.796875 39.453125 C52.63520769 43.08756499 49.53142528 46.75529818 46.5 50.5 C42.38106834 55.58809206 38.09852666 60.52003823 33.796875 65.453125 C30.63520769 69.08756499 27.53142528 72.75529818 24.5 76.5 C20.42242873 81.53348541 16.19494085 86.42333309 11.94189453 91.30810547 C7.0212235 96.96264879 2.17218901 102.67472086 -2.65722656 108.40722656 C-4.93421439 111.10814812 -7.21745794 113.80377244 -9.5 116.5 C-10.41669584 117.58330865 -11.33336253 118.66664196 -12.25 119.75 C-48 162 -48 162 -83.75 204.25 C-84.2042334 204.78689453 -84.6584668 205.32378906 -85.12646484 205.87695312 C-86.03795657 206.95402333 -86.94973779 208.03084862 -87.86181641 209.10742188 C-90.23516208 211.90958314 -92.60246792 214.71655188 -94.9609375 217.53125 C-95.69280273 218.40233398 -95.69280273 218.40233398 -96.43945312 219.29101562 C-97.36452485 220.39229149 -98.28784055 221.49504599 -99.20898438 222.59960938 C-101.99442036 225.91075931 -104.90565026 228.98328628 -108 232 C-106.50289956 227.13050881 -104.52546453 222.66261065 -102.32421875 218.0859375 C-101.96301941 217.32744507 -101.60182007 216.56895264 -101.22967529 215.78747559 C-100.45494927 214.16130735 -99.67870936 212.53585964 -98.90109253 210.91107178 C-96.83829814 206.60040365 -94.78692891 202.28430108 -92.734375 197.96875 C-92.32436752 197.10740448 -91.91436005 196.24605896 -91.4919281 195.35861206 C-88.09567597 188.21782232 -84.75320207 181.05358849 -81.4375 173.875 C-76.5134189 163.22354657 -71.5193735 152.6067948 -66.5 142 C-61.46087388 131.35108612 -56.44651063 120.69233116 -51.5 110 C-46.57267374 99.35014148 -41.58039931 88.73240681 -36.5625 78.125 C-28.98646185 62.10856192 -21.48141778 46.06102533 -14 30 C-9.38 20.1 -4.76 10.2 0 0 Z " fill="#FDFCFD" transform="translate(659,471)"/>
<path d="M0 0 C36.63 0 73.26 0 111 0 C109.35 1.65 107.7 3.3 106 5 C104.70642578 6.31097656 104.70642578 6.31097656 103.38671875 7.6484375 C102.49597656 8.54820312 101.60523438 9.44796875 100.6875 10.375 C99.80449219 11.26960938 98.92148437 12.16421875 98.01171875 13.0859375 C95.14269975 15.92069664 92.11085887 18.54754345 89.0637207 21.18798828 C85.71600007 24.12739234 82.48691291 27.18972626 79.25 30.25 C73.55893096 35.60874384 67.83096552 40.92029879 62.05859375 46.19140625 C58.51537135 49.43556339 55.00836194 52.71824097 51.5 56 C46.01464084 61.12998729 40.49977997 66.22510078 34.95703125 71.29296875 C30.73077849 75.15797921 26.52640272 79.04667341 22.3203125 82.93359375 C20.02605056 85.0536339 17.72883502 87.17041561 15.4296875 89.28515625 C14.84501709 89.82342041 14.26034668 90.36168457 13.65795898 90.91625977 C12.54350155 91.94215523 11.42846642 92.96742363 10.31274414 93.99194336 C8.06661083 96.06092894 5.86743309 98.13833069 3.75390625 100.34375 C2 102 2 102 0 102 C0 68.34 0 34.68 0 0 Z " fill="#FDFCFD" transform="translate(424,361)"/>
<path d="M0 0 C36.3 0 72.6 0 110 0 C110 33.33 110 66.66 110 101 C106.60854693 99.30427347 105.2059289 98.41745372 102.75 95.8125 C100.36668209 93.29349815 97.86639571 90.98650734 95.25 88.71484375 C91.15353079 85.15805461 87.19172142 81.47662066 83.25 77.75 C77.55893096 72.39125616 71.83096552 67.07970121 66.05859375 61.80859375 C62.51537135 58.56443661 59.00836194 55.28175903 55.5 52 C50.01195492 46.8675008 44.49404746 41.77025702 38.94921875 36.69921875 C35.85610204 33.86830001 32.7694588 31.03055449 29.6875 28.1875 C29.15600342 27.69725342 28.62450684 27.20700684 28.0769043 26.7019043 C25.08326073 23.93651769 22.09966429 21.16079671 19.125 18.375 C18.14732666 17.45944336 18.14732666 17.45944336 17.14990234 16.52539062 C15.85576078 15.31336056 14.5618111 14.10112556 13.26806641 12.88867188 C9.33114425 9.20992554 5.34344901 5.61008334 1.22265625 2.13671875 C0.81917969 1.76160156 0.41570313 1.38648438 0 1 C0 0.67 0 0.34 0 0 Z " fill="#FEFEFE" transform="translate(545,361)"/>
<path d="M0 0 C0.33 0 0.66 0 1 0 C1 33.66 1 67.32 1 102 C-27.71 102 -56.42 102 -86 102 C-84.49214039 98.98428077 -83.50872293 97.22758243 -81.3828125 94.8203125 C-80.86452881 94.22855225 -80.34624512 93.63679199 -79.81225586 93.02709961 C-79.25546143 92.39940674 -78.69866699 91.77171387 -78.125 91.125 C-76.94103136 89.77506829 -75.75744601 88.42480033 -74.57421875 87.07421875 C-73.97528809 86.39278809 -73.37635742 85.71135742 -72.75927734 85.00927734 C-70.12887255 82.00508202 -67.53180027 78.97287008 -64.9375 75.9375 C-63.94532601 74.77863427 -62.9531385 73.6197801 -61.9609375 72.4609375 C-60.97390406 71.3073381 -59.98692483 70.15369232 -59 69 C-52.31098326 61.18069397 -45.60251244 53.37934454 -38.85791016 45.60791016 C-33.71108119 39.67422648 -28.59882664 33.71136351 -23.49267578 27.74267578 C-21.97520879 25.97105665 -20.4548123 24.20199221 -18.93359375 22.43359375 C-17.91396231 21.24748195 -16.89443024 20.06128473 -15.875 18.875 C-15.38273926 18.30241455 -14.89047852 17.7298291 -14.38330078 17.13989258 C-11.9172914 14.26397146 -9.47166559 11.37365995 -7.05859375 8.453125 C-6.59533691 7.89254395 -6.13208008 7.33196289 -5.65478516 6.75439453 C-4.38782497 5.21643668 -3.12540728 3.67473999 -1.86328125 2.1328125 C-1.24839844 1.42898438 -0.63351562 0.72515625 0 0 Z " fill="#FBFAFC" transform="translate(419,365)"/>
<path d="M0 0 C7.39501602 7.39501602 14.17526331 15.15414493 20.75 23.28125 C22.93501569 25.92147729 25.19171391 28.4672972 27.5 31 C31.41891252 35.29991791 35.09170869 39.75919547 38.75 44.28125 C41.64475711 47.77908151 44.69589539 51.11785404 47.75390625 54.47265625 C50.06187598 57.06962393 52.25555863 59.73404013 54.4375 62.4375 C57.51336588 66.24087503 60.68753166 69.90082652 64 73.5 C68.10270302 77.9578056 71.95302974 82.56215839 75.75 87.28125 C78.81343204 90.98289705 82.06487058 94.4966566 85.34765625 98.00390625 C87 100 87 100 87 102 C58.29 102 29.58 102 0 102 C0 68.34 0 34.68 0 0 Z " fill="#FCFAFC" transform="translate(660,365)"/>
<path d="" fill="#2B68BA" transform="translate(0,0)"/>
</svg>
