<?xml version="1.0" encoding="UTF-8"?>
<svg version="1.1" xmlns="http://www.w3.org/2000/svg" width="1080" height="1080">
<path d="M0 0 C1.85616483 0.89270146 3.69195238 1.82871345 5.5078125 2.80078125 C6.56202393 3.35902588 7.61623535 3.91727051 8.70239258 4.49243164 C9.83185303 5.0930542 10.96131348 5.69367676 12.125 6.3125 C26.19125728 13.71051599 40.50746002 20.47457358 55 27 C56.15209961 27.52416504 57.30419922 28.04833008 58.49121094 28.58837891 C79.86052823 38.27759097 101.72493114 46.41856457 123.83911133 54.23565674 C125.7395042 54.90785818 127.63842611 55.58421516 129.53710938 56.26123047 C200.97522693 81.59950948 277.62819856 95.23307309 371.4309082 93.26831055 C373.28535759 93.1454143 375.14269756 93.06718364 377 93 C378.7297063 94.7297063 378.12878438 96.95667238 378.14064401 99.26323253 C378.13884735 100.40765694 378.13884735 100.40765694 378.13701439 101.57520103 C378.13966622 102.38206189 378.14231804 103.18892274 378.14505023 104.02023393 C378.15278896 106.75921807 378.15330415 109.49815772 378.15390015 112.2371521 C378.15791189 114.20692712 378.16234963 116.1767013 378.1671797 118.14647448 C378.17918547 123.58764653 378.18480302 129.02880969 378.18936086 134.4699924 C378.1953027 140.32876595 378.20691692 146.18752881 378.21765137 152.04629517 C378.24105854 165.54828436 378.25559586 179.05027687 378.26788078 192.55228014 C378.27274205 197.89489979 378.27806815 203.23751889 378.28349637 208.58013799 C378.30804715 232.79281881 378.32911565 257.00550067 378.34119225 281.21819115 C378.34411346 286.9870949 378.34708098 292.75599864 378.35009766 298.52490234 C378.35046857 299.24160314 378.35083947 299.95830394 378.35122162 300.69672294 C378.36334878 323.87922539 378.39424059 347.06165142 378.43601918 370.24411805 C378.47892073 394.09347482 378.50544836 417.94279129 378.51066696 441.79218767 C378.51140729 445.16996704 378.51231795 448.54774636 378.51332474 451.92552567 C378.51351535 452.59023728 378.51370597 453.25494889 378.51390236 453.93980327 C378.51718427 463.9303811 378.53450327 473.9208698 378.55921555 483.91141891 C378.58734891 495.303922 378.59815785 506.69628026 378.58702008 518.08881538 C378.58186578 523.89264667 378.58450755 529.69617537 378.60948563 535.49996185 C378.79429805 580.94317345 378.79429805 580.94317345 373 603 C372.72225259 604.06345603 372.44450517 605.12691206 372.15834117 606.22259402 C370.30237516 613.21741985 368.24870509 620.12139921 366 627 C365.70786621 627.89960449 365.41573242 628.79920898 365.11474609 629.72607422 C354.26744194 662.55549114 337.73902912 693.37305377 317 721 C316.57025879 721.5784668 316.14051758 722.15693359 315.69775391 722.75292969 C309.46840766 731.11771018 302.85530236 739.14428868 296 747 C295.23042969 747.88300781 294.46085938 748.76601563 293.66796875 749.67578125 C287.13639926 756.96708096 280.22166039 763.8823499 273.3125 770.8125 C272.81504272 771.31263611 272.31758545 771.81277222 271.80505371 772.32806396 C266.05072344 778.10585905 260.21877808 783.72105688 254 789 C253.02417969 789.85722656 252.04835938 790.71445312 251.04296875 791.59765625 C183.25000453 850.11661716 98.08693949 884.93610214 12.95343018 909.42999268 C11.21498155 909.93726878 9.48361315 910.46866822 7.75341797 911.00341797 C-3.32833502 914.32736174 -12.0974364 912.87960164 -23.125 909.8125 C-24.07424347 909.5528244 -24.07424347 909.5528244 -25.04266357 909.28790283 C-68.76196035 897.30571665 -112.46345618 881.92019541 -152.8203125 861.1328125 C-156.0006409 859.49493555 -159.20833973 857.92281937 -162.4296875 856.3671875 C-199.05785869 838.57791714 -233.18071334 815.58677129 -264 789 C-264.73992187 788.36191406 -265.47984375 787.72382812 -266.2421875 787.06640625 C-268.1716225 785.38880513 -270.08626354 783.69546917 -272 782 C-273.02673828 781.11248047 -273.02673828 781.11248047 -274.07421875 780.20703125 C-280.00102025 775.0047284 -285.60304347 769.50325478 -291.1875 763.9375 C-292.32807861 762.80380981 -292.32807861 762.80380981 -293.49169922 761.6472168 C-298.19966605 756.92641472 -302.66586467 752.06450861 -307 747 C-307.85722656 746.02417969 -308.71445312 745.04835938 -309.59765625 744.04296875 C-361.91181169 683.43813892 -388.93819461 611.68681552 -388.59498715 532.0151006 C-388.57521171 526.12253572 -388.5848161 520.23000279 -388.59057617 514.3374176 C-388.59734808 502.83984216 -388.57786859 491.34245866 -388.54941289 479.8449224 C-388.52710089 470.50682418 -388.51600284 461.1687704 -388.51332474 451.83064842 C-388.51312616 451.16449911 -388.51292759 450.4983498 -388.512723 449.81201414 C-388.51175899 446.42807414 -388.51096148 443.04413412 -388.51022096 439.66019406 C-388.50462737 415.77675794 -388.4751878 391.89340511 -388.43212891 368.01000977 C-388.39036454 344.82999523 -388.36209605 321.65002032 -388.35009766 298.4699707 C-388.34972309 297.75380155 -388.34934852 297.0376324 -388.3489626 296.29976115 C-388.34595431 290.53801117 -388.34299306 284.77626116 -388.34011877 279.01451111 C-388.32803646 254.85726572 -388.30601411 230.70002863 -388.2814641 206.54279304 C-388.27603384 201.19823979 -388.27091595 195.8536864 -388.26605177 190.50913262 C-388.25312253 176.4838418 -388.23677327 162.45856634 -388.21106736 148.43329249 C-388.20045264 142.63463563 -388.19135573 136.83598779 -388.18649673 131.037323 C-388.18197131 125.73937896 -388.17283103 120.44146453 -388.15983529 115.14353468 C-388.15591303 113.21839352 -388.15369614 111.29324805 -388.15327708 109.36810295 C-388.15244178 106.76950332 -388.14555806 104.17099167 -388.13701439 101.57240772 C-388.13821217 100.80974396 -388.13940994 100.0470802 -388.14064401 99.26130542 C-388.11416911 94.11416911 -388.11416911 94.11416911 -387 93 C-384.11655585 93.09694877 -381.25335048 93.25367391 -378.375 93.4375 C-295.9175882 97.89679223 -213.38213461 81.50055253 -34.0625 12.4375 C-33.05372299 11.94934311 -33.05372299 11.94934311 -32.02456665 11.45132446 C-30.08855404 10.51203179 -28.15506216 9.56778179 -26.22265625 8.62109375 C-25.61343826 8.32429214 -25.00422028 8.02749054 -24.37654114 7.72169495 C-21.31662086 6.21319361 -18.32960139 4.6365851 -15.38623047 2.91064453 C-14.24686035 2.2504834 -13.10749023 1.59032227 -11.93359375 0.91015625 C-10.93255615 0.30437744 -9.93151855 -0.30140137 -8.90014648 -0.92553711 C-5.10807795 -2.33044439 -3.62830294 -1.65580982 0 0 Z " fill="#FCC503" transform="translate(545,84)"/>
<path d="M0 0 C1.85616483 0.89270146 3.69195238 1.82871345 5.5078125 2.80078125 C6.56202393 3.35902588 7.61623535 3.91727051 8.70239258 4.49243164 C9.83185303 5.0930542 10.96131348 5.69367676 12.125 6.3125 C26.19125728 13.71051599 40.50746002 20.47457358 55 27 C56.15209961 27.52416504 57.30419922 28.04833008 58.49121094 28.58837891 C79.86052823 38.27759097 101.72493114 46.41856457 123.83911133 54.23565674 C125.7395042 54.90785818 127.63842611 55.58421516 129.53710938 56.26123047 C200.97522693 81.59950948 277.62819856 95.23307309 371.4309082 93.26831055 C373.28535759 93.1454143 375.14269756 93.06718364 377 93 C378.7297063 94.7297063 378.12878438 96.95667238 378.14064401 99.26323253 C378.13884735 100.40765694 378.13884735 100.40765694 378.13701439 101.57520103 C378.13966622 102.38206189 378.14231804 103.18892274 378.14505023 104.02023393 C378.15278896 106.75921807 378.15330415 109.49815772 378.15390015 112.2371521 C378.15791189 114.20692712 378.16234963 116.1767013 378.1671797 118.14647448 C378.17918547 123.58764653 378.18480302 129.02880969 378.18936086 134.4699924 C378.1953027 140.32876595 378.20691692 146.18752881 378.21765137 152.04629517 C378.24105854 165.54828436 378.25559586 179.05027687 378.26788078 192.55228014 C378.27274205 197.89489979 378.27806815 203.23751889 378.28349637 208.58013799 C378.30804715 232.79281881 378.32911565 257.00550067 378.34119225 281.21819115 C378.34411346 286.9870949 378.34708098 292.75599864 378.35009766 298.52490234 C378.35046857 299.24160314 378.35083947 299.95830394 378.35122162 300.69672294 C378.36334878 323.87922539 378.39424059 347.06165142 378.43601918 370.24411805 C378.47892073 394.09347482 378.50544836 417.94279129 378.51066696 441.79218767 C378.51140729 445.16996704 378.51231795 448.54774636 378.51332474 451.92552567 C378.51351535 452.59023728 378.51370597 453.25494889 378.51390236 453.93980327 C378.51718427 463.9303811 378.53450327 473.9208698 378.55921555 483.91141891 C378.58734891 495.303922 378.59815785 506.69628026 378.58702008 518.08881538 C378.58186578 523.89264667 378.58450755 529.69617537 378.60948563 535.49996185 C378.79429805 580.94317345 378.79429805 580.94317345 373 603 C372.72225259 604.06345603 372.44450517 605.12691206 372.15834117 606.22259402 C370.30237516 613.21741985 368.24870509 620.12139921 366 627 C365.70786621 627.89960449 365.41573242 628.79920898 365.11474609 629.72607422 C354.26744194 662.55549114 337.73902912 693.37305377 317 721 C316.57025879 721.5784668 316.14051758 722.15693359 315.69775391 722.75292969 C309.46840766 731.11771018 302.85530236 739.14428868 296 747 C295.23042969 747.88300781 294.46085938 748.76601563 293.66796875 749.67578125 C287.13639926 756.96708096 280.22166039 763.8823499 273.3125 770.8125 C272.81504272 771.31263611 272.31758545 771.81277222 271.80505371 772.32806396 C266.05072344 778.10585905 260.21877808 783.72105688 254 789 C253.02417969 789.85722656 252.04835938 790.71445312 251.04296875 791.59765625 C183.25000453 850.11661716 98.08693949 884.93610214 12.95343018 909.42999268 C11.21498155 909.93726878 9.48361315 910.46866822 7.75341797 911.00341797 C-3.32833502 914.32736174 -12.0974364 912.87960164 -23.125 909.8125 C-24.07424347 909.5528244 -24.07424347 909.5528244 -25.04266357 909.28790283 C-68.76196035 897.30571665 -112.46345618 881.92019541 -152.8203125 861.1328125 C-156.0006409 859.49493555 -159.20833973 857.92281937 -162.4296875 856.3671875 C-199.05785869 838.57791714 -233.18071334 815.58677129 -264 789 C-264.73992187 788.36191406 -265.47984375 787.72382812 -266.2421875 787.06640625 C-268.1716225 785.38880513 -270.08626354 783.69546917 -272 782 C-273.02673828 781.11248047 -273.02673828 781.11248047 -274.07421875 780.20703125 C-280.00102025 775.0047284 -285.60304347 769.50325478 -291.1875 763.9375 C-292.32807861 762.80380981 -292.32807861 762.80380981 -293.49169922 761.6472168 C-298.19966605 756.92641472 -302.66586467 752.06450861 -307 747 C-307.85722656 746.02417969 -308.71445312 745.04835938 -309.59765625 744.04296875 C-361.91181169 683.43813892 -388.93819461 611.68681552 -388.59498715 532.0151006 C-388.57521171 526.12253572 -388.5848161 520.23000279 -388.59057617 514.3374176 C-388.59734808 502.83984216 -388.57786859 491.34245866 -388.54941289 479.8449224 C-388.52710089 470.50682418 -388.51600284 461.1687704 -388.51332474 451.83064842 C-388.51312616 451.16449911 -388.51292759 450.4983498 -388.512723 449.81201414 C-388.51175899 446.42807414 -388.51096148 443.04413412 -388.51022096 439.66019406 C-388.50462737 415.77675794 -388.4751878 391.89340511 -388.43212891 368.01000977 C-388.39036454 344.82999523 -388.36209605 321.65002032 -388.35009766 298.4699707 C-388.34972309 297.75380155 -388.34934852 297.0376324 -388.3489626 296.29976115 C-388.34595431 290.53801117 -388.34299306 284.77626116 -388.34011877 279.01451111 C-388.32803646 254.85726572 -388.30601411 230.70002863 -388.2814641 206.54279304 C-388.27603384 201.19823979 -388.27091595 195.8536864 -388.26605177 190.50913262 C-388.25312253 176.4838418 -388.23677327 162.45856634 -388.21106736 148.43329249 C-388.20045264 142.63463563 -388.19135573 136.83598779 -388.18649673 131.037323 C-388.18197131 125.73937896 -388.17283103 120.44146453 -388.15983529 115.14353468 C-388.15591303 113.21839352 -388.15369614 111.29324805 -388.15327708 109.36810295 C-388.15244178 106.76950332 -388.14555806 104.17099167 -388.13701439 101.57240772 C-388.13821217 100.80974396 -388.13940994 100.0470802 -388.14064401 99.26130542 C-388.11416911 94.11416911 -388.11416911 94.11416911 -387 93 C-384.11655585 93.09694877 -381.25335048 93.25367391 -378.375 93.4375 C-295.9175882 97.89679223 -213.38213461 81.50055253 -34.0625 12.4375 C-33.05372299 11.94934311 -33.05372299 11.94934311 -32.02456665 11.45132446 C-30.08855404 10.51203179 -28.15506216 9.56778179 -26.22265625 8.62109375 C-25.61343826 8.32429214 -25.00422028 8.02749054 -24.37654114 7.72169495 C-21.31662086 6.21319361 -18.32960139 4.6365851 -15.38623047 2.91064453 C-14.24686035 2.2504834 -13.10749023 1.59032227 -11.93359375 0.91015625 C-10.93255615 0.30437744 -9.93151855 -0.30140137 -8.90014648 -0.92553711 C-5.10807795 -2.33044439 -3.62830294 -1.65580982 0 0 Z M-10.98046875 65.9140625 C-12.20600464 66.54997314 -12.20600464 66.54997314 -13.45629883 67.19873047 C-14.35759521 67.66939941 -15.2588916 68.14006836 -16.1875 68.625 C-64.41937807 93.2118982 -116.57779751 111.94901554 -168.65625 126.34570312 C-170.89049435 126.96942967 -173.11761433 127.61362724 -175.34375 128.265625 C-194.13955988 133.7239987 -213.32152493 137.60871031 -232.5625 141.125 C-233.81297119 141.35437256 -235.06344238 141.58374512 -236.35180664 141.82006836 C-240.56337869 142.57443972 -244.78038452 143.29239676 -249 144 C-249.88442748 144.14887507 -250.76885496 144.29775015 -251.68008327 144.45113659 C-269.11019294 147.34974536 -286.524311 149.25162 -304.125 150.75 C-306.65631815 150.97188017 -309.18756866 151.19453328 -311.71875 151.41796875 C-317.81175399 151.95417143 -323.90550488 152.48103411 -330 153 C-330.11462395 205.82515611 -330.20263937 258.65029957 -330.25532665 311.47555574 C-330.26157964 317.72222942 -330.26805131 323.96890286 -330.2746582 330.21557617 C-330.27596976 331.45909539 -330.27728131 332.7026146 -330.2786326 333.98381621 C-330.30034658 354.07786259 -330.33974589 374.17183691 -330.38576398 394.26584064 C-330.43264039 414.90789339 -330.46031897 435.54990859 -330.47044247 456.19201237 C-330.47727849 468.9134246 -330.49881272 481.63463313 -330.53958233 494.35598261 C-330.56615898 503.09782344 -330.57396747 511.83956007 -330.56750689 520.5814383 C-330.56432707 525.61341193 -330.5689508 530.64503143 -330.59602737 535.67694092 C-330.70207967 556.40162542 -330.38005585 575.83014463 -325 596 C-324.67257208 597.32573698 -324.34750087 598.65206006 -324.02565479 599.97916317 C-313.13444891 643.27323748 -287.917365 682.78886356 -257.68359375 715.12890625 C-255.84087524 717.10037365 -254.02145092 719.07950025 -252.22265625 721.08984375 C-246.48948261 727.48303054 -240.51274184 733.39206745 -234 739 C-232.96438746 739.90963703 -231.92925618 740.81982218 -230.89453125 741.73046875 C-169.95682868 795.04313681 -94.71398516 828.10953806 -17.6875 850.75 C-16.88256104 850.99041016 -16.07762207 851.23082031 -15.24829102 851.47851562 C-7.68015614 853.61322368 -1.56803653 853.19577463 5.9375 850.8125 C6.58267578 850.61591797 7.22785156 850.41933594 7.89257812 850.21679688 C9.35139758 849.76993889 10.80835633 849.3169836 12.26391602 848.85961914 C14.35641467 848.20220076 16.45105868 847.55160719 18.54663086 846.90405273 C82.93288768 826.98775109 145.03099217 799.91412389 199 759 C199.59796387 758.5477002 200.19592773 758.09540039 200.81201172 757.62939453 C208.2346691 751.98577082 215.28957029 746.08818469 222.0859375 739.703125 C224.31136694 737.63878562 226.55950131 735.63932162 228.85546875 733.65625 C233.04197906 730.00814669 237.01412796 726.17815548 240.9375 722.25 C241.63697754 721.5497168 242.33645508 720.84943359 243.05712891 720.12792969 C247.64572129 715.48500291 251.90945819 710.75430091 255.94140625 705.6171875 C258.15698224 702.80042107 260.47945004 700.09504877 262.8125 697.375 C272.7489943 685.44812097 281.41910754 672.53753367 289 659 C289.4316748 658.23236328 289.86334961 657.46472656 290.30810547 656.67382812 C299.71537989 639.77613251 306.75238076 622.21892148 312.8125 603.875 C313.07836914 603.09068604 313.34423828 602.30637207 313.61816406 601.49829102 C314.51165652 598.68603755 315.25657231 595.85604019 316 593 C316.33522045 591.76282887 316.6704409 590.52565775 317.01581955 589.25099659 C321.39765862 571.17637374 320.54320759 552.60205032 320.46426249 534.13910925 C320.44681806 529.01264244 320.45284607 523.88619278 320.45587158 518.75970459 C320.45795831 509.90061255 320.44552069 501.0416393 320.42292023 492.18257713 C320.39026616 479.37423785 320.37997956 466.5659554 320.37496826 453.75757901 C320.36623653 432.97157293 320.33967881 412.18563003 320.30175781 391.3996582 C320.2649826 371.22062494 320.23669787 351.04160889 320.21972656 330.86254883 C320.21867567 329.61651487 320.21762477 328.37048092 320.21654204 327.08668836 C320.21132149 320.83504594 320.20626675 314.58340339 320.20129442 308.33176076 C320.15989853 256.55446355 320.08950824 204.77723487 320 153 C315.90131281 152.29118357 311.94211775 151.82370934 307.78515625 151.640625 C279.84546919 150.24685845 251.91788559 147.28421279 224.51904297 141.51367188 C221.72855628 140.94464842 218.93114563 140.42981196 216.12890625 139.921875 C190.06656483 135.16560395 164.289466 128.90144062 139 121 C138.30924377 120.78557251 137.61848755 120.57114502 136.90679932 120.35021973 C111.85442184 112.57062153 87.28922636 103.90978735 63 94 C61.79150391 93.50757813 60.58300781 93.01515625 59.33789062 92.5078125 C41.35230598 85.13015625 23.68594857 77.05367788 6.140625 68.6875 C5.43768311 68.35395508 4.73474121 68.02041016 4.01049805 67.67675781 C2.22420056 66.82692885 0.44196679 65.96857182 -1.33984375 65.109375 C-5.33130958 63.44479894 -7.31854636 63.97576837 -10.98046875 65.9140625 Z " fill="#EEBC0E" transform="translate(545,84)"/>
<path d="M0 0 C3.96632509 0.79326502 6.25965863 1.4496162 9.7265625 3.1953125 C10.65758789 3.65623291 11.58861328 4.11715332 12.54785156 4.59204102 C13.56331055 5.09791748 14.57876953 5.60379395 15.625 6.125 C47.81270142 21.83794534 81.15188041 34.67149183 115 46.3125 C115.84274475 46.6035965 116.6854895 46.89469299 117.55377197 47.1946106 C137.90023129 54.20342111 158.56390267 59.79756099 179.4375 65 C180.4818219 65.26079346 181.5261438 65.52158691 182.60211182 65.7902832 C199.64887476 70.03516398 216.6889133 73.97238369 234 77 C235.04994141 77.1846582 236.09988281 77.36931641 237.18164062 77.55957031 C254.45558237 80.53506307 271.85383355 82.43514752 289.27686882 84.28182983 C294.70145155 84.85718905 300.12353122 85.45346964 305.54492188 86.05810547 C306.36410095 86.14930161 307.18328003 86.24049774 308.02728271 86.3344574 C310.01820847 86.55612542 312.00910714 86.7780367 314 87 C314.09171004 137.65946627 314.162117 188.31892408 314.20426132 238.97845715 C314.20926368 244.96976909 314.21444102 250.96108088 314.21972656 256.95239258 C314.2207758 258.14507134 314.22182505 259.3377501 314.22290608 260.56657065 C314.24027469 279.83612219 314.27179271 299.10562563 314.30861118 318.37514871 C314.3461195 338.17195367 314.36825669 357.96873357 314.37635398 377.76557261 C314.3818213 389.96489442 314.39904056 402.16408021 314.43166587 414.36336011 C314.45293608 422.74777221 314.45917199 431.13211478 314.45400551 439.51655184 C314.45146304 444.34190196 314.45514469 449.16701568 314.4768219 453.99232292 C314.58788835 480.02036255 313.73016003 505.17135844 305 530 C304.71108887 530.8245166 304.42217773 531.6490332 304.12451172 532.49853516 C300.11919295 543.7620652 295.58151287 554.59212621 289.97363281 565.14990234 C289.02695006 566.94878949 288.11540846 568.76162139 287.2109375 570.58203125 C277.26340372 590.30813288 263.96662074 608.56519608 249.0234375 624.79296875 C247.25551137 626.72130517 245.56153954 628.68847978 243.875 630.6875 C235.6743158 640.09812121 226.57563194 648.99894616 217 657 C215.66388672 658.16982422 215.66388672 658.16982422 214.30078125 659.36328125 C188.83655159 681.54802679 159.79716489 699.30494494 130 715 C128.96149902 715.55059082 127.92299805 716.10118164 126.85302734 716.66845703 C99.64713728 730.99746514 71.0485288 742.00094349 42 752 C40.96246582 752.35819824 39.92493164 752.71639648 38.85595703 753.08544922 C7.0926245 764 7.0926245 764 0 764 C-0.23390085 741.76422215 -0.41008946 719.52864796 -0.51812172 697.29188824 C-0.56962306 686.96622713 -0.63980006 676.64133167 -0.75439453 666.31616211 C-0.85426154 657.31364997 -0.91862774 648.31169244 -0.94088495 639.30864173 C-0.95389025 634.54397222 -0.98431476 629.78088893 -1.05730057 625.01672935 C-1.1255409 620.52564416 -1.14604568 616.0367872 -1.13107681 611.54523277 C-1.13381211 609.90330867 -1.15349533 608.26130463 -1.19205475 606.61983109 C-1.37885704 598.25222284 -1.12552385 592.30476556 4.80142212 585.76325989 C6.52325882 584.16355984 8.25579683 582.5752832 10 581 C11.46825772 579.27572464 12.91049372 577.52856252 14.3125 575.75 C17.94760956 571.24632444 21.69557347 566.86011698 25.5 562.5 C29.23418958 558.21797219 32.92459276 553.91667953 36.5 549.5 C40.61893166 544.41190794 44.90147334 539.47996177 49.203125 534.546875 C52.36479231 530.91243501 55.46857472 527.24470182 58.5 523.5 C62.61893166 518.41190794 66.90147334 513.47996177 71.203125 508.546875 C74.36479231 504.91243501 77.46857472 501.24470182 80.5 497.5 C84.61893166 492.41190794 88.90147334 487.47996177 93.203125 482.546875 C96.36479231 478.91243501 99.46857472 475.24470182 102.5 471.5 C106.61893166 466.41190794 110.90147334 461.47996177 115.203125 456.546875 C118.36479231 452.91243501 121.46857472 449.24470182 124.5 445.5 C128.61893166 440.41190794 132.90147334 435.47996177 137.203125 430.546875 C140.36479231 426.91243501 143.46857472 423.24470182 146.5 419.5 C150.61893166 414.41190794 154.90147334 409.47996177 159.203125 404.546875 C162.36479231 400.91243501 165.46857472 397.24470182 168.5 393.5 C172.61893166 388.41190794 176.90147334 383.47996177 181.203125 378.546875 C184.36479231 374.91243501 187.46857472 371.24470182 190.5 367.5 C195.16267846 361.74275562 200.01952417 356.1621465 204.88671875 350.578125 C205.39509277 349.98708984 205.9034668 349.39605469 206.42724609 348.78710938 C207.51162905 347.55493253 208.62626245 346.34895052 209.76416016 345.16601562 C213.08050318 341.79711568 213.08050318 341.79711568 214.15625 337.3828125 C212.68057192 334.34171916 210.85163278 332.30647216 208.5 329.875 C207.58097824 328.90587375 206.66436444 327.93445913 205.75 326.9609375 C205.28722656 326.46948242 204.82445312 325.97802734 204.34765625 325.47167969 C202.29499348 323.23011244 200.40152696 320.87011753 198.5 318.5 C195.44651321 314.71539666 192.29331699 311.07792463 189 307.5 C184.88621091 303.0301488 181.02912703 298.40955107 177.21484375 293.68359375 C175.04367173 291.05291443 172.79758643 288.52057576 170.5 286 C167.40444804 282.60401318 164.44848793 279.13828469 161.5625 275.5625 C158.48663412 271.75912497 155.31246834 268.09917348 152 264.5 C147.88621091 260.0301488 144.02912703 255.40955107 140.21484375 250.68359375 C137.34633362 247.20799153 134.31675957 243.89584721 131.28125 240.56640625 C127.98474735 236.85784077 124.86764531 233.01151234 121.75 229.15234375 C120.17822462 227.14403815 120.17822462 227.14403815 119 226 C117.45688956 225.89201408 115.9088876 225.85316742 114.36204529 225.84178162 C113.3614807 225.83200759 112.36091612 225.82223356 111.33003139 225.81216335 C110.21879437 225.8063931 109.10755735 225.80062284 107.96264648 225.79467773 C106.78297585 225.78464501 105.60330523 225.77461229 104.387887 225.76427555 C100.54897625 225.73275908 96.71005522 225.7080654 92.87109375 225.68359375 C90.50915174 225.66520243 88.14721315 225.64636643 85.78527832 225.6270752 C77.00272607 225.55848259 68.22010811 225.49852281 59.4375 225.4375 C39.823125 225.293125 20.20875 225.14875 0 225 C0 150.75 0 76.5 0 0 Z " fill="#F1BD0D" transform="translate(540,161)"/>
<path d="M0 0 C75.24 0 150.48 0 228 0 C225.75024627 6.7492612 225.75024627 6.7492612 224.25097656 9.87695312 C223.74756996 10.93403976 223.74756996 10.93403976 223.23399353 12.01248169 C222.69277611 13.135522 222.69277611 13.135522 222.140625 14.28125 C221.7598732 15.07884735 221.3791214 15.8764447 220.98683167 16.69821167 C220.16951179 18.40960342 219.35066253 20.12026545 218.53042603 21.83026123 C216.3554644 26.36514202 214.19211443 30.90556055 212.02734375 35.4453125 C211.59399216 36.35334625 211.16064056 37.26138 210.7141571 38.19692993 C207.03862082 45.90377677 203.4127776 53.63276331 199.8125 61.375 C198.69157328 63.7839319 197.5704787 66.19278569 196.44921875 68.6015625 C196.03213654 69.49760193 196.03213654 69.49760193 195.60662842 70.41174316 C192.1336634 77.86764899 188.62920611 85.30874012 185.125 92.75 C184.62577026 93.81033447 184.62577026 93.81033447 184.11645508 94.89208984 C181.06006218 101.38350452 178.00213066 107.87419366 174.94287109 114.36425781 C172.89873762 118.70085335 170.85525844 123.03775658 168.8125 127.375 C168.31002243 128.44183014 168.31002243 128.44183014 167.7973938 129.5302124 C163.35514452 138.96447237 158.94330488 148.41202311 154.5625 157.875 C149.61321262 168.56595598 144.59990871 179.22535878 139.5625 189.875 C134.34947927 200.89774258 129.14444174 211.92402238 123.98190308 222.97052002 C123.37555643 224.267744 122.76873513 225.56474624 122.16140747 226.86151123 C121.32621972 228.64528312 120.49313904 230.43004112 119.66015625 232.21484375 C118.95838257 233.71712524 118.95838257 233.71712524 118.24243164 235.24975586 C117.08650237 237.80851853 116.01977864 240.38440963 115 243 C114.34 243 113.68 243 113 243 C105.3078052 226.67856669 97.62066314 210.35497926 90 194 C85.06344467 183.40637135 80.10357148 172.82394912 75.125 162.25 C74.79245209 161.54365417 74.45990417 160.83730835 74.11727905 160.10955811 C71.06061138 153.61759419 68.00239244 147.12636169 64.94287109 140.63574219 C62.89873762 136.29914665 60.85525844 131.96224342 58.8125 127.625 C58.47751495 126.91377991 58.14252991 126.20255981 57.7973938 125.4697876 C52.82800752 114.91601651 47.9034014 104.34243503 43.00317383 93.75634766 C38.19018538 83.37504505 33.30009248 73.03081406 28.40582275 62.68765259 C23.00544372 51.272878 17.64949606 39.83889995 12.34887695 28.37744141 C10.06049784 23.43036913 7.7651199 18.48776887 5.421875 13.56640625 C5.039104 12.76162842 4.65633301 11.95685059 4.26196289 11.12768555 C3.57188434 9.68088828 2.8786299 8.23559917 2.18139648 6.79223633 C0 2.21903661 0 2.21903661 0 0 Z " fill="#FEFEFD" transform="translate(426,501)"/>
<path d="M0 0 C1.10754639 0.52142578 2.21509277 1.04285156 3.35620117 1.58007812 C5.14054565 2.42795898 5.14054565 2.42795898 6.9609375 3.29296875 C9.51007803 4.49049188 12.061681 5.68272851 14.61328125 6.875 C15.26180557 7.17850372 15.9103299 7.48200745 16.57850647 7.79470825 C47.15115542 22.09146801 78.39776126 34.57294944 110.3359375 45.48046875 C111.43583008 45.85623047 112.53572266 46.23199219 113.66894531 46.61914062 C152.60294592 59.79118305 192.57680934 69.60755347 233.1706543 75.96728516 C236.05921688 76.43560436 238.93284158 76.95155555 241.80859375 77.4921875 C248.35196013 78.69817074 254.92772983 79.61169176 261.5234375 80.48046875 C262.18036591 80.56728912 262.83729431 80.6541095 263.51412964 80.74356079 C275.64984812 82.32712961 287.78354501 83.24720364 300.00268555 83.88476562 C301.26894775 83.95115234 302.53520996 84.01753906 303.83984375 84.0859375 C304.95174072 84.13903076 306.0636377 84.19212402 307.20922852 84.24682617 C310.3021979 84.47794757 313.28179432 84.95187887 316.3359375 85.48046875 C316.45056069 138.43301902 316.53857648 191.38555668 316.59126415 244.33820676 C316.59751715 250.59990172 316.60398881 256.86159643 316.6105957 263.12329102 C316.61190726 264.36980084 316.61321881 265.61631067 316.6145701 266.90059353 C316.63628426 287.04313875 316.67568367 307.18561211 316.72170148 327.3281148 C316.76857738 348.0198881 316.79625637 368.71162395 316.80637997 389.40344816 C316.81321609 402.15556964 316.8347509 414.90748792 316.87551983 427.6595468 C316.90209586 436.42241236 316.90990511 445.18517397 316.90344439 453.94807684 C316.90026447 458.99220173 316.90488943 464.03597335 316.93196487 469.08003426 C317.06580863 495.31665204 315.6963931 519.35976575 306.5859375 544.29296875 C305.93806274 546.11139282 305.93806274 546.11139282 305.27709961 547.96655273 C287.52208808 596.96077848 255.49573369 642.10390109 215.3359375 675.48046875 C214.44777344 676.23457031 213.55960938 676.98867188 212.64453125 677.765625 C163.41083319 719.29652805 105.68951001 747.88292613 45.3359375 769.48046875 C44.24249023 769.87508301 43.14904297 770.26969727 42.02246094 770.67626953 C30.00313869 775.0010123 17.93292818 779.03401794 5.6484375 782.54296875 C4.61509277 782.84227295 3.58174805 783.14157715 2.51708984 783.44995117 C-6.88186093 786.05505276 -13.61078925 785.53823007 -22.8515625 782.73046875 C-23.87475586 782.42463867 -24.89794922 782.11880859 -25.95214844 781.80371094 C-77.36509535 766.21261804 -127.74865207 746.69089692 -173.6640625 718.48046875 C-174.43733887 718.00609375 -175.21061523 717.53171875 -176.00732422 717.04296875 C-186.51046017 710.57042439 -196.77399855 703.85867617 -206.6640625 696.48046875 C-207.20724121 696.07618652 -207.75041992 695.6719043 -208.31005859 695.25537109 C-220.08092696 686.45077552 -231.19452425 676.95382157 -241.96484375 666.95703125 C-244.15757853 664.94517329 -246.38327939 663.01474286 -248.6640625 661.10546875 C-254.47629355 656.04978843 -259.54732668 650.22322218 -264.6640625 644.48046875 C-265.16486328 643.91908203 -265.66566406 643.35769531 -266.18164062 642.77929688 C-290.94508927 614.85180916 -310.1746532 582.9336831 -322.83886719 547.765625 C-323.50843381 545.91144051 -324.21034422 544.06895822 -324.921875 542.23046875 C-328.79407033 531.74200267 -330.59353756 520.43786546 -332.6640625 509.48046875 C-332.83702345 508.58477657 -333.0099844 507.68908438 -333.18818659 506.76625001 C-333.70439556 503.20198103 -333.78818931 499.81576667 -333.78711033 496.21412086 C-333.78826417 495.5014576 -333.78941802 494.78879433 -333.79060683 494.05453521 C-333.79325384 491.66634824 -333.78876712 489.27822868 -333.78431702 486.89004517 C-333.78475311 485.16070012 -333.78562872 483.43135514 -333.78690618 481.70201051 C-333.78914365 476.94970032 -333.78514005 472.19741264 -333.78012812 467.44510531 C-333.77581311 462.32041852 -333.77727079 457.19573302 -333.7780304 452.07104492 C-333.77855496 443.1920911 -333.77541517 434.31314463 -333.76979256 425.43419266 C-333.76166847 412.59668866 -333.7590614 399.75918822 -333.75780457 386.92168193 C-333.75561548 366.09410755 -333.74895926 345.26653709 -333.73950195 324.43896484 C-333.73032414 304.20589213 -333.72324511 283.97282047 -333.71899414 263.73974609 C-333.71873142 262.49275828 -333.71846869 261.24577047 -333.71819801 259.96099515 C-333.71689298 253.70527718 -333.71562927 247.4495592 -333.71438611 241.19384122 C-333.70401795 189.28938102 -333.68640352 137.38492508 -333.6640625 85.48046875 C-332.58008682 85.38437065 -332.58008682 85.38437065 -331.47421265 85.28633118 C-324.50702831 84.66656437 -317.54098689 84.03533014 -310.57588768 83.39262104 C-306.99900554 83.06293155 -303.42188236 82.73699879 -299.84375 82.42114258 C-273.89050996 80.12521983 -248.39265616 76.2538381 -222.8515625 71.04296875 C-221.77139359 70.82460861 -221.77139359 70.82460861 -220.66940308 70.60183716 C-201.36473939 66.69299485 -182.27290786 62.25016728 -163.47021484 56.35498047 C-160.31676658 55.37223715 -157.15681677 54.41220703 -153.99609375 53.453125 C-112.24623338 40.73068595 -70.73323692 25.83004297 -31.51953125 6.515625 C-30.85190765 6.1877449 -30.18428406 5.85986481 -29.49642944 5.52204895 C-26.28187648 3.93967321 -23.07793601 2.34007164 -19.88769531 0.70922852 C-18.18178223 -0.14264038 -18.18178223 -0.14264038 -16.44140625 -1.01171875 C-14.94468384 -1.77524658 -14.94468384 -1.77524658 -13.41772461 -2.55419922 C-8.34154109 -4.33372131 -4.65282743 -2.20953555 0 0 Z M-14.53515625 10.796875 C-15.56624512 11.30621582 -16.59733398 11.81555664 -17.65966797 12.34033203 C-18.79549316 12.90220215 -19.93131836 13.46407227 -21.1015625 14.04296875 C-46.9669297 26.69056491 -73.59043192 37.69961254 -100.6640625 47.48046875 C-101.42583801 47.75630798 -102.18761353 48.03214722 -102.97247314 48.31634521 C-122.61586259 55.42102372 -142.2317885 62.44184083 -162.47680664 67.65649414 C-164.94258923 68.2939523 -167.40440893 68.94234637 -169.86499023 69.59936523 C-200.15022148 77.6714032 -230.59398994 84.61718341 -261.61315918 89.17834473 C-263.62847132 89.47522572 -265.64289197 89.77762002 -267.65722656 90.08105469 C-271.46969685 90.64866575 -275.28444085 91.19509602 -279.1015625 91.73046875 C-280.67611206 91.95742432 -280.67611206 91.95742432 -282.2824707 92.18896484 C-291.05386358 93.35427036 -299.84613609 93.94229203 -308.67211914 94.53417969 C-310.03221821 94.62647823 -311.39230792 94.71891486 -312.752388 94.81149292 C-316.0561902 95.03583958 -319.36008027 95.25879178 -322.6640625 95.48046875 C-322.75577188 146.26732915 -322.82617916 197.05418113 -322.86832382 247.84110817 C-322.87332618 253.84744139 -322.87850352 259.85377445 -322.88378906 265.86010742 C-322.8848383 267.0557768 -322.88588755 268.25144618 -322.88696858 269.48334796 C-322.90433735 288.80139839 -322.93585545 308.11940083 -322.97267368 327.43742286 C-323.01018156 347.28394838 -323.0323191 367.1304489 -323.04041648 386.9770084 C-323.04588389 399.20703953 -323.06310365 411.43693498 -323.09572837 423.66692431 C-323.11699803 432.07236115 -323.12323461 440.47772864 -323.11806801 448.88319039 C-323.11552545 453.72069186 -323.11920817 458.55795755 -323.1408844 463.39541626 C-323.25177573 489.44895252 -322.4055154 514.62753698 -313.6640625 539.48046875 C-313.38046875 540.2890332 -313.096875 541.09759766 -312.8046875 541.93066406 C-298.61072384 581.79104295 -276.06898694 616.17882489 -246.6640625 646.48046875 C-245.97199707 647.19444824 -245.27993164 647.90842773 -244.56689453 648.64404297 C-236.30221558 657.13084095 -228.02235381 665.20341485 -218.6640625 672.48046875 C-216.9751404 673.89543971 -215.28769699 675.31217711 -213.6015625 676.73046875 C-200.66825539 687.29052321 -186.80927953 696.63446137 -172.6640625 705.48046875 C-172.07689453 705.85059082 -171.48972656 706.22071289 -170.88476562 706.60205078 C-125.57787602 735.02913988 -74.94030654 755.64083223 -23.6640625 770.48046875 C-22.69645996 770.77179687 -21.72885742 771.063125 -20.73193359 771.36328125 C-19.78527832 771.63914062 -18.83862305 771.915 -17.86328125 772.19921875 C-16.61357544 772.56950195 -16.61357544 772.56950195 -15.33862305 772.94726562 C-9.08898919 774.19319902 -3.79334283 773.21947206 2.1875 771.3203125 C3.29202011 770.98192604 3.29202011 770.98192604 4.41885376 770.63670349 C5.96181559 770.16225219 7.50338734 769.68325809 9.0435791 769.19989014 C11.23164634 768.51319892 13.42316257 767.83904344 15.61621094 767.16845703 C38.67477923 760.08202669 61.09673891 751.81239035 83.3359375 742.48046875 C84.2527832 742.09971191 85.16962891 741.71895508 86.11425781 741.32666016 C108.1974007 732.10779524 129.95879057 721.00754224 150.3359375 708.48046875 C151.2115332 707.94599121 152.08712891 707.41151367 152.98925781 706.86083984 C164.99030587 699.50028099 176.4302574 691.70506983 187.45898438 682.95605469 C189.2391991 681.55652063 191.03831144 680.1883759 192.8515625 678.83203125 C199.46038692 673.87927098 205.63155489 668.62819493 211.6484375 662.984375 C213.77511517 661.00297909 215.92711181 659.10231863 218.1484375 657.23046875 C227.59377742 649.0102566 236.51716725 639.96289462 244.25 630.1171875 C245.66003538 628.33483941 247.11518496 626.58741367 248.609375 624.875 C260.79816905 610.89141588 270.72582946 594.87671122 279.3359375 578.48046875 C279.85728271 577.49336914 279.85728271 577.49336914 280.38916016 576.48632812 C285.34586904 567.03410575 289.50428911 557.43854396 293.3359375 547.48046875 C293.64966309 546.74111084 293.96338867 546.00175293 294.28662109 545.23999023 C297.02507883 538.7183942 298.85059423 532.17313906 300.4609375 525.29296875 C300.83798828 523.7605957 300.83798828 523.7605957 301.22265625 522.19726562 C304.54716354 508.22911327 305.63296095 494.73963356 305.57644653 480.45314026 C305.57732079 478.78614882 305.5790758 477.11915765 305.58162487 475.45216793 C305.58605921 470.91399111 305.57814916 466.37591017 305.56806874 461.83774555 C305.55937956 456.92794308 305.56235825 452.01814541 305.56387329 447.1083374 C305.5649187 438.615863 305.55867816 430.12341947 305.54739761 421.63095284 C305.53109879 409.35248603 305.52593013 397.07403406 305.52342163 384.79555761 C305.51905139 364.87142774 305.50576053 344.94731431 305.48681641 325.02319336 C305.46844022 305.67618898 305.45429223 286.32918908 305.44580078 266.98217773 C305.44527533 265.78833336 305.44474989 264.59448899 305.44420852 263.36446751 C305.44159832 257.37491448 305.43907093 251.38536142 305.43658471 245.39580834 C305.41587311 195.75735045 305.3806659 146.11891041 305.3359375 96.48046875 C302.50956806 96.16461722 299.68314468 95.84926182 296.85668945 95.53417969 C296.06798714 95.44598969 295.27928482 95.35779968 294.46668243 95.26693726 C289.3148092 94.69310287 284.16091338 94.14682567 279.00390625 93.62109375 C247.40008427 90.35325629 216.28515858 85.51132689 185.3963623 77.98236084 C183.22616816 77.4537304 181.05502552 76.92911703 178.88378906 76.40478516 C134.65683405 65.69793439 91.26006314 52.28571294 49.3359375 34.48046875 C48.69114441 34.20696594 48.04635132 33.93346313 47.38201904 33.65167236 C31.32509729 26.83180485 15.4247679 19.74338753 -0.2277832 12.03515625 C-1.18386475 11.5659375 -2.13994629 11.09671875 -3.125 10.61328125 C-3.95821777 10.19965332 -4.79143555 9.78602539 -5.64990234 9.35986328 C-9.31416281 7.76002495 -11.10346136 9.08025777 -14.53515625 10.796875 Z " fill="#FEFEFB" transform="translate(548.6640625,151.51953125)"/>
<path d="M0 0 C3.00325013 1.36632109 5.27958703 2.94289622 7.734375 5.140625 C8.43111328 5.76388672 9.12785156 6.38714844 9.84570312 7.02929688 C13.34842795 10.23351206 16.80687379 13.48193452 20.25 16.75 C26.11420619 22.2934378 32.01512799 27.7877743 37.9765625 33.2265625 C41.50951937 36.45743622 45.00387802 39.72937744 48.5 43 C52.97933132 47.1898315 57.47263872 51.36208916 62 55.5 C67.17880731 60.23331851 72.30970601 65.01594724 77.43359375 69.80859375 C81.2699192 73.39387131 85.1241129 76.95752254 89 80.5 C93.71973298 84.82106343 98.43104863 89.15092865 103.125 93.5 C103.77726563 94.10005859 104.42953125 94.70011719 105.1015625 95.31835938 C105.71 95.88361328 106.3184375 96.44886719 106.9453125 97.03125 C107.48687988 97.53205078 108.02844727 98.03285156 108.58642578 98.54882812 C110 100 110 100 112 103 C38.41 103 -35.18 103 -111 103 C-109.35 101.35 -107.7 99.7 -106 98 C-105.28199219 97.27039063 -104.56398438 96.54078125 -103.82421875 95.7890625 C-102.76654297 94.71785156 -102.76654297 94.71785156 -101.6875 93.625 C-100.99011719 92.91601562 -100.29273438 92.20703125 -99.57421875 91.4765625 C-97.49903807 89.48010643 -95.39587911 87.58136519 -93.22265625 85.6953125 C-88.95661949 81.99121198 -84.84723654 78.13891853 -80.75 74.25 C-74.88579381 68.7065622 -68.98487201 63.2122257 -63.0234375 57.7734375 C-59.49048063 54.54256378 -55.99612198 51.27062256 -52.5 48 C-47.06193424 42.91339722 -41.59013217 37.8673251 -36.09375 32.84375 C-32.54022365 29.58635084 -29.02067607 26.29281788 -25.5 23 C-20.82591791 18.63120303 -16.14630598 14.2688826 -11.4375 9.9375 C-10.52871094 9.10089844 -9.61992188 8.26429688 -8.68359375 7.40234375 C-5.84366562 4.86005001 -2.94165992 2.42330575 0 0 Z " fill="#FEFEFD" transform="translate(539,394)"/>
<path d="M0 0 C29.04 0 58.08 0 88 0 C84.05666394 5.25778141 80.13947146 10.27848407 75.8125 15.1875 C74.66474863 16.50076401 73.51762367 17.81457573 72.37109375 19.12890625 C71.80374512 19.77875488 71.23639648 20.42860352 70.65185547 21.09814453 C68.20135398 23.91951707 65.78458231 26.76866551 63.375 29.625 C62.70658081 30.41716919 62.70658081 30.41716919 62.0246582 31.2253418 C61.13045058 32.28576263 60.2364876 33.34638981 59.34277344 34.40722656 C57.06578561 37.10814812 54.78254206 39.80377244 52.5 42.5 C51.58330416 43.58330865 50.66663747 44.66664196 49.75 45.75 C47.91666667 47.91666667 46.08333333 50.08333333 44.25 52.25 C43.79633057 52.78616943 43.34266113 53.32233887 42.87524414 53.87475586 C41.95782203 54.95895238 41.04034148 56.04309945 40.12280273 57.12719727 C37.84221456 59.82192311 35.56262185 62.51747812 33.28515625 65.21484375 C28.50591674 70.87270826 23.7055149 76.51082743 18.875 82.125 C15.38184894 86.18628745 11.93551604 90.27518587 8.5625 94.4375 C4.41939009 99.54307465 0.1176955 104.49800053 -4.20288086 109.45288086 C-7.36465838 113.08737851 -10.46850206 116.75520843 -13.5 120.5 C-17.57757127 125.53348541 -21.80505915 130.42333309 -26.05810547 135.30810547 C-30.9787765 140.96264879 -35.82781099 146.67472086 -40.65722656 152.40722656 C-42.93421439 155.10814812 -45.21745794 157.80377244 -47.5 160.5 C-48.41669584 161.58330865 -49.33336253 162.66664196 -50.25 163.75 C-52.08333333 165.91666667 -53.91666667 168.08333333 -55.75 170.25 C-56.43050415 171.05425415 -56.43050415 171.05425415 -57.12475586 171.87475586 C-58.04217797 172.95895238 -58.95965852 174.04309945 -59.87719727 175.12719727 C-62.15778544 177.82192311 -64.43737815 180.51747812 -66.71484375 183.21484375 C-70.98592924 188.27113418 -75.26744098 193.31730787 -79.58447266 198.33447266 C-84.36355018 203.88910888 -89.06827608 209.49056981 -93.6875 215.1796875 C-98.05765205 220.50950132 -102.53456492 225.7499838 -107 231 C-107.33 230.34 -107.66 229.68 -108 229 C-107.12646484 226.73876953 -107.12646484 226.73876953 -105.7109375 223.8828125 C-105.18854492 222.81619385 -104.66615234 221.7495752 -104.12792969 220.65063477 C-103.26022949 218.90544556 -103.26022949 218.90544556 -102.375 217.125 C-101.1548498 214.63867113 -99.94083687 212.14935895 -98.7265625 209.66015625 C-98.25742432 208.70111641 -98.25742432 208.70111641 -97.77880859 207.72270203 C-94.68036584 201.37690291 -91.70614056 194.97571122 -88.75 188.5625 C-83.72360342 177.68097643 -78.62787179 166.83403111 -73.5 156 C-68.46066351 145.35118616 -63.44660578 134.69228465 -58.5 124 C-53.61096168 113.43512856 -48.66332401 102.89921166 -43.6875 92.375 C-43.32950317 91.61775635 -42.97150635 90.8605127 -42.60266113 90.08032227 C-41.15148098 87.01093842 -39.7001694 83.94161677 -38.24868774 80.87237549 C-34.40868137 72.75159866 -30.57670267 64.62705372 -26.75 56.5 C-26.42053375 55.80048218 -26.0910675 55.10096436 -25.75161743 54.38024902 C-22.25438097 46.95289061 -18.7699631 39.51990622 -15.3203125 32.0703125 C-15.02632568 31.43563049 -14.73233887 30.80094849 -14.42944336 30.14703369 C-13.06154373 27.19251954 -11.6963248 24.2368318 -10.33496094 21.27929688 C-9.8505957 20.23064453 -9.36623047 19.18199219 -8.8671875 18.1015625 C-8.45581543 17.20775879 -8.04444336 16.31395508 -7.62060547 15.39306641 C-5.15304106 10.2267196 -2.56046923 5.12093847 0 0 Z " fill="#FEFEFD" transform="translate(659,502)"/>
<path d="M0 0 C29.04 0 58.08 0 88 0 C92.66388722 9.32777445 97.31219802 18.62755733 101.72998047 28.06933594 C102.20827301 29.09069641 102.20827301 29.09069641 102.69622803 30.13269043 C103.02334778 30.83140259 103.35046753 31.53011475 103.6875 32.25 C104.38937115 33.74517095 105.09135915 35.24028706 105.79345703 36.73535156 C110.53602507 46.84159637 115.23625559 56.96710755 119.92456055 67.09863281 C124.94289474 77.92149922 130.05849807 88.69758503 135.17471313 99.47442627 C140.01468065 109.67133803 144.82467951 119.88012987 149.5625 130.125 C154.42973253 140.64870435 159.35620452 151.14300975 164.3125 161.625 C164.66859344 162.37810455 165.02468689 163.13120911 165.39157104 163.90713501 C166.83565747 166.96102671 168.27980857 170.01488781 169.72410583 173.06867981 C173.35777814 180.75324173 176.98058461 188.44290478 180.59994507 196.13421631 C181.26863454 197.55520882 181.93743235 198.97615035 182.60635376 200.39703369 C182.92099579 201.06539246 183.23563782 201.73375122 183.55981445 202.42236328 C183.86899307 203.07901978 184.17817169 203.73567627 184.49671936 204.41223145 C185.10099097 205.69742555 185.70415835 206.98313951 186.30613708 208.26940918 C187.86675714 211.60318875 189.44509965 214.92693178 191.04980469 218.23974609 C191.38056 218.92957077 191.71131531 219.61939545 192.05209351 220.3301239 C192.68654887 221.65302384 193.32710488 222.97301995 193.97451782 224.28962708 C194.71004347 225.83239549 195.36323623 227.41391544 196 229 C195.67 229.66 195.34 230.32 195 231 C187.38627566 222.24845358 179.81656078 213.46414264 172.34277344 204.59277344 C170.06578569 201.89185198 167.7825781 199.19619693 165.5 196.5 C162.76018685 193.26301005 160.02104448 190.02546464 157.28515625 186.78515625 C156.37769267 185.71086274 155.4701404 184.63664413 154.5625 183.5625 C154.11277832 183.03027832 153.66305664 182.49805664 153.19970703 181.94970703 C150.28748821 178.50818184 147.35643692 175.08346344 144.41601562 171.66601562 C140.40834744 167.00818074 136.43158387 162.33696364 132.5625 157.5625 C128.41939009 152.45692535 124.1176955 147.50199947 119.79711914 142.54711914 C116.63534162 138.91262149 113.53149794 135.24479157 110.5 131.5 C106.42242873 126.46651459 102.19494085 121.57666691 97.94189453 116.69189453 C93.0212235 111.03735121 88.17218901 105.32527914 83.34277344 99.59277344 C81.06578561 96.89185188 78.78254206 94.19622756 76.5 91.5 C75.58330416 90.41669135 74.66663747 89.33335804 73.75 88.25 C73.29625 87.71375 72.8425 87.1775 72.375 86.625 C57.25 68.75 57.25 68.75 55.87524414 67.12524414 C54.95782203 66.04104762 54.04034148 64.95690055 53.12280273 63.87280273 C50.84221456 61.17807689 48.56262185 58.48252188 46.28515625 55.78515625 C45.37769267 54.71086274 44.4701404 53.63664413 43.5625 52.5625 C43.11277832 52.03027832 42.66305664 51.49805664 42.19970703 50.94970703 C39.28748821 47.50818184 36.35643692 44.08346344 33.41601562 40.66601562 C28.67060723 35.15075644 24.00994649 29.58370684 19.4296875 23.9296875 C15.8771764 19.64611302 12.2064996 15.46598838 8.51586914 11.30102539 C7.98856201 10.7002417 7.46125488 10.09945801 6.91796875 9.48046875 C6.21837036 8.68999146 6.21837036 8.68999146 5.50463867 7.88354492 C3.5042392 5.37939403 1.77784396 2.66676594 0 0 Z " fill="#FEFEFD" transform="translate(333,502)"/>
<path d="M0 0 C36.63 0 73.26 0 111 0 C109.35 1.65 107.7 3.3 106 5 C104.70642578 6.31097656 104.70642578 6.31097656 103.38671875 7.6484375 C102.49597656 8.54820312 101.60523438 9.44796875 100.6875 10.375 C99.80449219 11.26960938 98.92148437 12.16421875 98.01171875 13.0859375 C95.14269975 15.92069664 92.11085887 18.54754345 89.0637207 21.18798828 C85.71600007 24.12739234 82.48691291 27.18972626 79.25 30.25 C73.55893096 35.60874384 67.83096552 40.92029879 62.05859375 46.19140625 C58.51537135 49.43556339 55.00836194 52.71824097 51.5 56 C46.01195492 61.1324992 40.49404746 66.22974298 34.94921875 71.30078125 C31.85610018 74.13170169 28.76976466 76.96977507 25.6875 79.8125 C24.89460571 80.54243164 24.89460571 80.54243164 24.08569336 81.28710938 C21.03168467 84.10408643 17.99934525 86.94203081 14.984375 89.80078125 C14.31059814 90.43717529 13.63682129 91.07356934 12.94262695 91.72924805 C11.63275182 92.96767255 10.32643103 94.20987028 9.02416992 95.45629883 C8.42709229 96.01986084 7.83001465 96.58342285 7.21484375 97.1640625 C6.69011475 97.66373535 6.16538574 98.1634082 5.62475586 98.67822266 C4 100 4 100 0 102 C0 68.34 0 34.68 0 0 Z " fill="#FEFEFC" transform="translate(424,391)"/>
<path d="M0 0 C36.3 0 72.6 0 110 0 C110 33.33 110 66.66 110 101 C106.60854693 99.30427347 105.2059289 98.41745372 102.75 95.8125 C100.36668209 93.29349815 97.86639571 90.98650734 95.25 88.71484375 C91.15353079 85.15805461 87.19172142 81.47662066 83.25 77.75 C77.55893096 72.39125616 71.83096552 67.07970121 66.05859375 61.80859375 C62.51537135 58.56443661 59.00836194 55.28175903 55.5 52 C50.01195492 46.8675008 44.49404746 41.77025702 38.94921875 36.69921875 C35.85610204 33.86830001 32.7694588 31.03055449 29.6875 28.1875 C29.15600342 27.69725342 28.62450684 27.20700684 28.0769043 26.7019043 C25.08326073 23.93651769 22.09966429 21.16079671 19.125 18.375 C18.14732666 17.45944336 18.14732666 17.45944336 17.14990234 16.52539062 C15.85576078 15.31336056 14.5618111 14.10112556 13.26806641 12.88867188 C9.33114425 9.20992554 5.34344901 5.61008334 1.22265625 2.13671875 C0.81917969 1.76160156 0.41570313 1.38648438 0 1 C0 0.67 0 0.34 0 0 Z " fill="#FEFEFE" transform="translate(545,391)"/>
<path d="M0 0 C0.33 0 0.66 0 1 0 C1 33.66 1 67.32 1 102 C-27.71 102 -56.42 102 -86 102 C-84.49214039 98.98428077 -83.50872293 97.22758243 -81.3828125 94.8203125 C-80.86452881 94.22855225 -80.34624512 93.63679199 -79.81225586 93.02709961 C-79.25546143 92.39940674 -78.69866699 91.77171387 -78.125 91.125 C-76.94103136 89.77506829 -75.75744601 88.42480033 -74.57421875 87.07421875 C-73.97528809 86.39278809 -73.37635742 85.71135742 -72.75927734 85.00927734 C-70.12887255 82.00508202 -67.53180027 78.97287008 -64.9375 75.9375 C-63.94532601 74.77863427 -62.9531385 73.6197801 -61.9609375 72.4609375 C-60.97390406 71.3073381 -59.98692483 70.15369232 -59 69 C-52.31098326 61.18069397 -45.60251244 53.37934454 -38.85791016 45.60791016 C-33.71108119 39.67422648 -28.59882664 33.71136351 -23.49267578 27.74267578 C-21.97520879 25.97105665 -20.4548123 24.20199221 -18.93359375 22.43359375 C-17.91396231 21.24748195 -16.89443024 20.06128473 -15.875 18.875 C-15.38273926 18.30241455 -14.89047852 17.7298291 -14.38330078 17.13989258 C-11.9172914 14.26397146 -9.47166559 11.37365995 -7.05859375 8.453125 C-6.59533691 7.89254395 -6.13208008 7.33196289 -5.65478516 6.75439453 C-4.38782497 5.21643668 -3.12540728 3.67473999 -1.86328125 2.1328125 C-1.24839844 1.42898438 -0.63351562 0.72515625 0 0 Z " fill="#FEFDFA" transform="translate(419,395)"/>
<path d="M0 0 C7.39501602 7.39501602 14.17526331 15.15414493 20.75 23.28125 C22.93501569 25.92147729 25.19171391 28.4672972 27.5 31 C31.41891252 35.29991791 35.09170869 39.75919547 38.75 44.28125 C41.64475711 47.77908151 44.69589539 51.11785404 47.75390625 54.47265625 C50.06187598 57.06962393 52.25555863 59.73404013 54.4375 62.4375 C57.51336588 66.24087503 60.68753166 69.90082652 64 73.5 C68.10270302 77.9578056 71.95302974 82.56215839 75.75 87.28125 C78.81343204 90.98289705 82.06487058 94.4966566 85.34765625 98.00390625 C87 100 87 100 87 102 C58.29 102 29.58 102 0 102 C0 68.34 0 34.68 0 0 Z " fill="#FEFEFA" transform="translate(660,395)"/>
<path d="" fill="#2B68BA" transform="translate(0,0)"/>
</svg>
